<svg width="46" height="27" viewBox="0 0 46 27" fill="none" xmlns="http://www.w3.org/2000/svg">
<path d="M6.80692 13.4964C7.43434 12.4097 9.00292 12.4097 9.63034 13.4964L15.7477 24.092C16.3751 25.1787 15.5908 26.5372 14.336 26.5372H2.10127C0.846429 26.5372 0.0621515 25.1787 0.689571 24.092L6.80692 13.4964Z" fill="#1C1C1D"/>
<path d="M17.6765 9.05779C18.5223 7.60118 20.6367 7.60118 21.4824 9.05779L29.7285 23.2598C30.5742 24.7164 29.517 26.5372 27.8255 26.5372H11.3334C9.64192 26.5372 8.58473 24.7164 9.43047 23.2598L17.6765 9.05779Z" fill="#1C1C1D"/>
<path d="M29.3024 4.08537C30.3887 2.21438 33.1046 2.21438 34.191 4.08537L44.7829 22.3276C45.8692 24.1986 44.5113 26.5373 42.3386 26.5373H21.1548C18.9821 26.5373 17.6241 24.1986 18.7105 22.3276L29.3024 4.08537Z" fill="#1C1C1D"/>
<circle cx="11.4401" cy="3.40957" r="3.22134" fill="#1C1C1D"/>
</svg>
