<svg xmlns="http://www.w3.org/2000/svg" width="52" height="52" fill="none"><path fill="#1BDBC4" d="M0 0h52v52H0z"/><path fill="#fff" d="M6.73 30.95a.8.8 0 0 1-.2-.3c-.02-.11-.1-.2-.24-.28a7.16 7.16 0 0 0-.1-.53l-.1-.62L6 28.6c0-.22 0-.41.04-.59.02-.1.05-.18.09-.26a7 7 0 0 0 .25-.48.4.4 0 0 0 .02-.25c.06-.01.1-.04.1-.1.03-.06.08-.08.16-.06a7.44 7.44 0 0 1 .5-1.2l.29-.56c.1-.2.2-.42.28-.66-.18-.16-.3-.34-.39-.52a4.17 4.17 0 0 1-.27-1.18c-.02-.2-.06-.41-.12-.62.12-.19.27-.34.45-.45.18-.13.37-.22.58-.3.22-.08.46-.14.71-.18l.8-.17a14.96 14.96 0 0 1 2.52-.58 31.23 31.23 0 0 0 2.6-.37c0 .03.02.05.04.05h.1c.04.07.1.1.18.1 0-.02 0-.05-.02-.07v-.08c.02 0 .05 0 .08.02a.5.5 0 0 1 .1.03h.07c.03-.02.03-.06.02-.11.13.22.29.4.49.54s.42.26.66.36v.2a.5.5 0 0 1-.02.12.4.4 0 0 0-.01.13c0 .04 0 .1.03.18-.17.28-.36.5-.58.66-.21.15-.44.27-.68.35-.24.09-.5.15-.77.19a34.08 34.08 0 0 0-1.65.32c-.28.09-.56.21-.83.38a.48.48 0 0 0-.24-.03.76.76 0 0 0-.2.03l-.25.06a.8.8 0 0 1-.32 0 .75.75 0 0 1-.3.15l-.33.1c.06.11.08.22.07.34 0 .11.01.2.04.3.44.03.93.03 1.47 0 .53-.06 1.05-.1 1.57-.12 0 .06 0 .1-.02.11-.02.02-.03.06-.03.11.1.06.18.14.27.23l.25.28.28.22c.1.05.2.07.33.06.05.1.09.21.11.33.02.11 0 .23-.05.35l-.6.42a6.26 6.26 0 0 1-1.33.65c-.25.08-.52.1-.82.1h-.14c-.03 0-.07-.02-.12-.07a.86.86 0 0 1-.43.07.8.8 0 0 0-.42.04 1.56 1.56 0 0 0-.52-.07 1.5 1.5 0 0 1-.5-.08 9.87 9.87 0 0 0-.98 1.78 6.16 6.16 0 0 0 1.87.02l.77-.1c.27-.03.6-.04 1-.03.25-.12.55-.2.89-.25.34-.05.66-.12.96-.21.1.03.19.09.26.18.08.09.14.17.2.27l.23.21c.07.07.17.09.28.07.05.05.08.1.1.18l.04.2c.02.07.05.12.08.16.03.03.09.04.17.03a2.73 2.73 0 0 1-1.5 1.44c-.3.11-.65.2-1.04.26l-1.28.2a.72.72 0 0 1-.3 0 .6.6 0 0 0-.23-.04l-1.05.15c-.4.06-.8.08-1.21.07-.41-.01-.8-.07-1.18-.16-.38-.1-.7-.26-.94-.5Zm19.3-.78a2.45 2.45 0 0 1-1.24 1.36c-.2.1-.4.15-.62.16a.75.75 0 0 1-.29-.1 1.67 1.67 0 0 0-.23-.15.25.25 0 0 0-.07-.04l-.18-.08.06-.2c.02-.09.01-.15-.02-.19a1 1 0 0 0-.19-.2l-.09-.1a.61.61 0 0 1-.08-.09l-.27-.3.43-.1c.26-.07.43-.17.52-.28.1-.11.13-.3.1-.57-.2-.04-.38-.05-.53-.02l-.42.11-.58.14c-.2.03-.4.05-.63.05h-.24l-.23-.04-.16-.03c-.02-.11-.04-.17-.06-.18l-.07-.06a1.9 1.9 0 0 1-.17-.2.46.46 0 0 1-.03-.35.74.74 0 0 1-.1-.28c-.06.13-.1.26-.14.4l-.06.15-.16.03c-.02 0-.03.03-.04.08a.25.25 0 0 0-.02.07l-.08.27-.06.06a.25.25 0 0 0-.06.04 2.8 2.8 0 0 1-.18.55l-.14.4c-.03.12-.04.25-.03.37l-.06.17a.8.8 0 0 1-.17.16l-.2.1a.37.37 0 0 1-.09.05.6.6 0 0 0-.08.03l-.04.17-.2.04a15.1 15.1 0 0 0-.4.06l-.16-.02a39.15 39.15 0 0 1-.48-.39.77.77 0 0 1-.16-.27 5.35 5.35 0 0 0-.11-.42l-.2-.19.17-.14.01-.26a25.65 25.65 0 0 1 1.4-3.01l.24-.5.25-.5a.34.34 0 0 1 .01-.24l.29-.47.22-.43a4.36 4.36 0 0 1 .6-1.02l.25-.11.1-.03a.31.31 0 0 1 .15-.03l.23.03c.3-.14.55-.32.77-.56.22-.25.45-.54.68-.88l.16-.22.2.12.22.1.3.07.53.14c.17.05.3.13.41.24.06.16.1.29.11.37l.05.25a9.2 9.2 0 0 1 .14 1.11c.05.18.1.35.13.53l.1.51.16.73c.05.23.12.44.2.65.09 0 .14 0 .16.02a8.57 8.57 0 0 1 .36-.08l.18-.02.06.16c.01.05.06.1.16.15.13.01.23.04.3.1.06.04.12.08.17.14a.5.5 0 0 0 .13.09l.23.1-.12.22c-.11.19-.26.37-.46.55-.19.16-.4.3-.64.42l.01.18.05.17.08.54c.02.2.02.38 0 .58l-.03.06ZM21.5 27.5l.85-.06c.26-.03.55-.08.87-.14a60.6 60.6 0 0 0-.5-1.97l-.1.15a7.34 7.34 0 0 0-1.1 1.5 456.48 456.48 0 0 1-.36.55l.17-.02.17-.01Zm7.3-3c.08-.21.2-.4.35-.55a3.62 3.62 0 0 1 1.15-.67l.6-.18a18.01 18.01 0 0 1 2.8-.93c.5-.13 1.01-.2 1.53-.24.53-.04 1.08.02 1.65.19.04.1.08.2.15.3l.18.27.2.28c.04.08.08.17.09.26.1.1.19.2.25.31.06.1.07.25.03.42l-.31.24-.32.17c-.39-.1-.78-.13-1.18-.1l-1.07.08a.47.47 0 0 0-.34-.14c-.13 0-.26.02-.41.06l-.42.13a.86.86 0 0 1-.4.03.9.9 0 0 1-.39.17l-.49.06c0 .05 0 .09.03.11.04.01.04.04.02.1.06.07.14.12.24.15l.31.1c.12.02.21.06.3.11.08.05.14.12.17.22.16 0 .3.04.41.11a.98.98 0 0 1 .44.6.9.9 0 0 1 .06.32c.03.08.07.11.11.1.04 0 .1.01.14.07a1 1 0 0 0 .24.41c.13.14.23.29.3.45l.05.7c0 .2-.03.4-.11.6-.16.39-.38.73-.66 1.03-.28.3-.6.57-.95.8a6.7 6.7 0 0 1-1.11.6c-.4.16-.79.3-1.17.41a.26.26 0 0 0-.12 0c-.04.01-.05-.01-.03-.07a.6.6 0 0 1-.29.14 4.43 4.43 0 0 1-.68 0c-.1-.01-.22-.01-.32.01a3.87 3.87 0 0 1-.2-.22.7.7 0 0 1-.13-.24c-.05 0-.08-.03-.08-.08.01-.05 0-.08-.05-.08.07-.1.1-.16.08-.17 0-.02-.01-.04-.05-.05l-.06-.03c-.02-.02-.02-.04-.01-.07a.5.5 0 0 0 .04-.28c0-.12-.02-.23-.03-.34 0-.12 0-.23.02-.33.03-.1.1-.19.23-.25.36.04.7.03 1-.03.33-.07.64-.17.92-.3.28-.12.55-.25.8-.4.26-.14.52-.27.77-.38a.7.7 0 0 1 .13-.24l.19-.17c.06-.05.12-.1.17-.17a.54.54 0 0 0 .1-.23c.02-.07 0-.11-.05-.13-.05-.02-.07-.06-.07-.12l-.17-.05c-.2-.1-.42-.2-.68-.27a4.3 4.3 0 0 1-.64-.27.42.42 0 0 1-.33.05 3.3 3.3 0 0 0-.38-.1c-.35-.02-.7-.05-1.03-.1a3.8 3.8 0 0 1-.95-.28.6.6 0 0 0-.08-.14c-.03-.04-.08-.05-.17-.03a2.28 2.28 0 0 1-.36-.5l.05-.3a.33.33 0 0 0-.1-.27l.1-.33a.84.84 0 0 0 0-.32Zm14.04 2.92a.84.84 0 0 0-.2.23 6.04 6.04 0 0 0-.32.6c-.07.1-.14.19-.24.27-.05.16-.1.28-.16.37-.05.09-.13.18-.25.3-.1.41-.35.86-.74 1.35a.74.74 0 0 1-.09.28 3.02 3.02 0 0 1-.25.43l-.03.16c-.05.08-.11.15-.18.21l-.17.17a.91.91 0 0 1-.1.13l-.24.09c-.77-.1-1.23-.5-1.4-1.2l.01-.16.05-.16.06-.19.14-.43c.07-.14.16-.27.27-.39l.14-.34a10 10 0 0 1 .73-1.32l.2-.34c-.1-.16-.23-.31-.38-.45l-.36-.74c-.1-.24-.17-.45-.22-.64a2.46 2.46 0 0 0-.05-.34 14.58 14.58 0 0 1-.17-.99.5.5 0 0 1-.1-.22l.04-.15a.48.48 0 0 0 .01-.28 4.65 4.65 0 0 0-.15-.71 1.47 1.47 0 0 1-.02-.38.92.92 0 0 1 .1-.34.8.8 0 0 1 .3-.3h.26c.1.04.19.1.27.15.1.04.18.09.27.14l.33.15.33.2.1.22.21.17v.17l.02.17c0 .14.02.22.06.25l.06.19c0 .14.02.28.05.42a16.45 16.45 0 0 0 .19.7c.03.13.03.27.01.41a.6.6 0 0 0 .16-.1.24.24 0 0 1 .06-.05.25.25 0 0 0 .07-.05l.92-1.24-.03-.16.33-.3a992.66 992.66 0 0 0 .44-.47l.17-.12c.34-.52.82-.84 1.43-.97l.22-.03.07.2a.7.7 0 0 0 .25.31c.13.1.28.19.42.27l.14.1c.06.1.08.17.08.22l-.01.14.06.16c-.08.25-.19.43-.31.54-.12.11-.23.22-.35.31l-.27.23a.63.63 0 0 0-.17.25l-.11.13a.85.85 0 0 0-.42.5l-.05.18h-.19l-.08.06a1.3 1.3 0 0 0-.16.26l-.15.2-.08.08a2.34 2.34 0 0 1-.1.25 1.2 1.2 0 0 0-.25.31l-.1.22c-.05.08-.1.16-.13.25a.78.78 0 0 1-.18.23l-.07.23Z"/></svg>