<svg xmlns="http://www.w3.org/2000/svg" width="24" height="24" viewBox="0 -960 960 960"><path fill="000" d="M560-564v-68q33-14 68-21t72-7q26 0 51 4t49 10v64q-24-9-48-13t-52-5q-38 0-73 10t-67 26Zm0 220v-68q33-14 68-21t72-7q26 0 51 4t49 10v64q-24-9-48-13t-52-5q-38 0-73 9t-67 27Zm0-110v-68q33-14 68-21t72-7q26 0 51 4t49 10v64q-24-9-48-13t-52-5q-38 0-73 10t-67 26ZM260-320q47 0 92 11t88 31v-394q-41-24-87-36t-93-12q-36 0-71 7t-69 21v396q35-12 70-18t70-6Zm260 42q44-21 89-31t91-11q36 0 71 6t69 18v-396q-33-14-68-21t-72-7q-47 0-93 12t-87 36v394Zm-40 118q-48-38-104-59t-116-21q-42 0-82 11t-78 31q-21 11-40-1t-20-35v-482q0-11 6-21t16-15q46-24 96-36t102-12q58 0 114 15t106 45q51-30 107-45t113-15q52 0 102 12t96 36q11 5 17 15t5 21v482q0 23-19 35t-41 1q-37-20-77-31t-83-11q-60 0-116 21t-104 59ZM280-494Z"/></svg>