<svg xmlns="http://www.w3.org/2000/svg" width="132" height="50" fill="none"><path fill="#fff" fill-rule="evenodd" d="M54.596 0H75.35v5.684l-3.957 8.126H60.21v7.204h-5.614V0Zm14.709 5.684H60.21v2.441h7.906l1.189-2.44ZM75.35 0H96.105v5.684l-3.958 8.126h-.023l3.51 7.204h-6.046l-3.51-7.204h-5.114v7.204H75.35V0Zm14.71 5.684h-9.096v2.441H88.87l1.19-2.44Z" clip-rule="evenodd"/><path fill="#fff" fill-rule="evenodd" d="M101.247 5.684v9.646h9.527V5.684h-9.527ZM110.774 0h5.614V15.33l-5.614 5.684H95.633V5.684L101.247 0h9.527Z" clip-rule="evenodd"/><path fill="#C53720" fill-rule="evenodd" d="M60.21 33.903v2.44h9.526v-2.44H60.21Zm0 8.125v7.205h-5.614V33.903l5.614-5.684h15.14v21.013h-5.614v-7.204H60.21Z" clip-rule="evenodd"/><path fill="#C53720" fill-rule="evenodd" d="M84.877 28.219h5.614v15.33l-5.614 5.684H69.736V28.219h5.614v15.329h9.527v-15.33ZM98.061 28.219H111.245v5.684h-7.57V49.233h-5.614V33.902h-7.57V28.22h7.57ZM116.859 33.903v9.645h9.527v-9.645h-9.527Zm9.527-5.684H132v15.329l-5.614 5.685H111.245V33.903l5.614-5.684h9.527Z" clip-rule="evenodd"/><path fill="#C53720" d="M48.981 0h-5.614v49.232h5.614V0Z"/><path fill="#fff" fill-rule="evenodd" d="M43.368 0H27.89L13.48 12.12 9.636 8.855H.928l3.978 4.028h3.978l22.212 6.66-5.857-4.199h18.129V0ZM9.061 17.313l12.112 8.504-9.548-1.075-4.242-7.488 1.678.06ZM43.368 32.35H9.724l17.681 12.71H4.597L0 25.012v24.222h12.73v-1.061h30.638V32.35ZM43.368 26.128l-21.27-.223 13.542 1.54h7.728v-1.317Z" clip-rule="evenodd"/></svg>