<svg>
  <symbol id="chat" xmlns="http://www.w3.org/2000/svg" width="14" height="13"  viewBox="0 0 14 13" fill="none">
    <path fill="currentColor" fill-rule="evenodd" d="M14 6.1c0 3.36-3.13 6.09-7 6.09-.7 0-1.38-.09-2.05-.27-.51.26-1.69.76-3.66 1.08-.18.03-.31-.16-.24-.32.3-.73.59-1.7.67-2.58A5.65 5.65 0 0 1 0 6.1C0 2.72 3.13 0 7 0s7 2.73 7 6.1Zm-9.63 0a.87.87 0 0 1-.87.87.88.88 0 0 1-.88-.88.87.87 0 0 1 .88-.87.88.88 0 0 1 .88.87Zm3.5 0a.87.87 0 0 1-.87.87.88.88 0 0 1-.88-.88.87.87 0 0 1 .88-.87.88.88 0 0 1 .88.87Zm2.63.87a.88.88 0 0 0 .88-.88.87.87 0 0 0-.88-.87.88.88 0 0 0-.88.87.87.87 0 0 0 .88.88Z" clip-rule="evenodd"/>
  </symbol>
  <symbol id="call" xmlns="http://www.w3.org/2000/svg" width="14" height="14" viewBox="0 0 14 14" fill="none">
    <path fill="currentColor" d="M12.9 2.55 11.2.88a1.28 1.28 0 0 0-1.8 0L7.6 2.68a1.28 1.28 0 0 0 0 1.81l1.32 1.33a6.21 6.21 0 0 1-3.1 3.1L4.49 7.6a1.28 1.28 0 0 0-1.8 0L.88 9.4a1.28 1.28 0 0 0 0 1.82l1.67 1.67a2.07 2.07 0 0 0 1.8.58 11.13 11.13 0 0 0 5.94-3.18c1.7-1.7 2.83-3.8 3.18-5.94.11-.65-.1-1.32-.58-1.8Z"/>
  </symbol>
  <symbol id="mail" xmlns="http://www.w3.org/2000/svg" width="14" height="11"  viewBox="0 0 14 11" fill="none">
    <path fill="currentColor" d="M14 2.85v6.03c0 .57-.23 1.1-.64 1.5-.41.4-.97.62-1.55.62H2.2c-.58 0-1.14-.22-1.55-.62-.41-.4-.64-.93-.64-1.5V2.85l6.78 3.86a.45.45 0 0 0 .44 0L14 2.85ZM11.81 0c.54 0 1.06.2 1.46.54.4.35.66.82.72 1.34L7 5.86.01 1.88C.07 1.36.33.88.73.54 1.13.19 1.65 0 2.19 0h9.62Z"/>
  </symbol>
  <symbol id="star" xmlns="http://www.w3.org/2000/svg" width="16" height="15"  viewBox="0 0 16 15" fill="none">
    <path fill="currentColor" fill-rule="evenodd" d="M10.81 3.83a1 1 0 0 1-.83-.4L7.94.76a1.09 1.09 0 0 0-1.9.31L4.97 4.27a1 1 0 0 1-.65.64L1.04 5.93a1.09 1.09 0 0 0-.27 1.95l2.69 1.74a1 1 0 0 1 .45.85l-.05 3.17c-.01.9 1 1.43 1.72.9l2.89-2.06a1 1 0 0 1 .87-.14l3.39 1.02c.86.25 1.64-.57 1.34-1.42l-1.08-2.98a1 1 0 0 1 .16-.96l1.98-2.51c.57-.73.03-1.79-.9-1.76l-3.42.1Z" clip-rule="evenodd"/>
  </symbol>
</svg>