<svg>
  <symbol id="dzen" xmlns="http://www.w3.org/2000/svg" width="36" height="36" viewBox="0 0 36 36" fill="none">
    <path fill="currentColor" fill-rule="evenodd" d="M36 18.2v-.4c-7.97-.24-11.61-.44-14.52-3.28-2.84-2.9-3.04-6.55-3.28-14.52h-.4c-.24 7.97-.44 11.62-3.28 14.52-2.9 2.84-6.55 3.04-14.52 3.28v.4c7.97.24 11.62.44 14.52 3.28 2.84 2.9 3.04 6.55 3.28 14.52h.4c.24-7.97.44-11.62 3.28-14.52 2.9-2.84 6.55-3.04 14.52-3.28Z" clip-rule="evenodd"/>
  </symbol>
  <symbol id="facebook" xmlns="http://www.w3.org/2000/svg" width="11" height="24" viewBox="0 0 11 24" fill="none">
    <path fill="currentColor" d="M10.56 11.98H7.29V24H2.35V11.98H0V7.75h2.35V5.02C2.35 3.06 3.27 0 7.34 0L11 .02v4.1H8.34c-.43 0-1.05.22-1.05 1.15v2.49H11l-.43 4.22Z"/>
  </symbol>
  <symbol id="insta" xmlns="http://www.w3.org/2000/svg" width="20" height="20" viewBox="0 0 20 20" fill="none">
    <path fill="currentColor" fill-rule="evenodd" d="M.204 5.645A5.445 5.445 0 0 1 5.648.2h8.712a5.445 5.445 0 0 1 5.444 5.445v8.711a5.445 5.445 0 0 1-5.444 5.445H5.648a5.445 5.445 0 0 1-5.444-5.445V5.645Zm17.414-2.178a1.09 1.09 0 1 0-2.18 0 1.09 1.09 0 0 0 2.18 0Zm-7.61 1.089a5.445 5.445 0 1 1-.002 10.89 5.445 5.445 0 0 1 .001-10.89ZM6.734 9.999a3.267 3.267 0 1 1 6.534 0 3.267 3.267 0 0 1-6.534 0Z" clip-rule="evenodd"/>
  </symbol>
  <symbol id="tik-tok" xmlns="http://www.w3.org/2000/svg" width="20" height="23" viewBox="0 0 20 23" fill="none">
    <path fill="currentColor" d="M19.05 5.93A5.42 5.42 0 0 1 13.61.55h-3.5v9.6l-.01 5.25a3.18 3.18 0 1 1-2.19-3.02V8.82a6.74 6.74 0 0 0-7.74 6.16 6.58 6.58 0 0 0 2.6 5.68 6.74 6.74 0 0 0 5.14 1.32 6.71 6.71 0 0 0 5.73-6.55l-.02-7.85a8.87 8.87 0 0 0 5.44 1.85v-3.5Z"/>
  </symbol>
  <symbol id="twitter" xmlns="http://www.w3.org/2000/svg" width="24" height="19" viewBox="0 0 24 19" fill="none">
    <path fill="currentColor" d="M23.3 2.24c-.85.38-1.78.64-2.74.75a4.8 4.8 0 0 0 2.1-2.64c-.92.55-1.95.94-3.04 1.16a4.78 4.78 0 0 0-8.14 4.36c-3.98-.2-7.5-2.1-9.86-5A4.76 4.76 0 0 0 3.1 7.26a4.75 4.75 0 0 1-2.16-.6v.06a4.78 4.78 0 0 0 3.83 4.69 4.76 4.76 0 0 1-2.16.08 4.79 4.79 0 0 0 4.47 3.32A9.6 9.6 0 0 1 0 16.79a13.52 13.52 0 0 0 7.33 2.15c8.8 0 13.6-7.29 13.6-13.6l-.01-.62a9.7 9.7 0 0 0 2.38-2.48Z"/>
  </symbol>
  <symbol id="vk" xmlns="http://www.w3.org/2000/svg" width="26" height="14" viewBox="0 0 26 14" fill="none">
    <path fill="currentColor" d="M23.17 9.63c2.03 1.76 2.45 2.4 2.51 2.5.84 1.3-.92 1.46-.92 1.46h-3.73s-.9.01-1.68-.5c-1.26-.8-2.58-2.38-3.51-2.1-.78.22-.78 1.26-.78 2.14 0 .32-.27.46-.9.46h-1.17c-2.04 0-4.25-.67-6.46-2.94C3.41 7.45.67.98.67.98S.51.66.68.46c.2-.22.75-.2.75-.2h3.6s.35.07.6.24c.2.14.3.4.3.4s.61 1.97 1.39 3.22c1.5 2.46 2.2 2.52 2.72 2.25.75-.38.5-2.98.5-2.98s.04-1.12-.35-1.62c-.3-.39-.88-.6-1.13-.62-.2-.03.14-.38.57-.58.58-.25 1.36-.32 2.72-.3a6.9 6.9 0 0 1 1.77.16c1.25.28.94 1.03.94 3.65 0 .83-.11 2.01.53 2.4.28.17 1.23.38 2.92-2.32a17.3 17.3 0 0 0 1.44-3.4s.13-.24.34-.36c.2-.12.2-.11.49-.11l3.8-.03c.63 0 1.23 0 1.33.36.15.53-.47 2.32-2.02 4.26-2.55 3.2-2.83 2.9-.72 4.75Z"/>
  </symbol>
</svg>