<svg width="64" height="57" viewBox="0 0 64 57" fill="none" xmlns="http://www.w3.org/2000/svg">
<path d="M56.8205 7.35166C54.5931 5.11899 51.671 4 48.7489 4C45.8268 4 42.9047 5.11899 40.6773 7.35166L31.8686 16.1816L23.5107 7.80244C21.2833 5.56977 18.3612 4.45078 15.4391 4.45078C12.517 4.45078 9.59494 5.56977 7.36757 7.80244C4.06895 10.8041 4.02122 15.8422 4.02122 15.8422L4 49.2686C4 51.496 5.27278 52.8218 7.40999 52.8218H17.4066C19.8886 52.8218 20.7901 50.9922 20.7901 49.7671V37.2037C24.4441 40.6826 28.623 44.6707 29.392 45.445C30.1132 46.1715 30.9034 46.8822 31.9429 46.914C31.9694 46.914 32.9823 47.1738 34.7854 45.3707C35.6552 44.4957 39.5796 40.5819 43.2653 36.9014V49.7671C43.2653 50.9975 44.1669 52.8218 46.6435 52.8218H56.6402C58.7721 52.8218 60.0501 51.4907 60.0501 49.2686C60.0501 49.2686 60.0714 15.5929 60.0714 15.3967C60.082 12.4534 59.0584 9.59494 56.8205 7.35166Z" fill="white" stroke="white" stroke-width="6.7" stroke-miterlimit="10"/>
<path d="M55.1287 22.0258C55.1022 22.0523 55.081 22.0788 55.0545 22.1053L51.8513 25.3085C50.3187 26.4434 48.4307 27.0692 46.5162 27.0692C45.9912 27.0692 45.4768 27.0055 44.973 26.9154C43.8964 26.7298 42.8835 26.3373 41.9501 25.7752C41.8865 25.7381 41.8122 25.7062 41.7486 25.6691C41.4092 25.4517 41.1016 25.1971 40.794 24.932C40.5978 24.7676 40.391 24.6297 40.2053 24.4494L39.9137 24.1577L38.7416 22.9857L33.5497 17.7938L42.1463 9.19719C43.8699 7.47363 46.1609 6.52435 48.5951 6.52435C52.5195 6.52435 54.8848 9.03279 55.0492 9.19719C55.834 9.98207 56.4492 10.8889 56.8947 11.87C57.0167 12.1405 57.128 12.4163 57.2235 12.692C57.547 13.6307 57.722 14.6277 57.722 15.646C57.7273 15.7944 57.966 19.1938 55.1287 22.0258ZM57.6531 48.9186C57.6531 50.1012 57.2076 50.324 56.3856 50.324H46.5321C45.5351 50.324 45.3071 49.8148 45.2912 49.4118V34.8809H45.2859C47.9057 32.2611 54.8264 25.3403 56.2742 23.8925C56.8151 23.3516 57.2606 22.7894 57.6478 22.2273V48.9186H57.6531ZM33.3694 43.61C32.5421 44.4373 32.2398 44.5275 32.1126 44.5169C31.927 44.5116 31.5928 44.1934 31.0148 43.6843C26.4222 39.6803 9.33506 22.5561 9.33506 22.5561C4.33409 16.7808 7.6115 11.3768 9.33506 9.65327C11.0586 7.92971 13.3496 6.98043 15.7891 6.98043C18.2286 6.98043 20.5196 7.92971 22.2379 9.65327L38.6303 26.0456C41.2819 28.6973 44.9942 29.8799 47.1526 29.8799C43.5146 33.4914 34.7218 42.2524 33.3694 43.61ZM18.9658 49.4065C18.9658 49.6186 18.8756 50.3187 17.7248 50.3187H7.87137C7.04937 50.3187 6.60389 50.0959 6.60389 48.9133V22.5561C6.63571 22.5932 6.66223 22.6197 6.66223 22.6197C7.01755 23.1182 7.38347 23.6061 7.83425 24.0516L15.4179 31.6353L15.3861 31.6671C15.4073 31.6883 15.8793 32.1338 16.6377 32.8497L18.9711 35.1832V49.4065H18.9658ZM56.5606 7.70697C54.365 5.51142 51.4854 4.41365 48.6057 4.41365C45.726 4.41365 42.8517 5.51142 40.6508 7.70697L31.9694 16.3884L23.7334 8.15245C21.5379 5.9569 18.6582 4.85912 15.7785 4.85912C12.8988 4.85912 10.0192 5.9569 7.82363 8.15245C4.57273 11.1064 4.53031 16.0596 4.53031 16.0596H4.50909V48.9186C4.50909 51.1088 5.76598 52.4134 7.86607 52.4134H17.7195C20.1643 52.4134 21.05 50.6156 21.05 49.4065V37.0552C24.6509 40.4758 28.7662 44.4002 29.5299 45.1586C30.2405 45.8692 31.0201 46.5693 32.0436 46.6011C32.0701 46.6011 33.0725 46.8609 34.8437 45.0843C35.7029 44.2252 39.5636 40.375 43.2017 36.7529V49.4065C43.2017 50.6156 44.0873 52.4134 46.5321 52.4134H56.3856C58.491 52.4134 59.7425 51.1088 59.7425 48.9186C59.7425 48.9186 59.7637 15.8104 59.7637 15.6194C59.7744 12.7239 58.7667 9.91313 56.5606 7.70697Z" fill="#475658"/>
<path d="M57.7272 15.6566C57.7272 14.633 57.5522 13.6413 57.2287 12.7026C57.1332 12.4216 57.0219 12.1458 56.8999 11.8806C56.4544 10.8995 55.8392 9.99268 55.0544 9.2078C54.89 9.0434 52.5141 6.53496 48.6056 6.53496C46.1661 6.53496 43.8751 7.48424 42.1515 9.2078L33.5602 17.8044L39.9242 24.1683L40.2158 24.46C40.3962 24.6403 40.6083 24.7782 40.8045 24.9426C41.1121 25.2024 41.425 25.4623 41.7591 25.6744C41.8227 25.7168 41.897 25.7434 41.9606 25.7805C42.894 26.3373 43.9069 26.7351 44.9835 26.9207C45.4926 27.0108 46.0017 27.0692 46.5267 27.0692C48.4412 27.0692 50.3292 26.4434 51.8618 25.3085C51.8618 25.3085 55.1127 22.0523 55.1339 22.0258C57.9659 19.1938 57.7272 15.7944 57.7272 15.6566Z" fill="#D44B4B"/>
<path d="M48.6056 6.53496C48.8867 6.53496 48.8867 6.53496 48.6056 6.53496C46.1661 6.53496 43.8751 7.48424 42.1515 9.2078L33.5602 17.8044L42.1568 9.2078C43.8804 7.48424 46.1714 6.53496 48.6056 6.53496Z" fill="#475658"/>
<path d="M55.0598 22.1106C55.0863 22.0841 55.1075 22.0576 55.134 22.0311C55.1022 22.0523 55.081 22.0841 55.0598 22.1106Z" fill="#475658"/>
</svg>
