<svg xmlns="http://www.w3.org/2000/svg" width="132" height="58" fill="none"><path fill="#fff" fill-rule="evenodd" d="M54.596 0H75.35v5.684l-3.957 8.126H60.21v7.204h-5.614V0Zm14.709 5.684H60.21v2.441h7.906l1.189-2.44ZM75.35 0H96.105v5.684l-3.958 8.126h-.023l3.51 7.204h-6.046l-3.51-7.204h-5.114v7.204H75.35V0Zm14.71 5.684h-9.096v2.441H88.87l1.19-2.44Z" clip-rule="evenodd"/><path fill="#fff" fill-rule="evenodd" d="M101.247 5.684v9.646h9.527V5.684h-9.527ZM110.774 0h5.614V15.33l-5.614 5.684H95.633V5.684L101.247 0h9.527Z" clip-rule="evenodd"/><path fill="#C53720" fill-rule="evenodd" d="M60.21 33.903v2.44h9.526v-2.44H60.21Zm0 8.125v7.205h-5.614V33.903l5.614-5.684h15.14v21.013h-5.614v-7.204H60.21Z" clip-rule="evenodd"/><path fill="#C53720" fill-rule="evenodd" d="M84.877 28.219h5.614v15.33l-5.614 5.684H69.736V28.219h5.614v15.329h9.527v-15.33ZM98.061 28.219H111.245v5.684h-7.57V49.233h-5.614V33.902h-7.57V28.22h7.57ZM116.859 33.903v9.645h9.527v-9.645h-9.527Zm9.527-5.684H132v15.329l-5.614 5.685H111.245V33.903l5.614-5.684h9.527Z" clip-rule="evenodd"/><path fill="#C53720" d="M48.981 0h-5.614v49.232h5.614V0Z"/><path fill="#fff" fill-rule="evenodd" d="M43.368 0H27.89L13.48 12.12 9.636 8.855H.928l3.978 4.028h3.978l22.212 6.66-5.857-4.199h18.129V0ZM9.061 17.313l12.112 8.504-9.548-1.075-4.242-7.488 1.678.06ZM43.368 32.35H9.724l17.681 12.71H4.597L0 25.012v24.222h12.73v-1.061h30.638V32.35ZM43.368 26.128l-21.27-.223 13.542 1.54h7.728v-1.317Z" clip-rule="evenodd"/><path fill="#fff" d="M6.275 53.902v1.025H2.106c-.283 0-.496.103-.64.31-.128.177-.192.416-.192.715 0 .301.064.538.192.714.144.207.357.31.64.31h4.169V58H1.946c-.63 0-1.113-.18-1.446-.542-.334-.36-.5-.862-.5-1.506 0-.645.166-1.147.5-1.508.333-.361.815-.542 1.446-.542h4.329Zm2.92 3.133h4.23V58h-4.39c-.63 0-1.112-.18-1.444-.542-.334-.36-.5-.862-.5-1.506 0-.645.166-1.147.5-1.508.332-.361.814-.542 1.445-.542h4.39v.966H9.194a.82.82 0 0 0-.555.19c-.065.058-.154.193-.262.403l-.007.026h5.054v.921H8.371l.007.022c.097.211.185.348.262.41a.812.812 0 0 0 .555.195Zm11.474-3.133v1.025h-2.604V58h-1.216v-3.073h-2.605v-1.025h6.425Zm5.923 3.133c.256 0 .384-.104.384-.31 0-.211-.128-.317-.384-.317h-3.89v.627h3.89Zm-3.89-3.133v1.585h4.21c.392 0 .704.11.935.328.229.218.344.527.344.925s-.114.709-.34.928c-.229.221-.542.332-.94.332h-5.424v-4.098h1.216Zm11.454.966v-.966h4.855c.48 0 .861.128 1.14.385.176.156.296.34.36.551.042.157.063.38.063.665V58H35.15c-.395 0-.708-.11-.936-.332-.23-.22-.344-.53-.344-.928s.116-.707.347-.925c.23-.219.543-.328.933-.328h4.209v-.04c0-.304-.112-.488-.334-.551a1.31 1.31 0 0 0-.313-.028h-4.556Zm5.203 2.167v-.627h-3.886c-.258 0-.387.106-.387.317 0 .206.129.31.387.31h3.886Zm2.032-3.133h5.424c.398 0 .711.11.94.333.226.223.34.532.34.93 0 .324-.075.588-.224.795.149.201.224.462.224.78 0 .399-.114.709-.34.93-.229.22-.542.33-.94.33h-5.424v-4.098Zm5.105 3.133c.256 0 .383-.104.383-.31 0-.197-.111-.302-.333-.317h-3.94v.627h3.89Zm-3.89-2.167v.619h3.89c.256.005.383-.098.383-.31 0-.206-.127-.31-.383-.31h-3.89Zm12.732-.966v1.025h-2.605V58h-1.215v-3.073h-2.605v-1.025h6.425Zm2.325 0h3.901c.417 0 .773.149 1.066.446.294.297.44.657.44 1.08v1.046c0 .418-.146.777-.44 1.076-.293.3-.649.45-1.066.45h-3.901a1.44 1.44 0 0 1-1.063-.45 1.477 1.477 0 0 1-.444-1.076v-1.046c0-.423.148-.783.444-1.08.296-.297.65-.446 1.063-.446Zm-.255 1.585v.87c0 .172.06.32.18.442a.593.593 0 0 0 .438.184h3.116a.593.593 0 0 0 .438-.184c.12-.122.18-.27.18-.443v-.87c0-.171-.06-.32-.18-.441a.593.593 0 0 0-.438-.185h-3.116a.593.593 0 0 0-.438.185.608.608 0 0 0-.18.442Zm13.674-1.585h1.237V58h-1.216v-2.846l-.13.096c-.07.054-.16.12-.263.197-.103.08-.214.164-.337.256l-.352.267c-.113.084-.213.162-.303.23l-.195.15a2.911 2.911 0 0 1-.62.38c-.07.032-.137.056-.202.076a1.786 1.786 0 0 1-.394.075 3.05 3.05 0 0 1-.203.015 3.044 3.044 0 0 1-.396-.04 1.32 1.32 0 0 1-.2-.05 2.323 2.323 0 0 1-.414-.183 2.961 2.961 0 0 1-.411-.274l-.196-.15-.305-.235a34.483 34.483 0 0 0-.355-.266l-.34-.254a27.59 27.59 0 0 1-.26-.198l-.122-.092V58H63.89v-4.098h1.237l2.25 1.68a1.58 1.58 0 0 0 .456.243.843.843 0 0 0 .542 0 1.575 1.575 0 0 0 .46-.242l2.247-1.68Zm2.341.966v-.966h4.855c.48 0 .862.128 1.14.385.177.156.297.34.36.551.042.157.064.38.064.665V58h-5.424c-.396 0-.709-.11-.937-.332-.229-.22-.343-.53-.343-.928s.115-.707.347-.925c.23-.219.542-.328.933-.328h4.209v-.04c0-.304-.112-.488-.334-.551a1.311 1.311 0 0 0-.313-.028h-4.557Zm5.204 2.167v-.627H74.74c-.259 0-.387.106-.387.317 0 .206.128.31.387.31h3.886Zm3.247.965H80.66v-4.098h6.419v.966h-5.204V58Zm6.307-3.132v-.966h4.855c.48 0 .861.128 1.14.385.176.156.296.34.36.551.042.157.064.38.064.665V58h-5.425c-.395 0-.708-.11-.936-.332-.23-.22-.343-.53-.343-.928s.115-.707.347-.925c.23-.219.542-.328.932-.328h4.21v-.04c0-.304-.113-.488-.335-.551a1.311 1.311 0 0 0-.313-.028h-4.556Zm5.203 2.167v-.627h-3.886c-.258 0-.387.106-.387.317 0 .206.129.31.387.31h3.886Zm2.033 0h5.104c.256 0 .384-.104.384-.31 0-.197-.112-.302-.334-.317h-4.173v-.921h4.123c.256.005.384-.098.384-.31 0-.206-.128-.31-.384-.31h-5.104v-.965h5.424c.397 0 .71.11.938.333.227.223.341.532.341.93 0 .324-.075.588-.224.795.149.201.224.462.224.78 0 .399-.114.709-.341.93-.228.22-.541.33-.938.33h-5.424v-.965Zm8.964.965c-.497 0-.861-.13-1.093-.39-.235-.261-.351-.547-.351-.862v-2.846h1.215v2.639c0 .29.141.434.424.434h3.682v-3.073h1.216V58h-5.093Zm12.36-4.098V58h-1.216v-1.592h-4.018V58h-1.216v-4.098h1.216v1.585h4.018v-1.585h1.216Zm2.325 0h3.902c.417 0 .773.149 1.067.446.293.297.44.657.44 1.08v1.046c0 .418-.147.777-.44 1.076-.294.3-.65.45-1.067.45h-3.902a1.44 1.44 0 0 1-1.062-.45 1.477 1.477 0 0 1-.444-1.076v-1.046c0-.423.148-.783.444-1.08.296-.297.65-.446 1.062-.446Zm-.254 1.585v.87c0 .172.06.32.18.442a.594.594 0 0 0 .438.184h3.116a.593.593 0 0 0 .438-.184.61.61 0 0 0 .181-.443v-.87a.61.61 0 0 0-.181-.441.592.592 0 0 0-.438-.185h-3.116a.594.594 0 0 0-.438.185.608.608 0 0 0-.18.442Zm6.482-1.585h5.424c.398 0 .711.11.939.333.227.223.341.532.341.93 0 .324-.075.588-.224.795.149.201.224.462.224.78 0 .399-.114.709-.341.93-.228.22-.541.33-.939.33h-5.424v-4.098Zm5.105 3.133c.256 0 .383-.104.383-.31 0-.197-.111-.302-.333-.317h-3.94v.627h3.89Zm-3.89-2.167v.619h3.89c.256.005.383-.098.383-.31 0-.206-.127-.31-.383-.31h-3.89Z"/></svg>