<svg xmlns="http://www.w3.org/2000/svg" viewBox="0 0 64 57">
  <path fill="#fff" stroke="#fff" stroke-miterlimit="10" stroke-width="6.7" d="M56.82 7.35a11.37 11.37 0 0 0-16.14 0l-8.81 8.83L23.5 7.8a11.37 11.37 0 0 0-16.14 0c-3.3 3-3.35 8.04-3.35 8.04L4 49.27c0 2.23 1.27 3.55 3.41 3.55h10c2.48 0 3.38-1.83 3.38-3.05V37.2c3.65 3.48 7.83 7.47 8.6 8.24.72.73 1.51 1.44 2.55 1.47.03 0 1.04.26 2.85-1.54l8.48-8.47v12.87c0 1.23.9 3.05 3.37 3.05h10c2.13 0 3.41-1.33 3.41-3.55l.02-33.87c.01-2.95-1.01-5.8-3.25-8.05Z"/>
  <path fill="#475658" d="m55.13 22.03-.08.08-3.2 3.2a9.01 9.01 0 0 1-6.88 1.6 8.71 8.71 0 0 1-3.02-1.13l-.2-.11a8.49 8.49 0 0 1-.96-.74c-.2-.16-.4-.3-.58-.48l-.3-.3L38.74 23l-5.19-5.2 8.6-8.6a9.06 9.06 0 0 1 6.45-2.67c3.92 0 6.28 2.51 6.45 2.68a9.07 9.07 0 0 1 2.67 6.45c0 .14.25 3.54-2.6 6.38Zm2.52 26.89c0 1.18-.44 1.4-1.26 1.4h-9.86c-1 0-1.22-.5-1.24-.9V34.87L56.27 23.9c.55-.54 1-1.1 1.38-1.66v26.69ZM33.37 43.6c-.83.83-1.13.92-1.26.9-.18 0-.52-.32-1.1-.83-4.59-4-21.67-21.12-21.67-21.12a9.18 9.18 0 0 1 0-12.9 9.07 9.07 0 0 1 6.45-2.68c2.44 0 4.73.95 6.45 2.67l16.39 16.4c2.65 2.65 6.36 3.83 8.52 3.83A7659.1 7659.1 0 0 0 33.37 43.6Zm-14.4 5.8c0 .2-.1.9-1.25.9H7.87c-.82 0-1.27-.21-1.27-1.4V22.56l.06.06c.36.5.72.99 1.17 1.43l7.59 7.59-.03.03 1.25 1.18 2.33 2.33v14.23Zm37.6-41.7a11.21 11.21 0 0 0-15.92 0l-8.68 8.68-8.24-8.24a11.21 11.21 0 0 0-15.9 0c-3.26 2.96-3.3 7.91-3.3 7.91h-.02v32.86c0 2.19 1.26 3.5 3.36 3.5h9.85c2.44 0 3.33-1.8 3.33-3.01V37.06c3.6 3.42 7.72 7.34 8.48 8.1.71.7 1.49 1.4 2.51 1.44.03 0 1.03.26 2.8-1.52l8.36-8.33v12.66c0 1.2.89 3 3.33 3h9.86c2.1 0 3.35-1.3 3.35-3.5l.02-33.3c.01-2.89-1-5.7-3.2-7.9Z"/>
  <path fill="#D44B4B" d="M57.73 15.66a9.04 9.04 0 0 0-.83-3.78 9.07 9.07 0 0 0-1.85-2.67 9.07 9.07 0 0 0-12.9 0l-8.59 8.6 6.36 6.36.3.29c.18.18.39.32.58.48.31.26.63.52.96.73.06.05.14.07.2.11a8.82 8.82 0 0 0 4.57 1.29c1.91 0 3.8-.63 5.33-1.76l3.27-3.28c2.84-2.84 2.6-6.24 2.6-6.37Z"/>
  <path fill="#475658" d="M48.6 6.53c.29 0 .29 0 0 0-2.43 0-4.72.95-6.45 2.68l-8.59 8.6 8.6-8.6a9.06 9.06 0 0 1 6.45-2.68Zm6.46 15.58.07-.08-.07.08Z"/>
</svg>