<svg xmlns="http://www.w3.org/2000/svg">
  <symbol id="icon-phone" viewBox="0 0 27 31">
    <path fill="currentColor" d="M19.65 30.35a3.57 3.57 0 0 1-.8-.18 27.44 27.44 0 0 1-12.68-8.71A27.44 27.44 0 0 1 .35 7.2a3.9 3.9 0 0 1 1.48-3.43L5.42.93a1.62 1.62 0 0 1 1.3-.3 1.6 1.6 0 0 1 1.09.84l3.38 6.57a1.36 1.36 0 0 1-.26 1.56l-2.3 2.26c.6 1.93 1.57 3.7 2.84 5.25a15.7 15.7 0 0 0 4.55 3.93l2.74-1.77a1.32 1.32 0 0 1 1.52.06l5.68 4.71a1.65 1.65 0 0 1 .64 1.3 1.7 1.7 0 0 1-.59 1.31l-3.5 2.86a3.86 3.86 0 0 1-2.86.84ZM6.4 2.25 2.82 5.09A2.12 2.12 0 0 0 1.99 7c.5 4.91 2.4 9.56 5.44 13.38a25.82 25.82 0 0 0 11.92 8.2 2.2 2.2 0 0 0 2.1-.39l3.5-2.85-5.48-4.55-2.94 1.91a.8.8 0 0 1-.76.06 16.32 16.32 0 0 1-5.54-4.58 16.27 16.27 0 0 1-3.3-6.4.85.85 0 0 1 .29-.77L9.7 8.6 6.4 2.25Z"/>
  </symbol>
  <symbol id="icon-map" viewBox="0 0 19 24">
    <path fill="currentColor" d="M9.5 0C14.75 0 19 4.42 19 9.88c0 4.17-2.82 8.72-8.39 13.7a1.67 1.67 0 0 1-2.22-.01l-.37-.33C2.7 18.4 0 13.96 0 9.88 0 4.42 4.25 0 9.5 0Zm0 1.52c-2.13 0-4.18.88-5.68 2.45a8.53 8.53 0 0 0-2.36 5.9c0 3.56 2.48 7.64 7.52 12.22l.36.33a.24.24 0 0 0 .32 0c5.28-4.71 7.88-8.91 7.88-12.54a8.65 8.65 0 0 0-2.36-5.91A8.03 8.03 0 0 0 9.5 1.52Zm0 4.56c.97 0 1.9.4 2.58 1.11a3.88 3.88 0 0 1 0 5.37 3.58 3.58 0 0 1-5.16 0 3.88 3.88 0 0 1 0-5.37A3.58 3.58 0 0 1 9.5 6.08Zm0 1.52c-.58 0-1.14.24-1.55.67a2.33 2.33 0 0 0 0 3.22 2.15 2.15 0 0 0 3.1 0 2.33 2.33 0 0 0 0-3.22A2.15 2.15 0 0 0 9.5 7.6Z"/>
  </symbol>
  <symbol id="icon-clock" viewBox="0 0 23 23">
    <path fill="currentColor" d="M11.5 0a11.5 11.5 0 1 1 0 23 11.5 11.5 0 0 1 0-23Zm0 1.6a9.9 9.9 0 1 0 0 19.8 9.9 9.9 0 0 0 0-19.8Zm-1.07 4.82c.44 0 .8.36.8.8v5.62h5.62a.8.8 0 0 1 0 1.6h-6.42a.8.8 0 0 1-.8-.8V7.22c0-.44.36-.8.8-.8Z"/>
  </symbol>
</svg>