<svg xmlns="http://www.w3.org/2000/svg">
  <symbol id="logo" viewBox="0 0 64 57">
    <path fill="#fff" stroke="#fff" stroke-miterlimit="10" stroke-width="6.7" d="M56.82 7.35a11.37 11.37 0 0 0-16.14 0l-8.81 8.83L23.5 7.8a11.37 11.37 0 0 0-16.14 0c-3.3 3-3.35 8.04-3.35 8.04L4 49.27c0 2.23 1.27 3.55 3.41 3.55h10c2.48 0 3.38-1.83 3.38-3.05V37.2c3.65 3.48 7.83 7.47 8.6 8.24.72.73 1.51 1.44 2.55 1.47.03 0 1.04.26 2.85-1.54l8.48-8.47v12.87c0 1.23.9 3.05 3.37 3.05h10c2.13 0 3.41-1.33 3.41-3.55l.02-33.87c.01-2.95-1.01-5.8-3.25-8.05Z"/>
    <path fill="#475658" d="m55.13 22.03-.08.08-3.2 3.2a9.01 9.01 0 0 1-6.88 1.6 8.71 8.71 0 0 1-3.02-1.13l-.2-.11a8.49 8.49 0 0 1-.96-.74c-.2-.16-.4-.3-.58-.48l-.3-.3L38.74 23l-5.19-5.2 8.6-8.6a9.06 9.06 0 0 1 6.45-2.67c3.92 0 6.28 2.51 6.45 2.68a9.07 9.07 0 0 1 2.67 6.45c0 .14.25 3.54-2.6 6.38Zm2.52 26.89c0 1.18-.44 1.4-1.26 1.4h-9.86c-1 0-1.22-.5-1.24-.9V34.87L56.27 23.9c.55-.54 1-1.1 1.38-1.66v26.69ZM33.37 43.6c-.83.83-1.13.92-1.26.9-.18 0-.52-.32-1.1-.83-4.59-4-21.67-21.12-21.67-21.12a9.18 9.18 0 0 1 0-12.9 9.07 9.07 0 0 1 6.45-2.68c2.44 0 4.73.95 6.45 2.67l16.39 16.4c2.65 2.65 6.36 3.83 8.52 3.83A7659.1 7659.1 0 0 0 33.37 43.6Zm-14.4 5.8c0 .2-.1.9-1.25.9H7.87c-.82 0-1.27-.21-1.27-1.4V22.56l.06.06c.36.5.72.99 1.17 1.43l7.59 7.59-.03.03 1.25 1.18 2.33 2.33v14.23Zm37.6-41.7a11.21 11.21 0 0 0-15.92 0l-8.68 8.68-8.24-8.24a11.21 11.21 0 0 0-15.9 0c-3.26 2.96-3.3 7.91-3.3 7.91h-.02v32.86c0 2.19 1.26 3.5 3.36 3.5h9.85c2.44 0 3.33-1.8 3.33-3.01V37.06c3.6 3.42 7.72 7.34 8.48 8.1.71.7 1.49 1.4 2.51 1.44.03 0 1.03.26 2.8-1.52l8.36-8.33v12.66c0 1.2.89 3 3.33 3h9.86c2.1 0 3.35-1.3 3.35-3.5l.02-33.3c.01-2.89-1-5.7-3.2-7.9Z"/>
    <path fill="#D44B4B" d="M57.73 15.66a9.04 9.04 0 0 0-.83-3.78 9.07 9.07 0 0 0-1.85-2.67 9.07 9.07 0 0 0-12.9 0l-8.59 8.6 6.36 6.36.3.29c.18.18.39.32.58.48.31.26.63.52.96.73.06.05.14.07.2.11a8.82 8.82 0 0 0 4.57 1.29c1.91 0 3.8-.63 5.33-1.76l3.27-3.28c2.84-2.84 2.6-6.24 2.6-6.37Z"/>
    <path fill="#475658" d="M48.6 6.53c.29 0 .29 0 0 0-2.43 0-4.72.95-6.45 2.68l-8.59 8.6 8.6-8.6a9.06 9.06 0 0 1 6.45-2.68Zm6.46 15.58.07-.08-.07.08Z"/>
  </symbol>
  <symbol id="icon-phone" viewBox="0 0 27 31">
    <path fill="currentColor" d="M19.65 30.35a3.57 3.57 0 0 1-.8-.18 27.44 27.44 0 0 1-12.68-8.71A27.44 27.44 0 0 1 .35 7.2a3.9 3.9 0 0 1 1.48-3.43L5.42.93a1.62 1.62 0 0 1 1.3-.3 1.6 1.6 0 0 1 1.09.84l3.38 6.57a1.36 1.36 0 0 1-.26 1.56l-2.3 2.26c.6 1.93 1.57 3.7 2.84 5.25a15.7 15.7 0 0 0 4.55 3.93l2.74-1.77a1.32 1.32 0 0 1 1.52.06l5.68 4.71a1.65 1.65 0 0 1 .64 1.3 1.7 1.7 0 0 1-.59 1.31l-3.5 2.86a3.86 3.86 0 0 1-2.86.84ZM6.4 2.25 2.82 5.09A2.12 2.12 0 0 0 1.99 7c.5 4.91 2.4 9.56 5.44 13.38a25.82 25.82 0 0 0 11.92 8.2 2.2 2.2 0 0 0 2.1-.39l3.5-2.85-5.48-4.55-2.94 1.91a.8.8 0 0 1-.76.06 16.32 16.32 0 0 1-5.54-4.58 16.27 16.27 0 0 1-3.3-6.4.85.85 0 0 1 .29-.77L9.7 8.6 6.4 2.25Z"/>
  </symbol>
  <symbol id="icon-map" viewBox="0 0 19 24">
    <path fill="currentColor" d="M9.5 0C14.75 0 19 4.42 19 9.88c0 4.17-2.82 8.72-8.39 13.7a1.67 1.67 0 0 1-2.22-.01l-.37-.33C2.7 18.4 0 13.96 0 9.88 0 4.42 4.25 0 9.5 0Zm0 1.52c-2.13 0-4.18.88-5.68 2.45a8.53 8.53 0 0 0-2.36 5.9c0 3.56 2.48 7.64 7.52 12.22l.36.33a.24.24 0 0 0 .32 0c5.28-4.71 7.88-8.91 7.88-12.54a8.65 8.65 0 0 0-2.36-5.91A8.03 8.03 0 0 0 9.5 1.52Zm0 4.56c.97 0 1.9.4 2.58 1.11a3.88 3.88 0 0 1 0 5.37 3.58 3.58 0 0 1-5.16 0 3.88 3.88 0 0 1 0-5.37A3.58 3.58 0 0 1 9.5 6.08Zm0 1.52c-.58 0-1.14.24-1.55.67a2.33 2.33 0 0 0 0 3.22 2.15 2.15 0 0 0 3.1 0 2.33 2.33 0 0 0 0-3.22A2.15 2.15 0 0 0 9.5 7.6Z"/>
  </symbol>
  <symbol id="icon-clock" viewBox="0 0 23 23">
    <path fill="currentColor" d="M11.5 0a11.5 11.5 0 1 1 0 23 11.5 11.5 0 0 1 0-23Zm0 1.6a9.9 9.9 0 1 0 0 19.8 9.9 9.9 0 0 0 0-19.8Zm-1.07 4.82c.44 0 .8.36.8.8v5.62h5.62a.8.8 0 0 1 0 1.6h-6.42a.8.8 0 0 1-.8-.8V7.22c0-.44.36-.8.8-.8Z"/>
  </symbol>
</svg>