<svg xmlns="http://www.w3.org/2000/svg" width="132" height="81" fill="none"><path stroke="#fff" stroke-width="4" d="M2 32.73h85.66V79H2z"/><path stroke="#fff" stroke-width="4" d="M93.24 59.45H120a10 10 0 0 0 10-10V12a10 10 0 0 0-10-10H50.34a10 10 0 0 0-10 10v15.14"/><path stroke="#fff" stroke-opacity=".5" stroke-width="4" d="M59.86 55.86a15.05 15.05 0 1 1-15.03-15.05c8.3 0 15.03 6.74 15.03 15.05Z"/><path stroke="#fff" stroke-width="4" d="M42.34 48.89h4.27a3.39 3.39 0 1 1 0 6.77h-4.27v-6.77Z"/><path fill="#fff" d="M36.76 54.07h7.17v3.59h-7.17zM36.76 59.45H52v3.59H36.76z"/><path fill="#fff" d="M40.34 46.89h3.59v18.85h-3.59z"/><path stroke="#fff" stroke-opacity=".5" stroke-width="4" d="M69.03 39.7H80.7v14.37M20.62 72.02H8.97V57.66M8.97 54.07v-7.18"/><path fill="#fff" fill-rule="evenodd" d="M110.28 50.44a7.62 7.62 0 0 1-12.55-5.8 7.62 7.62 0 0 1 12.55-5.8 7.62 7.62 0 1 1 0 11.6Z" clip-rule="evenodd"/><path fill="#fff" fill-opacity=".5" d="M42.14 11.88h86.07v4.49H42.14zM42.14 19.95h86.07v4.49H42.14z"/></svg>