<svg xmlns="http://www.w3.org/2000/svg" width="80" height="96" fill="none"><circle cx="39.5" cy="37.5" r="16.5" stroke="#fff" stroke-opacity=".5" stroke-width="4"/><path stroke="#fff" stroke-width="4" d="m46.665 9.33.806.79 1.092-.281L57.6 7.516l2.507 8.988.303 1.086 1.086.303 8.988 2.507-2.323 9.037-.28 1.092.789.806L75.2 38l-6.53 6.665-.79.806.281 1.092 2.323 9.037-8.988 2.507-1.086.303-.303 1.086-2.507 8.988-9.037-2.323-1.092-.28-.806.789L40 73.2l-6.665-6.53-.806-.79-1.092.281-9.037 2.323-2.507-8.988-.303-1.086-1.086-.303L9.516 55.6l2.323-9.037.28-1.092-.789-.806L4.8 38l6.53-6.665.79-.806-.281-1.092L9.516 20.4l8.988-2.507 1.086-.303.303-1.086L22.4 7.516l9.037 2.323 1.092.28.806-.789L40 2.8l6.665 6.53Z"/><path stroke="#fff" stroke-width="4" d="M15.004 58 4.006 82.18l13.115-.673 8.106 10.332 5.224-11.509M44.557 68.822 55.004 91.84l8.107-10.332 13.114.673-5.499-12.09"/></svg>