<?xml version="1.0" encoding="UTF-8" standalone="no"?>
<!DOCTYPE svg PUBLIC "-//W3C//DTD SVG 1.1//EN" "http://www.w3.org/Graphics/SVG/1.1/DTD/svg11.dtd">
<svg width="100%" height="100%" viewBox="0 0 500 500" version="1.1" xmlns="http://www.w3.org/2000/svg" xmlns:xlink="http://www.w3.org/1999/xlink" xml:space="preserve" xmlns:serif="http://www.serif.com/" style="fill-rule:evenodd;clip-rule:evenodd;stroke-linejoin:round;stroke-miterlimit:2;">
    <g transform="matrix(2.24342,0,0,2.24342,-30.4278,115.395)">
        <g id="K" transform="matrix(0.532064,0,0,0.532064,-8.01872,-73.0161)">
            <path d="M459.29,149.24L307.37,149.24L291,228.59L265.78,350.76L419.07,350.76L378.21,248.87L459.29,149.24Z" style="fill:rgb(0,53,255);fill-rule:nonzero;"/>
        </g>
        <g id="O" transform="matrix(0.532064,0,0,0.532064,-8.01872,-73.0161)">
            <path d="M147.05,294.61L135.46,350.76L252.54,350.76L275.09,241.56L212.14,241.56C180.783,241.74 153.552,263.934 147.05,294.61Z" style="fill:rgb(0,53,255);fill-rule:nonzero;"/>
        </g>
        <g id="G" transform="matrix(0.532064,0,0,0.532064,-8.01872,-73.0161)">
            <path d="M294.14,149.24L201.27,149.24C132.34,149.24 72.19,198.24 58.27,265.73L40.72,350.73L122.2,350.73L134.33,292C142.111,255.338 174.662,228.819 212.14,228.61L277.76,228.61L294.14,149.24Z" style="fill:rgb(0,53,255);fill-rule:nonzero;"/>
        </g>
    </g>
</svg>
