<!-- <?xml version="1.0" encoding="UTF-8" standalone="no"?>
<!DOCTYPE svg PUBLIC "-//W3C//DTD SVG 1.1//EN" "http://www.w3.org/Graphics/SVG/1.1/DTD/svg11.dtd"> -->
<svg width="100%" height="100%" viewBox="0 0 5906 5906" version="1.1" xmlns="http://www.w3.org/2000/svg" xmlns:xlink="http://www.w3.org/1999/xlink" xml:space="preserve" xmlns:serif="http://www.serif.com/" style="fill-rule:evenodd;clip-rule:evenodd;stroke-linejoin:round;stroke-miterlimit:2;">
    <g id="logo-2" transform="matrix(8.87624,0,0,8.87624,480.856,1762.72)">
        <path class="blue" id="K" d="M556.97,0L354.83,0L333.03,105.58L333.04,105.58L299.48,268.14L503.45,268.14L449.09,132.56L556.97,0Z"/>
        <g id="O" transform="matrix(1,0,0,1,-217.51,-360.93)">
            <path class="blue" d="M359,554.36L343.58,629.07L499.38,629.07L529.38,483.77L445.62,483.77C403.861,483.912 367.567,513.489 359,554.36Z"/>
        </g>
        <g id="G" transform="matrix(1,0,0,1,-217.51,-360.93)">
            <path class="blue" d="M554.73,360.93L431.15,360.93C339.43,360.93 259.4,426.13 240.86,515.93L217.51,629.07L325.94,629.07L342.08,550.87C352.319,502.019 395.707,466.672 445.62,466.52L532.93,466.52L554.73,360.93Z"/>
        </g>
    </g>
</svg>
