<svg width="659" height="136" viewBox="0 0 659 136" fill="none" xmlns="http://www.w3.org/2000/svg">
<path fill-rule="evenodd" clip-rule="evenodd" d="M0 45.2421V90.7578C0 98.8916 4.33266 106.404 11.3581 110.452L50.4766 132.989C57.4205 136.99 65.9534 137.004 72.911 133.028L112.432 110.438C119.495 106.401 123.857 98.8675 123.857 90.7059V45.294C123.857 37.1325 119.495 29.5989 112.432 25.5618L72.911 2.97231C65.9535 -1.00448 57.4205 -0.989812 50.4766 3.01084L11.3581 25.5484C4.33266 29.596 0 37.1084 0 45.2421ZM9.82993 90.7578V45.2421C9.82993 40.6448 12.2788 36.3986 16.2497 34.1109L25.0663 29.0313V106.969L16.2497 101.889C12.2788 99.6013 9.82993 95.3552 9.82993 90.7578ZM44.7262 118.295L55.3682 124.427C59.293 126.688 64.116 126.696 68.0485 124.448L103.553 104.155H44.2347C41.5202 104.155 39.3197 101.945 39.3197 99.2188C39.3197 96.4929 41.5202 94.283 44.2347 94.283H113.521C113.853 93.1362 114.027 91.9336 114.027 90.7059V53.8096H44.2347C41.5202 53.8096 39.3197 51.5998 39.3197 48.8738C39.3197 46.1479 41.5202 43.938 44.2347 43.938H113.956C113.525 39.8585 111.167 36.1973 107.57 34.141L68.0485 11.5516C64.116 9.30382 59.293 9.3121 55.3682 11.5733L44.7262 17.7046V39.9894C39.8402 39.9894 35.8792 43.9671 35.8792 48.8738C35.8792 53.7805 39.8402 57.7582 44.7262 57.7582V90.3344C39.8402 90.3344 35.8792 94.3121 35.8792 99.2188C35.8792 104.126 39.8402 108.103 44.7262 108.103V118.295Z" fill="#0A4ECB"/>
<path d="M172.342 98C167.666 98 163.128 97.4231 158.727 96.2692C154.326 95.1154 150.751 93.5769 148 91.6538L153.363 79.6209C155.949 81.3242 158.947 82.6978 162.358 83.7418C165.768 84.7857 169.124 85.3077 172.425 85.3077C178.696 85.3077 181.831 83.7418 181.831 80.6099C181.831 78.9615 180.924 77.7527 179.108 76.9835C177.348 76.1593 174.487 75.3077 170.527 74.4286C166.181 73.4945 162.55 72.5055 159.635 71.4615C156.719 70.3626 154.216 68.6319 152.126 66.2692C150.035 63.9066 148.99 60.7198 148.99 56.7088C148.99 53.1923 149.953 50.033 151.878 47.2308C153.804 44.3736 156.664 42.1209 160.46 40.4725C164.311 38.8242 169.014 38 174.57 38C178.366 38 182.106 38.4396 185.792 39.3187C189.478 40.1429 192.723 41.3791 195.529 43.0275L190.495 55.1429C184.994 52.1758 179.658 50.6923 174.487 50.6923C171.242 50.6923 168.876 51.1868 167.391 52.1758C165.906 53.1099 165.163 54.3462 165.163 55.8846C165.163 57.4231 166.043 58.5769 167.804 59.3462C169.564 60.1154 172.397 60.9121 176.303 61.7363C180.704 62.6703 184.334 63.6868 187.195 64.7857C190.11 65.8297 192.613 67.533 194.704 69.8956C196.849 72.2033 197.922 75.3626 197.922 79.3736C197.922 82.8352 196.959 85.967 195.034 88.7692C193.108 91.5714 190.22 93.8242 186.37 95.5275C182.519 97.1758 177.843 98 172.342 98Z" fill="#F04716"/>
<path d="M235.174 39.1538C240.4 39.1538 244.939 40.033 248.789 41.7912C252.64 43.4945 255.611 45.967 257.701 49.2088C259.791 52.3956 260.836 56.1593 260.836 60.5C260.836 64.8407 259.791 68.6044 257.701 71.7912C255.611 74.978 252.64 77.4505 248.789 79.2088C244.939 80.9121 240.4 81.7637 235.174 81.7637H225.107V96.8461H208.769V39.1538H235.174ZM234.184 68.9066C237.54 68.9066 240.07 68.1923 241.775 66.7637C243.481 65.2802 244.333 63.1923 244.333 60.5C244.333 57.8077 243.481 55.7198 241.775 54.2363C240.07 52.7527 237.54 52.011 234.184 52.011H225.107V68.9066H234.184Z" fill="#F04716"/>
<path d="M302.037 98C295.931 98 290.43 96.7088 285.534 94.1264C280.693 91.544 276.87 87.9725 274.064 83.4121C271.314 78.8516 269.938 73.7143 269.938 68C269.938 62.2857 271.314 57.1484 274.064 52.5879C276.87 48.0275 280.693 44.456 285.534 41.8736C290.43 39.2912 295.931 38 302.037 38C308.143 38 313.616 39.2912 318.457 41.8736C323.353 44.456 327.176 48.0275 329.927 52.5879C332.732 57.1484 334.135 62.2857 334.135 68C334.135 73.7143 332.732 78.8516 329.927 83.4121C327.176 87.9725 323.353 91.544 318.457 94.1264C313.616 96.7088 308.143 98 302.037 98ZM302.037 84.4835C304.952 84.4835 307.593 83.7967 309.958 82.4231C312.324 81.0494 314.194 79.1264 315.569 76.6538C316.945 74.1264 317.632 71.2418 317.632 68C317.632 64.7582 316.945 61.9011 315.569 59.4286C314.194 56.9011 312.324 54.9506 309.958 53.5769C307.593 52.2033 304.952 51.5165 302.037 51.5165C299.121 51.5165 296.481 52.2033 294.115 53.5769C291.75 54.9506 289.88 56.9011 288.504 59.4286C287.129 61.9011 286.441 64.7582 286.441 68C286.441 71.2418 287.129 74.1264 288.504 76.6538C289.88 79.1264 291.75 81.0494 294.115 82.4231C296.481 83.7967 299.121 84.4835 302.037 84.4835Z" fill="#F04716"/>
<path d="M371.243 81.5165H362.331V96.8461H345.993V39.1538H372.398C377.624 39.1538 382.162 40.033 386.013 41.7912C389.864 43.4945 392.834 45.967 394.925 49.2088C397.015 52.3956 398.06 56.1593 398.06 60.5C398.06 64.6758 397.07 68.3297 395.09 71.4615C393.164 74.5385 390.386 76.956 386.756 78.7143L399.215 96.8461H381.722L371.243 81.5165ZM381.557 60.5C381.557 57.8077 380.704 55.7198 378.999 54.2363C377.294 52.7527 374.763 52.011 371.408 52.011H362.331V68.9066H371.408C374.763 68.9066 377.294 68.1923 378.999 66.7637C380.704 65.2802 381.557 63.1923 381.557 60.5Z" fill="#F04716"/>
<path d="M421.863 52.0934H404.122V39.1538H455.86V52.0934H438.201V96.8461H421.863V52.0934Z" fill="#F04716"/>
<path d="M493.569 98C487.463 98 481.962 96.7088 477.066 94.1264C472.225 91.544 468.402 87.9725 465.596 83.4121C462.846 78.8516 461.471 73.7143 461.471 68C461.471 62.2857 462.846 57.1484 465.596 52.5879C468.402 48.0275 472.225 44.456 477.066 41.8736C481.962 39.2912 487.463 38 493.569 38C499.675 38 505.149 39.2912 509.99 41.8736C514.885 44.456 518.709 48.0275 521.459 52.5879C524.265 57.1484 525.667 62.2857 525.667 68C525.667 73.7143 524.265 78.8516 521.459 83.4121C518.709 87.9725 514.885 91.544 509.99 94.1264C505.149 96.7088 499.675 98 493.569 98ZM493.569 84.4835C496.485 84.4835 499.125 83.7967 501.49 82.4231C503.856 81.0494 505.726 79.1264 507.102 76.6538C508.477 74.1264 509.164 71.2418 509.164 68C509.164 64.7582 508.477 61.9011 507.102 59.4286C505.726 56.9011 503.856 54.9506 501.49 53.5769C499.125 52.2033 496.485 51.5165 493.569 51.5165C490.654 51.5165 488.013 52.2033 485.648 53.5769C483.282 54.9506 481.412 56.9011 480.036 59.4286C478.661 61.9011 477.974 64.7582 477.974 68C477.974 71.2418 478.661 74.1264 480.036 76.6538C481.412 79.1264 483.282 81.0494 485.648 82.4231C488.013 83.7967 490.654 84.4835 493.569 84.4835Z" fill="#F04716"/>
<path d="M594.097 39.1538L569.342 96.8461H553.251L528.579 39.1538H546.238L561.916 76.7363L577.924 39.1538H594.097Z" fill="#F04716"/>
<path d="M637.464 85.6374H613.039L608.501 96.8461H591.833L617.33 39.1538H633.42L659 96.8461H642.002L637.464 85.6374ZM632.678 73.6044L625.251 55.1429L617.825 73.6044H632.678Z" fill="#F04716"/>
</svg>
