<svg xmlns="http://www.w3.org/2000/svg" width="660" height="660" fill="none"><animateTransform attributeType="xml" attributeName="transform" type="rotate" from="360 0 0" to="0 0 0" dur="40s" additive="sum" repeatCount="indefinite" /><circle cx="330.2" cy="330.2" r="330" fill="#FBCE51"/><g style="mix-blend-mode:overlay"><path fill="#313131" d="m472.8 613.3-.4-.8 1.5-1-4.2-8.4-.3 2.8-2 8.2.3.5 1.5-.5.4.8-4.6 2.3-.4-.8 1.3-.9-5.2-10.4-1.4.5-.4-.8 4.7-2.3.4.8-1.4.9 4.2 8.4.3-2.5 2-8.5-.4-.6-1.6.6-.4-.8 4.7-2.3.4.8-1.4.8 5.1 10.5 1.5-.5.4.9-4.6 2.3ZM461.4 618.5l-1.2.8-1 .5c-1.5.7-2.7 1-3.7.8-1-.2-1.6-.6-2-1.7-.4-.9-.5-1.7-.2-2.6.4-.8 1-1.4 1.7-2-1 .5-2 .5-2.8.3-.9-.3-1.4-.9-1.8-1.7-.6-1.3-.6-2.3-.2-3.3.5-1 1.6-1.8 3.2-2.6.7-.3 1.4-.6 1.9-.6l1.4-.3h.6l1 3.1-.8.4-1.5-2a5 5 0 0 0-2.5.5c-.8.3-1.2.8-1.4 1.5-.2.7 0 1.4.3 2.3.3.7.8 1.2 1.4 1.5.6.3 1.5.2 2.5-.2l1.2-.5.4.9-1 .4a4 4 0 0 0-1.3 1 4 4 0 0 0-.6 1.3c0 .5 0 1 .2 1.7.3.8.8 1.2 1.4 1.4.6.1 1.2 0 2-.3.5-.3 1-.5 1.2-.8.3-.3.5-.6.5-.8l-.3-1.7 1-.5 1.4 2.6-1 .6ZM446.2 624l1.5-.3.4.9-2.4.9-1.5.6-1.2.6c-1.6.6-2.8.8-3.7.5-.9-.2-1.5-.8-1.9-1.8-.3-.8-.3-1.6 0-2.3.2-.8.8-1.5 1.5-1.9-1.2.4-2.1.6-3 .3a3 3 0 0 1-1.8-2c-.5-1.1-.4-2.2.2-3.3.6-1 1.8-2 3.7-2.7l1.2-.3 1.7-.6 2.3-1 .2 1-1.4.7 4.2 10.7Zm-8-9.7c-1 .5-1.8 1-2.2 1.8-.4.7-.3 1.4 0 2.3.3 1 .8 1.5 1.4 1.7.7.3 1.5.2 2.6-.2 1.1-.5 1.9-.7 2.2-1l-2-5.1-2 .5Zm3.3 6.1-.9.4c-.8.3-1.3.7-1.6 1.4-.2.6-.2 1.3.2 2.2.3.8.7 1.3 1.3 1.5.5.3 1.4.2 2.4-.2l1.3-.6.3-.2-1.8-4.9-1.2.4ZM431.3 630.7l-1.9.7-8.4-10.8-1.2.2-.2-.9 4.7-1.6.2 1-1.4.6 1.8 2.4 5.1-1.8v-2.9l-1.6.3-.3-.9 4.2-1.4.3.9-1 .5-.3 13.7Zm-2-2.5 1 1.4-.1-1.7-.2-6.3-4.5 1.5 3.9 5.1ZM416.7 621.4c1.2.3 2 .8 2.8 1.8a8 8 0 0 1 1.7 3.4c.4 1.3.5 2.5.2 3.8a5.5 5.5 0 0 1-1.6 3c-.8.8-1.8 1.5-3 1.9-1 .2-2 .4-3.4.5h-.6l-.8-3.2 1.2-.4 1.2 2.1 1 .2 1.6-.3c.7-.2 1.4-.6 1.8-1.2.5-.6.8-1.5.8-2.4a10.3 10.3 0 0 0-1.7-6 5.4 5.4 0 0 0-2-1.8c-.7-.3-1.6-.4-2.5-.1-.6 0-1 .4-1.3.5-.3.1-.6.5-.7.7l-.3 2-1.1.2-.3-2.6c.2 0 .5-.3 1-.6l1.2-.6c.4-.3 1-.4 1.5-.6 1-.5 2.2-.6 3.3-.3ZM402.6 636c-.3 1-.9 2-1.6 2.6-.8.7-1.6 1.2-2.6 1.3-1.2.3-2.3.2-3.2-.1-1-.4-1.8-1-2.4-1.9-.7-.9-1.3-2-1.5-3.3-.3-1.6-.4-2.9-.1-4 .2-1.3.8-2.3 1.5-3.1.7-.8 1.7-1.3 2.8-1.6 1.2-.3 2.3-.3 3.3 0a6 6 0 0 1 2.5 1.9c.7.8 1.2 2 1.4 3.3l3-.6-1.3-5.4-1.6.2-.1-.8 5-1.2.2.8-1.5.5L409 636l1.4-.2.2.9-4.9 1.1-.2-.8 1.5-.6-1.1-4.8-3 .7c0 1.4 0 2.6-.4 3.7Zm-2 .8c.4-1.2.4-2.7 0-4.8-.5-1.7-1.2-3.1-2-4-1-.8-2-1.2-3.3-1a3 3 0 0 0-2.3 2.2c-.4 1.1-.3 2.8.2 4.8.4 1.8 1 3.2 1.9 4 .8 1 1.9 1.2 3 1 1.2-.3 2-1 2.5-2.2ZM381.4 635.2l-2.3-2.3-1.3-1.5-.8-.5h-.7l-.2-1 2.3-.3c.3 0 .6.1 1 .6l1.8 2c.8 1 1.4 1.7 2 2.2.5.6 1 .8 1.3.7l1.2-.2-1-5.3-1.6.1-.1-.8 5-1 .1 1-1.4.4 2 11.5h1.5l.2 1-5 .8v-1.2l1.5-.5-1-5.3-1.6.2-2.8 6h1.6l.1.9-4.5.8-.1-1 1.4-.4 3-6c-.4-.1-1-.5-1.6-1ZM373 631c1 .4 1.7 1.2 2.3 2.2.5 1 1 2.2 1.1 3.6.3 1.4.1 2.7-.3 3.9-.4 1-1 2-1.8 2.7-1 .7-1.9 1.2-3.1 1.3-2 .3-3.6 0-4.7-1.2a7.6 7.6 0 0 1-2.2-4.9 8 8 0 0 1 .4-3.9 7 7 0 0 1 1.9-2.8 7 7 0 0 1 3-1.3c1.3-.2 2.4 0 3.4.4Zm.8 10.8a9 9 0 0 0 .4-4.8 8 8 0 0 0-1.6-4.3 3 3 0 0 0-3-1.2c-1.2.2-2 .8-2.5 2a8.8 8.8 0 0 0-.5 4.7c.2 2 .7 3.3 1.6 4.2.8 1 1.8 1.4 3 1.2 1.2 0 2-.6 2.6-1.8ZM361.6 644.5l1.5.1.1 1-2.5.2-1.6.2-1.3.2c-1.6.1-3 0-3.7-.5a3 3 0 0 1-1.3-2.3c-.1-.9.1-1.7.5-2.3.4-.6 1.1-1.2 2-1.4-1.1 0-2.1 0-2.9-.6a2.8 2.8 0 0 1-1.2-2.3 4 4 0 0 1 1-3.1c.9-1 2.2-1.5 4.3-1.6h1.4c.9-.1 1.5-.2 1.7-.1l2.5-.3v1l-1.4.3 1 11.5Zm-5-11.4c-1.2 0-2.1.5-2.6 1-.5.6-.7 1.4-.6 2.3 0 1 .4 1.7 1 2 .4.3 1.3.6 2.3.4 1.3 0 2.1-.1 2.5-.2l-.5-5.5c-.4-.2-1-.1-2 0Zm1.6 6.7-1 .2c-.9 0-1.6.4-2 .9-.3.5-.5 1.3-.4 2.1.1.8.3 1.5.8 1.9.6.3 1.3.5 2.4.4.4-.1 1 0 1.4-.3h.4l-.4-5.3-1.2.1ZM332.3 647.3v-1l1.5-.3-.3-11.6-1.8-.1v-1h5.2v.8l-1.6.2.4 11.7 6-.1-.4-11.7-1.7-.2v-.9l5.2-.1v1l-1.5.1.4 11.6 1.6.3v.9l-13 .4ZM327.9 634c.8.7 1.5 1.5 2 2.6.4 1 .5 2.3.6 3.8-.1 1.4-.3 2.6-1 3.7a6.1 6.1 0 0 1-5.4 3.3c-2 0-3.4-.7-4.4-1.9-1-1.3-1.4-3-1.4-5.2 0-1.4.3-2.7.9-3.8.6-1 1.3-2 2.3-2.5 1-.6 2-.9 3.3-.9 1.2 0 2.2.3 3 1ZM327 645c.7-1 1.1-2.6 1.1-4.6 0-1.9-.3-3.4-.9-4.5-.6-1-1.6-1.6-2.8-1.6-1.2 0-2.2.5-2.9 1.5a9 9 0 0 0-1.1 4.7c0 2 .2 3.3 1 4.5.5 1 1.5 1.6 2.7 1.6 1.2-.2 2.1-.6 3-1.6ZM312.4 638c.3-1.8.8-3 1.4-3.8.3-.5.6-.8 1-1 .3-.2.8-.3 1.2-.3l1.3.1v1.6l-1.4-.2-.7.1-.5.5c-1.1 1.4-1.7 4.4-2 9l-.1 1.4 2.1.4v1L304 646v-1h1.8l.8-11.7-1.9-.3v-.9l5.7.4v1h-2l-.7 11.6 3.8.2.1-1.7c.3-2.1.5-4.1.9-5.7ZM300.5 644.6l1.5.5-.1.8-9.5-1v-3l1.1.2.4 1.8 4.6.6.6-5.2-3-.3-.5 1.5h-1l.4-4.3h1l.1 1.7 3 .4.6-5.6-5.3-.4-1.2 2.3-1-.5.8-3.3 10.3 1.2-.2.8h-1.5l-1.1 11.8ZM285 643l3.2.3 1.2-3.8 1.2.3-1 4.9-11.6-1.8.6-5 1.1.3v4l3.3.5 1.7-11.7-2.6-.5.1-1 7 1.1v1l-2.5-.2-1.6 11.6ZM271.7 633.8l1 .1c.2-.1.7-.5 1-1 .3-.5 1-1.2 1.4-2l1.3-1.8c.4-.4.6-.5.8-.5l2.5.5-.1.9h-.8l-.7.5-1.2 1.3-1.4 1.8a3 3 0 0 1-1.3.8c.8.5 1.4 1 1.7 1.7.3.7.4 1.6.2 2.5-.3 1.5-1 2.4-1.8 2.8-1 .3-2.3.4-4 0l-1.3-.3-1.3-.3-2.6-.5.1-1 1.6.2 2.3-11.4-1.7-.6.1-.9 5.5 1.1-.2.9-1.8-.2-.9 4.9 1.6.5Zm-2.5 6.4 1.4.4c1 .2 1.7.2 2.3-.2.6-.3 1-1 1.2-2 .1-1 0-1.8-.4-2.5-.4-.6-1-1-2-1.2l-2-.3-1 5.6.5.2ZM258.6 638l3.2.6 1.5-3.7 1.2.3-1.5 4.8-11.3-2.7 1-5 1.1.3-.4 4 3.2.9 2.7-11.5-2.6-.8.2-.9 7 1.7-.2.8-2.4-.3-2.7 11.4ZM246.6 622.3c.8.8 1.2 1.8 1.4 3 .2 1.2 0 2.5-.3 3.9a7.2 7.2 0 0 1-5 5c-1.1.3-2.2.2-3.4-.2-1-.2-2-.7-3.2-1.3l-.6-.3 1.2-3.1 1.2.3-.2 2.4.7.6 1.5.6c.8.2 1.5.2 2.2 0 .7-.2 1.5-.7 2-1.5a11.3 11.3 0 0 0 1.8-6.1c0-1-.3-2-.7-2.7a3.2 3.2 0 0 0-2-1.5l-1.6-.3a2 2 0 0 0-1 .3l-1.2 1.5-1-.5 1-2.5 1.3.2h1.3l1.5.3c1.3.4 2.3 1 3.1 1.9ZM228.2 630.3l.3-.9 1.8.4 3.1-8.8-2.2 1.6-7.2 4.5-.1.5 1.5.7-.3.8-4.8-1.7.3-.8 1.4.3 3.8-11-1.4-.7.3-.8 5 1.7-.4.8-1.6-.3-3.2 9 2.1-1.7 7.4-4.5.2-.7-1.6-.7.3-.8 5 1.7-.4.8-1.5-.3-3.8 11 1.3.7-.3.8-5-1.6ZM209 623.2l1.7-4.6 1.2.4-.9 3.7 3.8 1.6 4.3-11-3-1.3.4-.9 6.8 2.7-.3.8-2-.5-4.2 10.8 1.7 1-.3.8-9.1-3.5ZM206.5 620.9l1.2.8-.3.9-4.6-2.1.3-.8 1.5.4 2-4.6-6-2.6-2 4.5 1.3.9-.3.8-4.6-2 .3-.8 1.5.4 4.7-10.7-1.4-.8.4-.8 4.5 2-.3.9-1.5-.5-2.3 5 6 2.6 2.3-5-1.4-.8.3-.8 4.7 2-.3.9-1.4-.5-4.6 10.7ZM188.8 614l-1.8-.9 1.7-13.6-1-.6.5-.8 4.4 2.2-.4.8-1.5-.5-.5 2.8 4.9 2.4 2-2.1-1.4-.9.4-.8 4 2-.5.8-1-.4-9.8 9.6Zm.3-3.2-.4 1.7 1.2-1.4 4.4-4.5-4.2-2.1-1 6.3ZM181.5 600.2c1-1.3 2-2.3 3-2.8.4-.3.7-.4 1.2-.5.4 0 .8 0 1.2.3l1.1.7-.5 1.4-1.3-.7a.6.6 0 0 0-.5-.2c-.2 0-.5 0-.7.2-1.5.8-3.4 3.3-5.7 7.3l-.8 1.3 1.8 1.3-.4.8-9.4-5.3.4-.8 1.7.7 5.7-10.2-1.6-1 .4-.9 5.1 2.8-.4.8-1.8-.7-5.6 10 3.3 1.8.8-1.5c.9-1.8 2-3.4 3-4.8ZM153.5 593.5l.5-.7 1.6.7 6.2-9.8-1.3-1.1.5-.8 4.6 3-.5.7-1.6-.7-6.2 9.9 1.4 1-.5.8-4.7-3Zm12.8 1.6c-1.3-.8-2.1-1.7-2.4-2.7-.4-1-.2-2.1.5-3.3a4 4 0 0 1 3-2c1-.2 2.3.1 3.6.9l.6.3c.1.2.3.3.5.3l1.5 1.2 2.2 1.4-.5.7-1.5-.6-6.2 9.8 1.2 1-.5.8-4.6-2.8.5-.8 1.8.7 2.3-3.6-2-1.3Zm5.3-5.5a4 4 0 0 0-.9-.5c-.8-.5-1.7-.8-2.5-.6-.7.2-1.4.8-2 1.7-.6.9-.8 1.7-.6 2.4.2.8.8 1.4 1.6 2l1.7 1 3.3-5.3-.6-.7ZM147 587.5l1 1.1-.5.8-4-3 .5-.8 1.4.8 3-4-5.3-4-3 4.1 1 1.1-.5.8-4-3 .6-.8 1.3.7 6.9-9.4-1-1 .5-.8 4 3-.5.9-1.3-.8-3.2 4.3 5.3 3.9 3.2-4.3-1.2-1.2.5-.8 4.1 3-.5.9-1.3-.8-7 9.3ZM131.2 577l-1.6-1.3 4.6-12.9-.8-1 .6-.6 3.9 3.1-.6.8-1.3-.9-1 2.7 4.2 3.5 2.5-1.6-1.2-1.1.6-.7 3.5 2.8-.6.6-1.1-.6-11.7 7.3Zm1-3-.6 1.7 1.4-1.1 5.2-3.5-3.7-3-2.3 6ZM120 566l1.4 1.6-.6.7-3.7-3.4 3.8-8 1.2-2.1-2 1.4-7.6 4.4-3.6-3.3.6-.7 1.7 1.3 6.8-9.5-1-1.3.5-.7 3.9 3.7-.6.7-1.4-1-5 6.7-2.2 2.9 2.4-1.4 9-5 .9.8-3.9 8.6-1.6 3.4 2.7-2.5 6.3-5.6-1.2-1.4.5-.6 3.6 3.3-.5.6-1.3-1-9 7.5Z"/><path fill="#313131" d="m103.8 552.1-1.5-1.5 6.1-12.2-.6-1 .7-.6 3.4 3.5-.7.7-1.3-1-1.4 2.6 3.9 3.9 2.6-1.4-1-1.2.7-.7 3.1 3.2-.7.6-1-.6-12.3 5.7Zm1.3-2.9-.8 1.5 1.6-.8 5.6-2.8-3.3-3.5-3 5.6ZM97.5 543.7l.8 1.3-.6.6-1.7-1.9-1-1-1.3-1.3c-1.2-1.4-1.8-2.5-1.8-3.6 0-1 .5-1.9 1.5-2.8.7-.6 1.5-1.2 2.3-1.2.9-.2 1.8 0 2.6.2a6 6 0 0 1 2.3 1.8l.7.8.5.5 3-2.7-1.6-2 .7-.7 4.1 4.5-.7.7-1.1-1-8.7 7.8Zm2.4-7.2a3.8 3.8 0 0 0-2.2-1.2c-.8-.1-1.9.3-2.8 1.3-.8.7-1.2 1.4-1.2 2.1 0 .7.4 1.5 1.1 2.3l.9.9.4.4 5-4.4-1.2-1.4ZM97.8 525.9c.2 1.1 0 2.2-.5 3.3-.5 1-1.4 2-2.5 3-1 1-2.2 1.4-3.4 1.6a6 6 0 0 1-3.4-.3c-1.2-.4-2.1-1-3-2l-1.8-3-.3-.6 2.7-2 .8.9-1.5 1.8.2 1 .9 1.3c.5.7 1.1 1 2 1.3.7.2 1.5.1 2.4-.2.9-.2 1.8-.8 2.8-1.6.9-.7 1.6-1.5 2.1-2.3a5 5 0 0 0 .9-2.6 4 4 0 0 0-.8-2.3l-1.1-1.1c-.3-.3-.6-.4-1-.4l-1.8.6-.7-1 2.3-1.3 1 .8 1 .8 1.2 1.1c1 1 1.4 2 1.5 3.2ZM67.4 507.3l.7-.5 1.2 1.4L77 503h-2.8L66 502l-.4.3.7 1.6-.7.5-2.8-4.3.7-.6 1 1.1 9.7-6.4-.7-1.5.7-.5 3 4.4-.8.5-1-1.3-8 5.3h2.5l8.7.8.6-.3-.8-1.5.7-.6 3 4.4-.8.5-1-1.2-9.7 6.5.6 1.4-.7.5-3-4.4ZM60.7 496.7l-1-1.1-.7-.9a7.6 7.6 0 0 1-1.2-3.5c0-1 .5-1.7 1.5-2.3.8-.4 1.7-.6 2.5-.4.9.2 1.6.7 2.2 1.4-.6-1-.8-2-.6-2.8.2-.8.7-1.5 1.5-2 1-.8 2.3-1 3.3-.6s2 1.3 3 2.9c.3.6.7 1.2.8 1.7l.5 1.4c.1.3.2.5.1.6l-2.9 1.4-.5-.9L71 490c0-.8-.3-1.6-.9-2.4-.4-.7-1-1.2-1.6-1.3-.6 0-1.4.2-2.3.6-.6.5-1 1-1.3 1.6-.2.7 0 1.5.6 2.4l.7 1.1-.9.6-.6-1c-.2-.4-.6-.7-1-1-.4-.4-.9-.5-1.4-.5a3 3 0 0 0-1.6.4c-.8.5-1.1 1-1.3 1.6 0 .6.1 1.2.5 2 .3.4.6.8 1 1 .3.3.6.4.8.3l1.7-.6.6 1-2.3 1.6c-.2 0-.5-.3-1-.7ZM53.4 482.3l.5 1.5-.8.3L52 482l-.9-1.4a11 11 0 0 1-.7-1 7.5 7.5 0 0 1-1-3.7c0-1 .6-1.6 1.5-2.1.8-.4 1.6-.6 2.4-.4.8 0 1.4.6 2 1.2-.6-1-.8-2-.6-2.9a3 3 0 0 1 1.7-2c1-.6 2.2-.7 3.3-.2 1.1.4 2.2 1.5 3.2 3.4l.6 1.2c.4.8.6 1.4.8 1.5l1.1 2.1-.8.4-.9-1.2-10.2 5.5Zm3-5.1-.5-1c-.4-.7-.8-1.2-1.5-1.4-.7-.2-1.3 0-2.1.4s-1.3.8-1.5 1.4c-.1.6.1 1.3.6 2.3l.7 1.2.2.4 4.6-2.5-.5-.8Zm5.6-4c-.6-1-1.2-1.8-2-2-.7-.4-1.4-.3-2.3.2-.8.5-1.3 1-1.4 1.7-.1.7 0 1.4.6 2.4l1.1 2.1L63 475l-.9-1.8ZM44.9 468.4l-1-1.9 9.7-9.6-.3-1.1.8-.4 2.2 4.4-.9.4-.8-1.3-2.2 2 2.4 4.8 2.8-.4-.5-1.6.9-.4 1.9 4-.9.4-.6-1-13.5 1.7Zm2.2-2.4-1.4 1.2 1.8-.4 6.2-.8-2.1-4.4-4.5 4.4ZM52.3 452.7c-.2 1-.7 2.1-1.4 3-.8.8-1.9 1.6-3.2 2.2-1.2.5-2.5.7-3.7.6a6.8 6.8 0 0 1-3.3-1.2c-.9-.7-1.6-1.7-2.2-2.8l-.9-3.3-.1-.7 3.1-1.2.5 1.2-2 1.4v1l.6 1.6c.3.7.7 1.3 1.4 1.7.8.4 1.5.6 2.4.5 1 0 2-.2 3.2-.8 1-.4 2-1 2.8-1.6.8-.8 1.3-1.4 1.5-2.3a3 3 0 0 0-.1-2.5l-.8-1.3c-.2-.3-.5-.5-.8-.6h-2l-.4-1.2 2.6-.6.7 1 .8 1 .8 1.5a6 6 0 0 1 .5 3.4ZM36 440.5c-1-.2-2-.7-2.7-1.3a5.4 5.4 0 0 1-1.7-2.5 5.2 5.2 0 0 1-.3-3.2c.3-1 .8-2 1.6-2.7.8-.8 1.7-1.3 3-1.8 1.5-.5 2.7-.7 4-.7 1.1.2 2.3.6 3.1 1.2.8.6 1.5 1.5 2 2.6.4 1 .5 2.2.3 3.3a5 5 0 0 1-1.6 2.7c-.8.8-1.8 1.5-3 2l1 2.8 5.1-1.9-.3-1.6.8-.3 1.8 4.9-.9.2-.7-1.4-10.9 4 .3 1.5-.9.3-1.7-4.7.8-.3.8 1.4 4.7-1.8-1-2.8c-1.2.3-2.5.4-3.5 0Zm-1-1.9c1.2.4 2.8.2 4.7-.6 1.7-.7 3-1.5 3.7-2.5.8-1 1-2 .6-3.2a3.2 3.2 0 0 0-2.4-2c-1.2-.4-2.8 0-4.7.6-1.7.7-3 1.5-3.7 2.4-.8 1-1 2-.5 3.1a3 3 0 0 0 2.2 2.2ZM34.3 419.4a29.8 29.8 0 0 1 3.3-4c.3-.4.4-.7.4-.9v-.7l1-.3.7 2.3c0 .2-.1.6-.4 1-.4.6-1 1.3-1.8 2l-2 2.4c-.5.5-.6 1-.5 1.4l.3 1 5.1-1.5-.3-1.7 1-.3 1.5 4.9-1 .3-.6-1.4-11 3.4.1 1.5-.8.3-1.5-4.8.9-.3.6 1.4 5.1-1.6-.5-1.5-6.3-2 .3 1.6-.9.3-1.3-4.5.9-.3.6 1.3 6.5 2.3c-.1-.4.1-1 .6-1.6ZM37.3 410.5c-.4 1-1 2-2 2.6-.8.7-2 1.3-3.3 1.6-1.4.4-2.7.4-3.8.2a6 6 0 0 1-3-1.5 5.5 5.5 0 0 1-1.7-2.9c-.5-1.8-.3-3.4.7-4.8a8 8 0 0 1 4.5-2.8c1.4-.3 2.8-.3 4-.1 1.1.2 2.2.8 3 1.5.8.7 1.4 1.7 1.7 2.9.3 1.2.3 2.3-.1 3.3Zm-10.7 2.2c1.2.4 2.8.3 4.8-.2a7.9 7.9 0 0 0 4-2c.8-1 1.1-2.1.8-3.2-.3-1.2-1.1-2-2.3-2.4a8.7 8.7 0 0 0-4.8.2 7.9 7.9 0 0 0-4 2c-.9 1-1.2 2-.9 3.2.5 1.1 1.3 2 2.4 2.4ZM22.4 401l.1 1.5-.8.2-.6-2.5c0-.4-.2-1-.4-1.5l-.4-1.4a7 7 0 0 1 0-3.7c.4-.9 1.1-1.4 2-1.6a4 4 0 0 1 2.5.2c.7.4 1.2 1 1.6 1.8-.3-1.2-.2-2.1.2-3 .4-.7 1.2-1.2 2.1-1.4 1.2-.3 2.4 0 3.3.7 1 .6 1.7 2 2 4 .2.4.3.9.3 1.3l.3 1.7.6 2.4-.9.2-.5-1.5-11.4 2.6Zm4.3-4.1-.3-1c-.1-.8-.5-1.4-1.1-1.8-.5-.4-1.3-.5-2.2-.2-.9.2-1.5.5-1.7 1-.3.6-.4 1.4-.2 2.5l.4 1.3.1.3 5.1-1-.1-1.1Zm6.4-2.3c-.3-1.2-.7-2-1.4-2.6-.5-.4-1.3-.5-2.3-.3-1 .2-1.6.6-1.8 1.2-.4.5-.4 1.4-.2 2.5l.6 2.4 5.4-1.2c0-.3 0-1-.3-2ZM16 372.2l1-.1.4 1.5 11.5-1.8v-1.7l1-.2.8 5.3-1 .1-.4-1.5-11.5 1.8 1 6 11.6-1.8V378l.9-.1.7 5.2-1 .1-.4-1.4-11.5 1.8v1.6l-1 .2-2.1-13.2ZM28.6 366.1c-.4 1-1.3 1.7-2.2 2.3-1 .6-2.2 1-3.7 1-1.4.2-2.7 0-3.8-.4a5.9 5.9 0 0 1-4-5c-.2-1.9.2-3.5 1.4-4.6a7.8 7.8 0 0 1 4.9-2c1.4-.2 2.7 0 3.8.4a6 6 0 0 1 4 5 6 6 0 0 1-.4 3.3Zm-10.8.6c1.1.6 2.6.7 4.7.6 1.9-.2 3.2-.7 4.3-1.5a3 3 0 0 0 1.3-3c-.1-1.2-.8-2-2-2.7a8.6 8.6 0 0 0-4.7-.6c-1.9.2-3.3.7-4.3 1.5s-1.4 1.8-1.2 3a3 3 0 0 0 1.9 2.7ZM22.7 351.3c1.7.2 3 .4 4 .9l1 .8.4 1v1.4l-1.6.2v-1.4c0-.2 0-.5-.2-.6l-.6-.5c-1.5-.8-4.6-1-9.2-.8l-1.4.1-.1 2.2h-1l-.6-10.8h1l.3 1.7 11.6-.8V343h1l.4 5.7h-1l-.2-1.9-11.6.7.2 3.8h1.6l6 .1ZM14.5 340.4l-.2 1.5-1 .1-.1-9.5 3-.4v1l-1.8.6v4.7l5.2-.1-.1-3.1-1.6-.2v-1l4.3-.1v1l-1.6.3v3.1l5.5-.1-.3-5.3-2.4-1 .3-1 3.2.4.2 10.3h-.9l-.2-1.5-11.5.3ZM14.3 324.8v3.2l4 .7v1.3l-5-.5.2-11.6h5v1.1l-4 .6v3.2l11.7.2.2-2.7h1l-.2 7.2h-1l-.1-2.6H14.3ZM21.7 310.4v1c.2.3.5.6 1.1 1l2.2 1.1 2 1c.4.3.6.6.6.7l-.2 2.6h-.9l-.1-.8-.4-.7-1.5-1-2-1.2-1-1A4 4 0 0 1 20 315c-.7.4-1.5.6-2.5.5-1.5 0-2.5-.6-3-1.5-.6-1-.8-2.3-.6-3.9l.1-1.3.2-1.4.2-2.7h1v1.6l11.6.8.3-1.8h.9l-.4 5.5H27V309l-5-.4-.2 1.8Zm-6.7-1.7a6 6 0 0 0-.2 1.5c-.1 1 0 1.7.5 2.3.4.5 1 .8 2.2.9 1 0 1.8-.2 2.4-.6.6-.5.8-1.2 1-2.2v-2l-5.7-.4-.2.5ZM16 298l-.3 3.2 3.8 1-.2 1.2-5-.9 1.3-11.5 5 .3v1.2l-4 .2-.4 3.2 11.6 1.3.5-2.6 1 .1-.9 7.1-.9-.1v-2.4L16 298ZM30 284a6 6 0 0 1-2.8 1.8c-1.1.3-2.4.4-3.8.1a7.7 7.7 0 0 1-3.5-1.4c-.9-.8-1.7-1.7-2-2.8a6.5 6.5 0 0 1-.3-3.6c.1-1 .4-2 1-3.3l.2-.5 3.3.7-.3 1.2h-2.4a4.2 4.2 0 0 0-1 2.4 4 4 0 0 0 .3 2.3c.4.7 1 1.3 1.8 1.8s1.8.8 3 1c1.3.2 2.3.2 3.3 0 1 0 2-.4 2.6-1 .6-.5 1-1.2 1.2-2.2V279c0-.3 0-.6-.3-1l-1.6-1 .3-1.2 2.5.9v1.1c.2.5.1 1 .2 1.4.1.4 0 .9 0 1.6A8.4 8.4 0 0 1 30 284ZM19.8 266.7l.9.2-.2 1.7 9.2 2-2-2-5.3-6.6-.5-.1-.5 1.6-.9-.2 1-5 1 .2-.2 1.5 11.4 2.4.5-1.5.8.2-1 5.1-.9-.2.2-1.7-9.4-2 1.9 1.8 5.4 6.8.7.2.5-1.7.9.1-1 5.1-1-.1.2-1.6-11.4-2.4-.5 1.4-.8-.2 1-5ZM24.4 247l4.8 1-.4 1.3-3.7-.4-1.2 4 11.5 2.8 1-3 .9.2-1.8 7-.9-.2.4-2-11.3-2.9-.7 1.9-.9-.3 2.3-9.4ZM26.4 244.1l-.7 1.4-.9-.2 1.5-5 .9.3-.2 1.6 4.8 1.5 1.9-6.4-4.8-1.5-.7 1.4-.8-.2 1.4-4.8.9.2-.2 1.5 11.1 3.4.6-1.4.9.2-1.5 4.8-.9-.2.3-1.6-5.2-1.6L33 244l5.2 1.6.6-1.5.9.2-1.5 4.9-.9-.2.3-1.5-11.1-3.3ZM30.9 225.7l.7-2h13.7l.6-1 .8.3-1.7 4.6-.8-.3.3-1.5-3-.1-1.7 5.1 2.3 1.8.7-1.5.8.3-1.4 4.2-.8-.3.2-1.2-10.7-8.4Zm3.3 0-1.7-.2 1.4 1 5 3.8 1.6-4.5-6.3-.2ZM43.8 216.7c1.5 1 2.6 1.7 3.2 2.5l.6 1.2-.1 1.2-.6 1.1-1.4-.4.5-1.3v-.6c0-.2-.1-.5-.3-.7-1-1.4-3.6-3-7.9-4.7l-1.3-.6-1 2-.9-.4 4-10 .9.3-.5 1.7 10.8 4.3.8-1.6.8.3-2.1 5.4-.8-.4.5-1.9-10.8-4.3-1.4 3.5 1.5.6 5.5 2.8ZM46.8 201c.7-1.4 1.4-2.3 2.5-2.8 1-.4 2-.4 3.2.2 1.2.6 2.1 1.5 2.4 2.7.3 1 .2 2.3-.5 3.7l-.2.5-.4.7-.9 1.7-1 2.2-.8-.4.5-1.5-10.6-5-.8 1.3-.8-.4 2.2-4.8.8.4-.6 1.8 3.9 1.9 1.1-2.3Zm0-13 .8.4-.5 1.7 10.4 5 1-1.5.8.4-2.4 5-.8-.5.6-1.7-10.5-5-1 1.6-.8-.4 2.4-5Zm6.2 17.6.4-.9c.5-.9.5-1.8.2-2.6s-1-1.3-2-1.8c-.8-.5-1.8-.5-2.4-.3-.7.4-1.3 1-1.7 1.8l-.8 1.7 5.7 2.7c.3-.1.4-.4.6-.6ZM51.9 180.9l-1 1.2-.8-.5 2.5-4.4.8.4-.6 1.5 4.5 2.4 3.2-5.7-4.5-2.5-1 1.2-.7-.4 2.4-4.3.8.4-.5 1.4 10.2 5.7 1-1.2.7.4-2.4 4.4-.8-.4.6-1.4-4.8-2.7-3.2 5.8 4.8 2.6 1-1.3.8.4-2.5 4.5-.8-.4.5-1.4-10.2-5.7ZM60.3 163.9l1-1.8 13.4 3 .8-.9.8.5-2.7 4.2-.8-.5.7-1.5-2.8-.7-2.9 4.6 1.9 2.2 1-1.2.8.5L69 176l-.7-.5.5-1-8.6-10.6Zm3 .6-1.5-.4 1.2 1.2 4 4.8 2.6-4-6.2-1.6ZM69.8 151.4l-1.3 1.6-.8-.6 3-4 8.3 2.8 2.3.9-1.7-1.9-5.3-7 2.9-4 .8.5-1 1.8 10.3 5.5 1.2-1.2.7.5-3.2 4.4-.8-.5.9-1.5-7.4-4.2-3.2-1.8 1.8 2.2 6.1 8.3-.7 1-9-2.7-3.6-1.2 2.8 2.4 6.3 5.5 1.2-1.4.8.5-2.8 4-.8-.6.8-1.4-8.6-8Z"/><path fill="#313131" d="m81.6 133.5 1.2-1.6 13 4.5.8-.8.7.6-3 3.9-.8-.6.9-1.3-2.7-1-3.4 4.3 1.6 2.3 1.1-1.1.8.6-2.8 3.4-.7-.6.6-1-7.3-11.6Zm3 1-1.6-.7 1 1.4 3.6 5.2 2.9-3.7-6-2.3ZM89.1 126.3l-1.2.9-.7-.6 1.6-2c.3-.2.6-.6.8-1l1.2-1.4c1.2-1.4 2.3-2.2 3.3-2.3 1-.2 2 .2 3 1a4.6 4.6 0 0 1 1.5 4.9c-.2.8-.7 1.7-1.4 2.5l-.7.8c-.3.2-.4.4-.4.5l3.1 2.7 1.8-1.8.7.6-4 4.6-.7-.6.9-1.3-8.8-7.5Zm7.5 1.4c.6-.8 1-1.6.8-2.4 0-.9-.5-1.7-1.6-2.7-.8-.7-1.6-1-2.3-1-.7.2-1.4.6-2.2 1.5l-.8 1-.3.4 5 4.4c.4-.2.8-.6 1.4-1.2ZM107 124.3c-1.2.4-2.3.3-3.4 0a9 9 0 0 1-3.2-2 8 8 0 0 1-2.1-3.2 6.7 6.7 0 0 1-.2-3.5c.3-1.2.8-2.3 1.7-3.1.7-.8 1.5-1.5 2.8-2.3l.5-.3 2.3 2.4-.9 1-2-1.4c-.3 0-.6.2-1 .4s-.8.6-1.2 1c-.5.6-.8 1.3-1 2 0 .8.2 1.5.5 2.5.4.8 1.1 1.7 2 2.5.8.8 1.8 1.4 2.7 1.9.9.4 1.7.5 2.6.5.8-.1 1.5-.5 2.2-1.2l1-1.2.2-1-.8-1.8.9-.7 1.7 2.1-.6 1.1-.7 1.2-.9 1.2c-1 1-2.2 1.6-3.2 2ZM118 94.8l.6.7-1.2 1.4 6.3 7-.4-2.8-.3-8.4-.3-.4-1.4 1-.7-.7 4-3.5.6.7-1 1.2 7.8 8.7 1.2-.9.7.7-4 3.4-.5-.7 1.1-1.2-6.3-7 .4 2.5.3 8.6.5.6 1.4-1 .6.6-3.9 3.5-.6-.7 1-1.1-7.7-8.7-1.3.8-.6-.7 3.7-3.6ZM127.7 86.8l1-1.2.7-.8a7 7 0 0 1 3.3-1.6c1-.2 1.8.3 2.5 1 .6.8 1 1.6.8 2.5-.2.9-.5 1.6-1 2.4.8-.7 1.7-1 2.6-1 1 .1 1.6.5 2.2 1.3a4 4 0 0 1 1 3.2c-.2 1-1 2.2-2.4 3.3-.5.5-1.1.8-1.6 1.1l-1.3.6-.6.2-1.8-2.7.8-.6 2 1.5c.6-.1 1.4-.5 2.2-1.2.6-.5 1-1.2 1-1.8 0-.7-.3-1.4-1-2.2-.4-.6-1-1-1.7-1-.7-.1-1.5.2-2.4.9l-1 .8-.7-.8.8-.7c.3-.3.7-.7.9-1.2.2-.4.3-1 .3-1.4-.1-.6-.4-1-.7-1.6-.6-.6-1.1-1-1.7-1-.6.1-1.2.4-1.9.8l-1 1a1 1 0 0 0-.2 1l.8 1.5-.9.7-2-2.1 1-.9ZM140.9 77.5l-1.4.8-.6-.8 2-1.5 1.4-1 1-.8c1.4-1 2.5-1.6 3.5-1.5.9 0 1.7.4 2.3 1.2.5.8.7 1.5.7 2.3 0 .8-.4 1.6-1 2.2a4 4 0 0 1 2.8-1c.9 0 1.7.6 2.2 1.3.7 1 1 2.1.7 3.3-.2 1.2-1.2 2.3-2.9 3.6l-1 .7c-1 .5-1.3 1-1.5 1l-2 1.4-.6-.7 1.1-1-6.7-9.5Zm5.4 2.3.8-.6c.8-.5 1.2-1.1 1.2-1.7 0-.6-.1-1.4-.6-2.1-.5-.8-1-1.1-1.7-1.2-.6 0-1.4.3-2.1.9-.4.3-.8.5-1 .8l-.3.2 3 4.2.7-.5Zm4.8 5c1-.8 1.6-1.6 1.7-2.4.1-.7-.1-1.5-.6-2.3-.6-.7-1.2-1.2-1.8-1.2-.7-.1-1.4.2-2.3.9l-1.9 1.4 3.3 4.5c.2 0 .7-.4 1.6-1ZM153.4 67.1l1.8-1.1 11 8.2 1-.5.5.7-4.1 2.8-.5-.8 1.2-1-2.3-1.8-4.6 3 .8 2.8 1.4-.7.5.7-3.7 2.5-.5-.8.8-.8-3.3-13.2Zm2.7 1.9-1.3-1.1.5 1.7 1.8 6 4-2.6-5-4ZM170 72.2c-1.1 0-2.1-.4-3.2-1a10 10 0 0 1-2.6-2.8c-.7-1.2-1-2.4-1.2-3.6 0-1.1.3-2.4.8-3.3.6-1.1 1.4-1.9 2.5-2.6.9-.5 2-1 3.3-1.4l.5-.3 1.6 3-1 .6-1.8-1.7-1 .1-1.3.7c-.7.4-1.2 1-1.5 1.6-.3.7-.4 1.5-.2 2.5.1 1 .6 2 1.2 3a11 11 0 0 0 2 2.5c.8.6 1.7 1 2.5 1.2.9.2 1.6 0 2.5-.4.6-.4 1-.7 1.1-1 .3-.2.5-.5.6-.8l-.3-2 1-.6 1 2.5-.8.8-1 1-1.2.9a5.8 5.8 0 0 1-3.5 1ZM179.8 54.4a5.9 5.9 0 0 1 3-5c1.1-.7 2.2-.9 3.2-.8 1 0 2 .4 2.9 1.1.8.8 1.6 1.7 2.3 2.8a8.8 8.8 0 0 1 1.2 3.9c0 1.2-.1 2.3-.7 3.3a6 6 0 0 1-5.5 3c-1 0-2-.5-2.9-1.1a8.1 8.1 0 0 1-2.3-2.8l-2.6 1.5L181 65l1.5-.6.4.8-4.6 2.5-.4-.8 1.3-1-5.5-10.1-1.5.5-.5-.9 4.5-2.3.4.8-1.2.9 2.4 4.4 2.7-1.4a7 7 0 0 1-.7-3.4Zm1.7-1.2c-.1 1.3.3 2.8 1.3 4.6a8.2 8.2 0 0 0 3 3.3c1.2.7 2.2.7 3.3.1a3 3 0 0 0 1.7-2.7c0-1.2-.4-2.7-1.3-4.5a8.5 8.5 0 0 0-3-3.3c-1-.6-2-.7-3.1-.2-1.1.5-1.7 1.4-1.9 2.7ZM200.5 49.7l2.7 1.5 1.8 1.1.8.3.8-.2.4.9-2.1 1c-.3 0-.7 0-1.2-.3l-2.2-1.4L199 51c-.6-.3-1-.4-1.4-.3l-1 .6 2.2 4.8 1.6-.5.4.8-4.7 2.2-.4-.8 1.3-.8-5-10.5-1.4.5-.3-.9 4.5-2.1.4.8-1.4.9 2.3 4.9 1.4-.8 1.2-6.5-1.6.5-.4-.8 4.2-2 .4.9-1.2.8-1.4 6.6c.4 0 1 .2 1.8.5ZM209.7 51.4a5 5 0 0 1-2.8-1.5 9.7 9.7 0 0 1-2-3.2 8 8 0 0 1-.8-3.8c.1-1.2.4-2.2 1-3.2a6 6 0 0 1 2.7-2c1.8-.7 3.3-.7 4.8 0 1.4.6 2.6 2 3.4 4 .5 1.4.8 2.7.7 3.9a6.8 6.8 0 0 1-1.1 3.3 6 6 0 0 1-2.6 2 5 5 0 0 1-3.3.5Zm-3.6-10c-.2 1.2 0 2.7.8 4.6.7 1.7 1.6 3 2.7 3.7a3 3 0 0 0 3.2.3c1.1-.4 1.8-1.3 2-2.6.3-1.2 0-2.8-.8-4.7-.8-1.7-1.7-3-2.7-3.7-1-.6-2.1-.8-3.3-.3-1 .5-1.7 1.4-2 2.6ZM217 35.4l-1.5.3-.2-.9 2.3-.9c.5 0 1-.3 1.5-.6.6-.3 1-.5 1.3-.5 1.6-.6 2.8-.7 3.7-.5.8.2 1.5.8 1.8 1.8.3.8.4 1.6.1 2.4-.3.7-.8 1.4-1.5 1.8 1.1-.4 2-.5 3-.2.8.2 1.4.9 1.8 1.9a4 4 0 0 1-.2 3.3c-.6 1-1.9 2-3.8 2.7l-1.2.3-1.7.6-2.4.9-.3-.8 1.5-.7-4.2-11Zm4.7 3.7 1-.4c.8-.3 1.3-.7 1.6-1.4.2-.6.2-1.3-.2-2.1-.3-.8-.7-1.4-1.3-1.6-.5-.3-1.4-.2-2.4.2l-1.2.5-.4.2 1.9 5c0-.2.4-.3 1-.4Zm3.1 6c1.2-.4 2-1 2.3-1.7.4-.7.4-1.4 0-2.4-.3-1-.8-1.5-1.3-1.7-.7-.3-1.5-.2-2.5.2l-2.3.8 2 5.2c.2.2 1 0 1.8-.4ZM244.6 25l.2 1-1.4.7 3.4 11 1.7-.3.3.9-5 1.5-.3-.9 1.4-.6-3.4-11.2-5.8 1.7 3.4 11.2 1.8-.4.2 1-5 1.4-.2-.9 1.4-.6-3.4-11-1.6.2-.3-.9 12.6-3.8ZM252.4 36.6c-1-.4-1.9-1-2.6-1.9-.7-.9-1.2-2-1.5-3.5a9.2 9.2 0 0 1-.2-3.9 6 6 0 0 1 1.5-3c.8-.8 1.7-1.3 3-1.6 1.8-.5 3.4-.3 4.7.7 1.3 1 2.2 2.4 2.8 4.6.3 1.4.4 2.7.2 3.9a5.5 5.5 0 0 1-1.7 3c-.8.8-1.8 1.4-2.9 1.7-1.3.4-2.3.4-3.3 0ZM250.2 26c-.4 1.3-.3 2.8.2 4.8a7.9 7.9 0 0 0 2 4c1 .8 2.1 1.2 3.2.8 1.2-.3 2-1 2.4-2.3.4-1.2.3-2.8-.2-4.8a7.9 7.9 0 0 0-2-4c-1-.9-2-1.2-3.2-.9-1.1.5-2 1.3-2.4 2.4ZM266.3 28.7c.1 1.8 0 3-.4 4.1-.1.5-.4.9-.7 1.1-.3.3-.6.5-1 .6l-1.3.1-.4-1.4 1.3-.2c.3 0 .5-.1.6-.3l.4-.6c.6-1.7.4-4.7-.5-9.2l-.3-1.4-2.2.2-.2-.9 10.5-2.1.2.8-1.7.6 2.4 11.4 1.9-.2.1.9-5.6 1.1-.1-.8 1.9-.6-2.4-11.5-3.6.8.3 1.6c.4 2.2.6 4.3.8 6ZM276 19h-1.6l-.2-.9 9.4-1.5.8 2.8-1 .1-1-1.7-4.5.6.9 5.2 3-.6v-1.5l1.1-.1.7 4.2-1 .2-.5-1.6-3.1.5.9 5.5 5.1-1 .6-2.5 1.2.2V30l-10.2 1.7-.2-.9 1.5-.4-2-11.4ZM291.3 16.7l-3.2.5-.1 3.9-1.3.2-.3-5 11.6-1.4.8 5h-1.1l-1.1-3.8-3.2.2 1.4 11.7h2.7v.8l-7 1v-1l2.3-.5-1.5-11.6ZM306.6 22h-1l-.8 1.3-.8 2.3-.7 2c-.3.5-.4.7-.7.8l-2.5.2v-1l.7-.1c.2 0 .3-.2.5-.6l.8-1.6c.3-.9.7-1.6 1-2.1.3-.5.6-1 1-1.2-1-.1-1.6-.5-2.2-1.1a4 4 0 0 1-.9-2.4c0-1.5.3-2.6 1-3.2 1-.7 2.2-1 3.8-1.1h1.5l1.3-.1 2.7-.2v1l-1.4.2.9 11.5h1.7v1l-5.5.4v-1l1.8-.2-.4-5-1.8.2Zm.8-7h-1.6c-.9 0-1.7.3-2.1.7-.5.5-.7 1.3-.6 2.3 0 1 .4 1.8.9 2.3.6.5 1.4.7 2.3.6l2-.2-.4-5.7h-.5ZM318 14.5l-3.1.2-.6 4h-1.2l.1-5 11.6-.5.4 5h-1l-.9-3.8H320l.4 11.8 2.7.1v1l-7 .2-.1-1 2.4-.2-.3-11.8ZM334 26.5c-1-.7-1.7-1.5-2.3-2.5a8.7 8.7 0 0 1 .3-7.5c.6-1 1.4-1.9 2.5-2.4a7 7 0 0 1 3.5-.8c.9 0 2 .2 3.4.5l.6.2-.3 3.3h-1.3l-.3-2.3-1-.5-1.5-.2c-.8 0-1.5.2-2.1.7-.7.4-1.1 1.1-1.6 1.9-.3 1-.6 1.9-.6 3.2 0 1.2 0 2.3.4 3.1.2 1 .7 1.8 1.4 2.4.6.5 1.4.8 2.3.9l1.5-.1c.4-.1.7-.2 1-.5l.8-1.8 1.1.2-.5 2.6-1.1.2-1.3.3h-1.6c-1.3 0-2.4-.3-3.4-1ZM349.5 13.8v1h-1.9l-.7 9.5 1.8-2.2 5.8-6.2v-.5L353 15v-1l5.1.4v.9l-1.5.1-.8 11.6 1.6.3v1L352 28v-1h1.6l.7-9.5-1.6 2-6 6.3v.7l1.7.2v1l-5.3-.5v-.9h1.6l.8-11.7-1.5-.3v-.9l5.4.4ZM369.8 15.7l-.4 4.9-1.3-.1v-3.8l-4.2-.6-1.3 11.7 3.2.6-.1.9-7.3-.9v-.8h2.1l1.3-11.5-2-.5.2-.9 9.8 1ZM373 17.3l-1.4-.5v-.9l5 .7v1l-1.7-.1-.7 5 6.5 1 .7-5-1.5-.5.1-.9 5 .8-.1.8h-1.5l-1.8 11.5 1.4.4v.9l-5-.8v-.9h1.6l.8-5.3-6.5-1-.8 5.3 1.6.5-.1.8-5.1-.7.1-.9h1.6l1.8-11.2ZM391.8 19.3l2 .4 1.9 13.5 1 .4v1l-4.9-1 .2-1 1.6.2-.4-3-5.3-1-1.4 2.5 1.5.5-.1.9-4.4-.9.2-.9h1.2l6.9-11.6Zm.6 3-.2-1.6-.7 1.5-3 5.5 4.6 1-.7-6.3ZM402.5 30.7c-.7 1.5-1.4 2.8-2.1 3.5a3 3 0 0 1-1.1.7H398l-1.3-.4.2-1.5 1.3.3h.6c.2 0 .4-.2.6-.4 1.3-1.2 2.5-4 3.6-8.6l.4-1.4-2-.5.3-1 10.5 2.6-.3 1-1.8-.2-2.8 11.3 1.8.7-.2.8-5.7-1.4.3-.8 2 .3 2.7-11.3-3.7-.9-.4 1.6c-.5 2-1.1 4-1.7 5.6ZM418.5 31.5c1.4.5 2.5 1.2 3 2 .6 1 .7 2 .3 3.3-.5 1.4-1.2 2.3-2.3 2.7-1.1.5-2.3.5-3.8.1l-.5-.1-.7-.3-1.8-.7-2.5-.7.3-.9 1.5.3 3.4-11.1-1.3-.7.2-.8 5 1.5-.2.9-1.8-.3-1.3 4.1 2.5.7Zm-3.8 6.7 1 .4c1 .3 1.8.3 2.5-.1.7-.5 1.2-1.1 1.5-2.2.3-1 .3-1.7-.2-2.5-.3-.6-1-1-2-1.4l-1.8-.5-1.8 6 .8.3Zm16.6-8.4-.2.8-1.8-.3-3.3 11.2 1.6.7-.2.9-5.3-1.7.2-.8 1.8.3 3.3-11-1.6-.8.2-.9 5.3 1.6ZM439 33.8l-1.3-.8.3-.8 4.7 1.7-.3.9-1.5-.3-1.8 4.7 6.2 2.3 1.8-4.7-1.4-.7.4-.9 4.7 1.8-.3.8-1.5-.2-4.1 10.9 1.3.6-.3.9-4.7-1.8.3-.8 1.5.4 2-5.1-6.2-2.4-2 5 1.4.9-.3.8-4.8-1.9.4-.8 1.5.4 4-11ZM457 39.6l2 .8-1 13.7.9.7-.4.8-4.5-2 .3-.9 1.5.5.4-3-5-2-2 2 1.5.8-.3.9-4.1-1.8.3-.9 1.1.3 9.3-10Zm0 3.2.2-1.6-1 1.3-4.2 4.7 4.4 2 .6-6.4ZM470.7 47.3l-1.7-1.1.4-.8 4.4 2.3-1.5 8.6-.5 2.4 1.6-1.8 6.1-6.3L484 53l-.4.8-2-.7-4 11 1.4.9-.5.8-4.7-2.5.4-.8 1.6.6 3.1-7.8 1.3-3.4-2 2L471 61l-1-.5 1.5-9.4.6-3.6-2 3-4.5 7.2 1.6 1-.4.8-4.3-2.3.4-.8 1.5.6 6.4-9.7Z"/><path fill="#313131" d="m490.1 56.4 1.7 1-2.5 13.5.9.7-.4.8-4.3-2.4.5-.8 1.4.5.7-2.7-4.7-2.8-2.1 2 1.2 1-.4.7-3.8-2.2.5-.8 1 .4 10.3-8.9Zm-.4 3.1.4-1.6-1.2 1.2-4.7 4.3 4 2.4 1.5-6.3ZM498.4 62.8l-1-1 .4-.8 2.1 1.4 1.1.7 1.7 1c1.5 1 2.4 2 2.7 3 .2.9 0 2-.6 3-.6.9-1.2 1.4-2 1.8-.9.4-1.7.5-2.6.4-.9-.2-1.8-.5-2.7-1l-1-.7-.5-.5-2.3 3.5 2 1.5-.4.8-5.2-3.3.5-.8 1.5.7 6.3-9.7Zm-.4 7.7c1 .5 1.7.7 2.5.5.9-.2 1.7-.8 2.4-2 .6-.9.8-1.7.6-2.4-.3-.7-.8-1.3-1.8-2l-1.1-.6-.5-.2-3.6 5.5 1.5 1.2ZM502.8 80.2c-.5-1-.6-2.2-.4-3.3.2-1 .8-2.3 1.6-3.5a8 8 0 0 1 2.8-2.5c1-.6 2.2-.8 3.4-.7 1.2.2 2.3.6 3.3 1.3a15 15 0 0 1 2.6 2.4l.5.4-2.1 2.6-1-.7.9-2.2c0-.2-.3-.5-.5-.8-.2-.4-.7-.7-1.2-1-.7-.6-1.4-.7-2.2-.8a4 4 0 0 0-2.3.8c-.8.6-1.6 1.4-2.3 2.3l-1.5 2.9c-.2 1-.3 1.8 0 2.7.2.9.6 1.5 1.4 2l1.3.8 1 .1 1.7-1 1 .8-2 2-1.1-.6c-.5 0-.8-.3-1.3-.4L505 83c-1-.8-1.9-1.8-2.3-2.8ZM530 84.1l-.6.8-1.5-1-6 7.2 2.7-.8 8.3-1.7.3-.4-1-1.2.5-.7 4 3.3-.6.7-1.3-.7-7.4 9 1.1 1.1-.6.7-4-3.4.6-.6 1.4.9 6-7.4-2.4.8-8.5 1.7-.4.5 1.2 1.2-.6.7-4.1-3.4.6-.6 1.3.8 7.4-9-1-1 .5-.8L530 84ZM539.5 92.5c.6.2.9.5 1.2.7l1 .7c1.1 1 1.9 2 2.1 3 .3 1 0 1.8-.7 2.5-.7.8-1.4 1.2-2.3 1.1-.8.1-1.7-.1-2.5-.6.8.8 1.3 1.7 1.4 2.5a3 3 0 0 1-.8 2.3c-.9 1-2 1.5-3 1.4-1.2 0-2.3-.6-3.7-1.8a7 7 0 0 1-1.4-1.4l-.8-1.2-.3-.6L532 99l.6.6-1.1 2.1c.2.7.7 1.4 1.4 2 .7.6 1.3.9 2 .8.6-.1 1.3-.5 2-1.2a3 3 0 0 0 .8-2c0-.6-.5-1.4-1.3-2.1l-1-.9.7-.7.9.7c.4.3.8.7 1.3.8h1.5c.6-.2 1-.5 1.4-1 .6-.6.8-1.2.7-1.8 0-.6-.4-1.2-1-1.7l-1.3-.9c-.3-.2-.7-.1-.9-.1l-1.4 1-.9-.7 1.8-2.3c.3.4.7.6 1.2 1ZM550.7 104.1l-1-1.3.7-.6 1.8 1.8 1.2 1.2 1 .8c1.2 1.3 2 2.3 2 3.2.2.9-.1 1.7-.8 2.4-.7.7-1.4 1-2.2 1-.7.2-1.6 0-2.3-.5.9.8 1.3 1.7 1.4 2.6a3 3 0 0 1-1 2.4c-.8.9-2 1.3-3 1.2-1.2-.1-2.5-.9-4-2.3l-.9-1-1.2-1.2-1.7-1.8.7-.6 1.2 1 8-8.3Zm-5.6 11.2c1 .8 1.7 1.3 2.5 1.3a3 3 0 0 0 2.2-1c.7-.5 1-1.3 1-1.9-.1-.6-.5-1.3-1.3-2.2a35 35 0 0 1-1.7-1.6l-4 3.9 1.3 1.5Zm4.2-5.5.8.7c.6.5 1.2 1 1.9.9.6 0 1.3-.4 1.9-1 .5-.7.9-1.2.9-1.8 0-.7-.5-1.4-1.2-2l-1.1-1-.3-.3-3.7 3.7c.2 0 .4.3.8.8ZM563 114.8l1.4 1.5-6.4 12 .7 1-.7.7-3.3-3.6.6-.7 1.2 1 1.5-2.5-3.7-4-2.7 1.2 1 1.3-.7.6-3-3.3.7-.6 1 .8 12.4-5.4Zm-1.5 2.9.9-1.5-1.6.8-5.7 2.7 3.3 3.5 3-5.5ZM560.4 132c-.2-1.2 0-2.3.5-3.4a8 8 0 0 1 2.4-3c1-1 2.2-1.4 3.4-1.7a6.4 6.4 0 0 1 6.4 2.3c.6.8 1.3 1.8 1.9 3l.3.5-2.7 2-.8-.8 1.5-2c0-.2 0-.5-.2-.9-.2-.3-.5-.8-1-1.2-.5-.7-1-1-1.8-1.2-.8-.2-1.6-.2-2.5.1-1 .3-1.9.8-2.8 1.6-1 .8-1.6 1.6-2.2 2.4a5 5 0 0 0-.7 2.5c0 .8.2 1.6.9 2.4.4.5.8.8 1.1 1 .4.2.6.4 1 .4l1.8-.6.7 1-2.3 1.4a13.7 13.7 0 0 0-2-1.6l-1.2-1.1c-1-.9-1.5-2-1.7-3.1ZM579.4 139c1.2-.2 2.1 0 3 .3 1 .4 1.8 1 2.4 1.9a6 6 0 0 1 1.3 3c0 1-.2 2-.7 3-.6.9-1.4 1.8-2.5 2.6a9.6 9.6 0 0 1-3.6 1.8 5.7 5.7 0 0 1-6-2.1c-.7-1-1.2-2-1.3-3.1-.1-1 .1-2 .6-3 .6-1 1.3-1.9 2.4-2.7l-1.8-2.4-4.4 3.3.9 1.4-.8.5-3-4 .7-.6 1.1 1.1 9.2-7-.7-1.3.7-.6 3 4-.7.6-1.2-1.1-4 3 1.9 2.4a20 20 0 0 1 3.5-1Zm1.6 1.5c-1.2 0-2.7.7-4.4 2a8.2 8.2 0 0 0-2.8 3.4c-.4 1.2-.3 2.2.4 3.2a3 3 0 0 0 3 1.2 9 9 0 0 0 4.3-2 8.2 8.2 0 0 0 2.8-3.4c.5-1.2.3-2.3-.3-3.2a3.2 3.2 0 0 0-3-1.2ZM587.4 158.7l-1.2 2.9-.8 1.8-.2.9.3.7-.8.5-1.3-1.9c-.1-.2-.1-.6.1-1.2l1-2.4c.7-1.1 1-2 1.3-2.7a2 2 0 0 0 0-1.5l-.6-1-4.3 3 .7 1.5-.8.6-2.8-4.3.7-.5 1 1.2 9.6-6.5-.6-1.4.7-.5 2.8 4.1-.7.5-1-1.2-4.5 3 .8 1.4 6.6.1-.7-1.4.7-.5 2.6 3.8-.8.5-1-1-6.8-.4c.2.5.2 1.1 0 1.9ZM587 168c0-1 .3-2 1.1-3 .7-.9 1.6-1.7 2.8-2.4a7.9 7.9 0 0 1 3.6-1.3c1.3 0 2.3 0 3.3.6 1 .4 1.8 1.2 2.5 2.2 1 1.7 1.2 3.2.7 4.8a7.7 7.7 0 0 1-3.5 4 8.9 8.9 0 0 1-3.7 1.3c-1.3.1-2.3 0-3.4-.6-1-.4-1.8-1.3-2.5-2.3-.7-1.2-.9-2.2-.9-3.3Zm9.5-5.2c-1.2 0-2.7.5-4.5 1.6-1.5 1-2.6 2-3.2 3.2-.6 1.2-.4 2.2.2 3.3.6 1 1.6 1.6 2.8 1.6 1.3 0 2.8-.5 4.5-1.6 1.6-1 2.7-2 3.2-3.2.5-1 .5-2.2-.1-3.3-.7-1-1.6-1.5-2.9-1.6ZM604 172.9l-.5-1.5.8-.5 1.3 2.2.9 1.4.7 1c.8 1.6 1.2 2.7 1 3.7-.1 1-.6 1.6-1.5 2.2-.7.4-1.5.6-2.3.5-.8-.2-1.5-.5-2.1-1.3.6 1 .8 2 .6 2.9-.1.9-.7 1.5-1.5 2-1.1.7-2.3.8-3.4.4s-2.1-1.5-3.2-3.3l-.6-1.2-.8-1.6-1.2-2.1.8-.4.9 1.2L604 173Zm-8.4 9.1c.6 1.1 1.2 1.8 2 2a3 3 0 0 0 2.3-.4c.9-.5 1.3-1 1.5-1.6.1-.6 0-1.5-.6-2.4l-1.2-2-4.9 2.6.9 1.8Zm5.5-4 .5.9c.4.7 1 1.2 1.6 1.3.7.2 1.3 0 2.1-.4s1.2-1 1.4-1.5c.1-.6 0-1.3-.6-2.3-.3-.4-.6-.8-.7-1.2l-.3-.4-4.5 2.6.5 1ZM618.6 198.4l-.8.4-.9-1.4-10.4 5 .6 1.8-.9.4-2.2-4.8.8-.4.8 1.3 10.5-5-2.6-5.4-10.5 5.1.5 1.7-.8.4-2.3-4.7.8-.4.8 1.3 10.5-5.1-.5-1.6.8-.4 5.8 11.8ZM608.3 208c.2-1.1.7-2 1.4-2.8.9-.8 1.9-1.6 3.2-2.1 1.2-.6 2.5-.9 3.7-.8 1.2.2 2.2.4 3.2 1.1 1 .7 1.6 1.6 2 2.6.8 1.8.9 3.4 0 4.8a7.4 7.4 0 0 1-4 3.4c-1.4.5-2.6.8-3.8.7a6.8 6.8 0 0 1-3.3-1.1c-1-.7-1.6-1.6-2.2-2.6a6.4 6.4 0 0 1-.2-3.2Zm10.1-3.7c-1.2-.3-2.7 0-4.7.8-1.7.8-3 1.7-3.7 2.7-.6 1-.8 2.1-.3 3.3a3.3 3.3 0 0 0 2.6 2c1.3.2 2.9 0 4.7-.9 1.7-.7 3-1.6 3.7-2.6.7-1 .8-2.2.4-3.3a3.3 3.3 0 0 0-2.7-2ZM618.2 220.4c-1.7.3-3.1.5-4 .3-.5-.1-1-.2-1.3-.5l-.7-1a4 4 0 0 1-.4-1.3l1.4-.7c0 .3.2.8.5 1.4 0 .2.2.3.4.5l.6.3c1.7.3 4.8-.3 9-2l1.3-.5-.5-2 .9-.4 3.8 10-1 .4-.7-1.5-11 4.1.5 1.7-.8.3-2-5.4.8-.3.9 1.8 10.9-4.1-1.3-3.5-1.6.6c-2.1 1-4 1.4-5.7 1.8ZM629.3 228.5l-.3-1.6.9-.2 3 9-2.7 1.1-.4-1 1.6-1-1.4-4.5-5 1.6 1 3 1.6-.3.4 1-4.2 1.4-.3-1 1.4-.8-1-3-5.2 1.8 1.9 5 2.6.1v1.2l-3.3.4-3.3-9.8.9-.3.6 1.4 11.2-3.5ZM634 243.3l-1-3-4 .4-.2-1.2 4.8-1 3.2 11.2-4.8 1.6-.3-1.1 3.6-1.7-.8-3.2-11.3 3.2.5 2.6-.9.3-2-6.9 1-.2.8 2.2 11.5-3.2ZM631.1 259.2l-.2-.9c-.2-.2-.7-.4-1.3-.5l-2.5-.5a20 20 0 0 1-2-.4c-.6-.2-.8-.3-.9-.6l-.5-2.5.9-.1.3.7.7.5c.3 0 1 .2 1.6.5l2.3.6 1.3.8c0-1 .4-1.7.9-2.2.5-.7 1.3-1.1 2.1-1.3 1.4-.3 2.6-.1 3.3.6a7 7 0 0 1 1.7 3.5l.3 1.4.2 1.4.6 2.6-.9.3-.6-1.5-11.3 2.6.3 1.7-.9.1-1.3-5.3.9-.2.6 1.7 4.7-1.2-.3-1.8Zm7-.3-.2-1.4c-.2-1-.6-1.6-1-2-.6-.5-1.4-.5-2.4-.3-1 .3-1.7.7-2 1.3a3 3 0 0 0-.3 2.4l.5 1.9 5.6-1.4-.2-.5ZM640.3 269.4l-.7-3.1-4 .1-.2-1.2 5-.6 2.2 11.4-4.9 1.2-.2-1.2 3.7-1.4-.4-3.1-11.6 2.2.3 2.6-.9.2-1.4-7 1-.2.6 2.3 11.5-2.2ZM631 286.9c.4-1 1.2-2 2.1-2.5 1-.7 2.2-1 3.6-1.3 1.4-.1 2.7 0 3.8.4a6.7 6.7 0 0 1 4.2 5.4v3.5l-.1.6-3.3.2-.2-1.3 2.3-.8.2-1v-1.5c-.2-.7-.5-1.4-1-2-.6-.6-1.4-1-2.3-1.2a10.1 10.1 0 0 0-6.3.7c-1 .5-1.6 1-2.1 1.7s-.6 1.6-.5 2.4c0 .7.2 1.2.4 1.6 0 .3.3.6.5.8l2 .5v1.3l-2.8-.2c0-.2-.1-.6-.4-1l-.5-1.3-.3-1.5c0-1.3.1-2.5.6-3.5ZM645.8 300.4h-.9l-.4-1.8-9.4.9 2.4 1.3 7 4.8h.6v-1.8h1l.4 5-.9.1-.3-1.4-11.6 1v1.7h-1l-.4-5.2h1l.3 1.6 9.5-.8-2.3-1.2-7.2-5-.6.1v1.7l-1 .1-.4-5.2h.9l.3 1.4 11.6-1 .1-1.5h1l.3 5.2ZM647.1 320.7l-4.9.4v-1.3l3.7-.7v-4l-11.7.4-.1 3.3h-1l-.3-7.3h1l.2 2 11.6-.6v-2h1l.5 9.8ZM646 324l.2-1.5h1l-.1 5.2h-.9l-.2-1.7h-5v6.6h5l.2-1.4h.9v5h-1l-.2-1.5h-11.6l-.2 1.5h-.9v-5h1l.1 1.6h5.4v-6.6h-5.3l-.3 1.5h-.9v-5.1h.9l.2 1.5H646ZM647 343v2l-13 3.9-.2 1.2h-1l.3-5h.9v1.6l3-.8.1-5.4-2.6-1-.2 1.5h-1l.2-4.5h1v1.2l12.6 5.2Zm-3 1 1.7-.3-1.7-.6-6-2.2-.2 4.7 6.2-1.6ZM637.4 355.3c-1.7-.4-2.9-.9-3.7-1.5-.4-.3-.8-.6-.9-1-.2-.3-.2-.7-.2-1.1 0-.6 0-1 .3-1.3h1.5l-.2 1.4.1.6c0 .3.3.4.5.6 1.4 1 4.4 1.8 8.9 2.2h1.5l.4-2h.9l-1 10.7h-.9V362l-11.5-1-.4 1.8h-1l.6-5.8h.9v2l11.5 1 .3-3.8-1.7-.1c-2.3-.2-4.2-.5-5.9-.9ZM639 371.2c-.1 1.5-.6 2.7-1.5 3.4-.8.7-1.9.9-3.2.8a4.1 4.1 0 0 1-3-1.9c-.7-1-.9-2.2-.7-3.7v-.6l.3-.7.4-1.9.3-2.6 1 .2-.1 1.6 11.6 1.7.5-1.5.9.1-.9 5.3-.8-.1-.1-1.9-4.4-.6-.2 2.4Zm-7.1-2.6-.2 1c-.2 1 0 1.8.6 2.5.5.6 1.2 1 2.3 1 1 .3 1.8 0 2.4-.4.6-.4.9-1.2 1-2.2l.4-1.9-6.3-.9-.2.9Zm10.9 15-.9-.1v-1.7l-11.4-1.7-.5 1.7h-.8l.7-5.5.9.1v1.8l11.4 1.6.4-1.7 1 .1-.8 5.4ZM640 391.8l.6-1.3.8.2-1.1 5-.9-.2.1-1.6-4.9-1.1-1.4 6.4 5 1.1.5-1.4.9.3-1.2 4.9-.8-.3v-1.5l-11.3-2.4-.5 1.4-.8-.2 1-5 1 .3-.1 1.5 5.3 1.1 1.4-6.4-5.3-1.1-.6 1.6-.8-.3 1.1-5 .9.3-.1 1.5 11.2 2.2ZM637 410.4l-.6 2-13.6 1.2-.5 1.1-.8-.2 1.2-4.8.8.2-.2 1.6 2.9-.1 1.3-5.3-2.5-1.4-.6 1.4-.8-.2 1-4.3.9.2-.1 1.2 11.6 7.4Zm-3.2.4h1.7l-1.5-.9-5.3-3.3-1.1 4.6 6.2-.4ZM631.4 425.3l1-1.9.8.3-1.6 4.7-8.8-.2-2.4-.1 2.1 1.2 7.2 5.2-1.6 4.7-.8-.3.4-2-11.5-2.3-.7 1.4-.8-.3 1.7-5.2.8.4-.3 1.6 8.2 2 3.6.7-2.3-1.7-8.3-6 .4-1.2h9.5l3.7.1-3.3-1.5-7.8-3.4-.7 1.7-.9-.3 1.6-4.6.8.3-.3 1.6 10.3 5.1Z"/><path fill="#313131" d="m625.5 446-.7 1.9-13.6-.5-.6 1-.8-.4 1.8-4.6.8.3-.4 1.6 3 .1 1.9-5-2.3-1.9-.7 1.5-.9-.4 1.6-4.1.9.3-.2 1.2 10.2 9Zm-3.2-.1 1.6.1-1.3-1-4.9-4-1.7 4.5 6.3.4ZM620.4 455l.9-1.2.8.3-1 2.2-.5 1.2-.7 1.8c-.8 1.6-1.5 2.6-2.5 3.1a4 4 0 0 1-3.2-.2c-.9-.4-1.6-.9-2.1-1.6-.5-.8-.7-1.6-.8-2.5 0-1 .2-1.9.7-2.8l.4-1 .4-.6-3.7-1.6-1.2 2.2-.9-.3 2.5-5.5.9.3-.5 1.5 10.5 4.7Zm-7.5.8c-.5.9-.5 1.7-.2 2.6.3.9 1 1.5 2.3 2 1 .5 1.8.5 2.4.3.7-.4 1.2-1 1.6-2l.5-1.3.1-.5-6.1-2.7c0 .3-.3.8-.6 1.6ZM604 462c1-.5 2-.8 3.1-.8 1.3 0 2.5.3 3.8 1 1.2.6 2.2 1.4 2.9 2.4.7 1 1 2.1 1.1 3.2.1 1.2 0 2.4-.7 3.5-.4 1-1.1 1.9-1.9 3l-.3.5-3-1.6.5-1.1 2.4.6c.2 0 .5-.2.8-.6l.8-1.3a3 3 0 0 0 .3-2.2c0-.8-.5-1.5-1.1-2.3a9.9 9.9 0 0 0-2.6-1.9c-1.1-.5-2.2-.9-3.1-1-1-.2-2-.1-2.8.3-.8.3-1.3.8-1.8 1.7l-.5 1.5v1l1.4 1.5-.6 1-2.3-1.7.3-1 .3-1.4.6-1.5c.6-1.2 1.4-2.1 2.4-2.7ZM604.3 489.6l-.7-.6.7-1.7-8-4.7 1 2.4 3 8 .5.3 1-1.4.8.6-2.6 4.4-.7-.6.5-1.3-10-5.9-1 1.3-.8-.4 2.7-4.5.8.4-.8 1.5 8.2 4.9-1.2-2.3-3-8.1-.5-.4-1.1 1.5-.8-.5 2.6-4.5.8.4-.6 1.5 10 5.8 1-1.2.8.5-2.6 4.6ZM597.6 500.2l-.6 1.4-.5 1c-.9 1.2-1.7 2.1-2.6 2.5-1 .3-1.9.3-2.7-.2a3 3 0 0 1-1.5-2.2c-.2-.8 0-1.6.3-2.5-.7 1-1.5 1.5-2.3 1.7a3 3 0 0 1-2.4-.5c-1.2-.7-1.9-1.6-2-2.7 0-1 .3-2.4 1.3-4l1.2-1.5 1.1-1 .5-.4 2.5 2-.5.8-2.3-.9a6 6 0 0 0-1.8 1.9c-.5.6-.6 1.3-.4 2 .1.6.7 1.2 1.5 1.7a3 3 0 0 0 2 .5c.8-.1 1.5-.7 2-1.6l.7-1 .9.4-.6 1c-.3.3-.4.8-.5 1.3 0 .5 0 1 .2 1.5.2.4.6.8 1 1.2.8.5 1.5.6 2 .4.6-.2 1-.6 1.6-1.3.3-.4.5-.9.5-1.3v-1l-1.3-1.2.6-1 2.5 1.5c0 .6-.2 1-.4 1.5ZM587.8 513.1l1.1-1 .8.4-1.4 2-1 1.5-.6 1.1c-1 1.4-2 2.2-2.8 2.5-1 .3-1.8.1-2.6-.5a3.3 3.3 0 0 1-1.4-2c-.2-.7 0-1.5.3-2.3-.7.9-1.5 1.5-2.4 1.8a3 3 0 0 1-2.5-.6 4 4 0 0 1-1.6-2.9c-.1-1.1.4-2.6 1.6-4.2l.8-1 1-1.4 1.5-2 .8.5-.7 1.3 9.1 6.8Zm-11.9-3.8c-.8 1-1 2-1 2.7 0 .7.5 1.5 1.3 2 .7.6 1.5.8 2.1.7.7-.2 1.4-.7 2-1.5.8-1 1.2-1.8 1.3-2l-4.5-3.3a9 9 0 0 0-1.2 1.4Zm6 3.3-.6.8c-.5.7-.6 1.4-.5 2a3 3 0 0 0 1.3 1.8 3 3 0 0 0 2 .6c.5-.1 1.1-.6 1.8-1.5.3-.3.5-.8.7-1.2l.2-.3-4.2-3-.6.8ZM579 526.9l-1.2 1.6-13-4.5-.8.8-.7-.6 3-3.9.8.6-.9 1.3 2.7 1 3.4-4.2-1.6-2.4-1.1 1.1-.8-.6 2.8-3.4.7.6-.5 1L579 527Zm-3-1 1.5.6-1-1.4-3.5-5.2-3 3.7 6 2.3ZM561.7 527c1.1-.3 2.2-.3 3.4 0 1.1.3 2.2 1 3.3 2a6.5 6.5 0 0 1 2.5 6.5 7 7 0 0 1-1.5 3c-.6.8-1.5 1.6-2.6 2.4l-.5.4-2.4-2.4.9-.9 2 1.2c.3 0 .6-.2 1-.5.4-.2.8-.6 1.1-1a3 3 0 0 0 1-2.2c0-.8-.2-1.5-.7-2.4a8 8 0 0 0-2-2.5 10 10 0 0 0-2.7-1.7c-1-.4-1.8-.5-2.7-.4-.8 0-1.5.5-2.2 1.2l-.8 1.3-.3 1 .9 1.7-1 .8-1.6-2 .6-1.1.6-1.2 1-1.3c.6-.8 1.6-1.6 2.7-1.9ZM557.8 547c.3 1 .3 2 0 3a5 5 0 0 1-1.4 2.6c-.9.9-1.8 1.4-2.8 1.7-1 .2-2.1.1-3.1-.2-1-.4-2-1.1-3-2a8 8 0 0 1-2.3-3.3 5.7 5.7 0 0 1-.4-3.4c.2-1 .8-2 1.5-2.8.9-1 1.8-1.5 2.9-1.8 1-.3 2-.2 3 .2s2.1 1 3.1 2l2.1-2.3-4-3.8-1.2 1-.7-.7 3.6-3.7.6.6-1 1.3 8.4 8 1.2-1 .6.8-3.5 3.6-.6-.7 1-1.3-3.7-3.5-2.1 2.2a10 10 0 0 1 1.8 3.5Zm-1.2 1.7a8.7 8.7 0 0 0-2.6-4 7.8 7.8 0 0 0-3.9-2.2c-1.2-.3-2.3 0-3.2 1a3 3 0 0 0-.8 3 8.5 8.5 0 0 0 2.7 4c1.3 1.2 2.5 2 3.8 2.3a3 3 0 0 0 3-1c.9-.8 1.2-1.9 1-3.1ZM539.5 557.7a5046 5046 0 0 0-5-1.3l-1 .1-.7.4-.6-.7 1.6-1.6c.3-.1.6-.3 1.3 0 .5 0 1.4.3 2.5.6 1.3.4 2.2.7 3 .8.7.2 1.2.1 1.5-.2l.8-.8-3.6-4-1.4 1-.6-.7 3.7-3.4.7.6-1 1.2 7.8 8.5 1.3-.9.6.7-3.6 3.4-.7-.7 1-1.2-3.6-4-1.2 1.1.8 6.6 1.3-.9.6.7-3.4 3.2-.6-.7 1-1.2-.8-6.7c-.2.2-.9.3-1.7.1ZM530.2 559a5 5 0 0 1 3.1.5 9 9 0 0 1 3 2.5c.9 1 1.5 2.2 1.8 3.4.3 1.2.3 2.3-.1 3.3s-1 2-1.9 2.8a5.7 5.7 0 0 1-4.6 1.5c-1.5-.2-3-1.2-4.5-2.8-1-1-1.5-2.3-1.8-3.5-.3-1.2-.3-2.3 0-3.4.4-1.1 1-2 2-2.8 1-1 2-1.5 3-1.6Zm6.6 8.5c-.2-1.3-1-2.7-2.3-4.2a8.6 8.6 0 0 0-3.6-2.7 3.1 3.1 0 0 0-3.2.6c-1 .8-1.3 1.8-1.1 3 .1 1.3.9 2.7 2.2 4.3a8.6 8.6 0 0 0 3.6 2.7c1.3.4 2.3.1 3.3-.6.9-.8 1.3-1.8 1-3.1ZM528.1 576.4l1.3-.8.6.8-1.9 1.5c-.4.2-.8.6-1.2 1.1l-1 .9c-1.5 1-2.5 1.5-3.4 1.6-1 0-1.8-.4-2.4-1.1-.5-.7-.8-1.5-.8-2.3 0-.8.3-1.6.9-2.2a4 4 0 0 1-2.8 1 3 3 0 0 1-2.3-1.1c-.7-1-1-2.2-.8-3.3.2-1.2 1.1-2.5 2.7-3.7l1-.7 1.4-1 2-1.6.5.8-1.2 1 7.4 9Zm-10.4-6.9c-1 .8-1.5 1.5-1.6 2.3a3 3 0 0 0 .7 2.4c.6.7 1.2 1.1 1.9 1.2.7 0 1.4-.3 2.3-1 1-.7 1.6-1.2 1.8-1.5l-3.4-4.4c-.4 0-.9.3-1.7 1Zm5 4.8-.8.6c-.7.6-1 1.2-1.1 1.9-.1.6.1 1.3.7 2s1.2 1 1.8 1c.6.1 1.3-.2 2.2-.9l1-.9.3-.2-3.2-4.1c-.3 0-.6.3-1 .6Z"/><circle cx="113.4" cy="108.4" r="2" fill="#313131" style="mix-blend-mode:overlay"/><circle cx="517.9" cy="82.8" r="2" fill="#313131" style="mix-blend-mode:overlay"/></g><defs><clipPath id="a"><path fill="#fff" d="M0 0h660v660H0z"/></clipPath></defs></svg>