<svg width="437" height="534" viewBox="0 0 437 534" fill="none" xmlns="http://www.w3.org/2000/svg">
<path d="M67.0853 488.403H341.62C342.773 477.912 300.721 254.825 251.324 183.108C245.716 174.969 197.71 169.047 180.087 189.292C86.7339 296.5 64.8295 485.833 67.0853 488.403Z" fill="black"/>
<path d="M257.835 201.622C265.627 221.809 295.023 292.584 311 343.378C321.721 377.465 325.803 406.073 328.149 413.59C328.149 413.59 247.088 387.552 228.836 387.507C200.728 387.437 155.638 446.145 166.699 453.496C184.086 465.063 266.967 504.399 333.154 516.748C369.131 523.464 436.921 477.733 431.563 441.377C424.046 390.353 331.84 255.857 296.76 217.72C278.547 197.924 248.337 177.02 257.835 201.622Z" fill="#FF9581"/>
<path d="M436.504 452.163C434.806 488.916 388.831 519.856 362.165 521.49C316.178 524.278 178.222 484.103 178.222 484.103L231.848 380.791C231.848 380.791 325.72 412.654 328.104 413.551V413.513C327.277 410.777 304.143 323.845 293.806 295.039C293.255 293.449 292.614 291.822 292.011 290.111C289.038 282.132 284.956 271.596 280.444 260.215L280.399 260.132C277.9 253.832 275.259 247.244 272.664 240.746V240.707C261.327 212.542 250.279 185.735 250.279 185.735C266.082 188.331 281.687 196.636 307.308 223.526C332.878 250.384 439.311 391.532 436.504 452.163Z" fill="black"/>
<path d="M213.975 461.75C217.801 454.438 221.691 447.157 225.53 439.852C229.298 432.7 233.111 425.574 236.956 418.46C240.929 411.103 245.101 403.759 248.312 396.03C248.37 395.883 248.171 395.761 248.075 395.889C243.249 402.253 239.276 409.27 235.309 416.185C231.201 423.35 227.196 430.579 223.229 437.827C219.339 444.927 215.596 452.098 211.905 459.295C208.111 466.703 204.279 474.381 201.536 482.251C201.427 482.565 201.863 482.872 202.068 482.565C206.503 475.983 210.297 468.773 213.975 461.75Z" fill="#2B454E"/>
<path d="M356.814 428.797L328.149 413.596L328.104 413.558V413.519C327.277 410.783 304.143 323.851 293.806 295.045C293.255 293.456 292.614 291.828 292.011 290.117C289.038 282.138 284.956 271.603 280.444 260.221L356.814 428.797Z" fill="#1C1C1C"/>
<path d="M380.545 441.409C372.586 435.462 364.005 430.143 355.36 425.253C351.04 422.805 346.631 420.556 342.101 418.531C337.281 416.378 332.187 414.82 327.399 412.654C327.034 412.488 326.765 413.052 327.13 413.218C331.603 415.243 335.852 418.063 340.172 420.415C344.664 422.863 349.176 425.273 353.726 427.612C362.659 432.207 371.432 437.083 380.315 441.775C380.526 441.89 380.744 441.557 380.545 441.409Z" fill="#1C1C1C"/>
<path d="M359.672 419.153C352.476 419.249 309.039 407.649 302.714 413.609C264.16 449.952 251.971 442.633 243.762 447.369C180.234 483.917 95.3981 526.854 65.1179 527.123C19.1944 527.495 0.904543 488.954 8.5499 452.541C23.642 380.56 120.718 240.208 164.642 202.91C187.931 183.165 186.091 212.946 176.459 245.322C170.807 264.304 160.925 292.527 150.845 320.224C141.918 344.897 118.257 407.944 117.847 409.424V409.463C117.809 409.546 117.77 409.591 117.777 409.636C117.745 409.802 117.911 409.835 118.283 409.732C120.302 409.36 174.627 383.758 229.259 369.692C248.51 364.738 288.602 357.676 302.976 364.091C311.525 367.904 311.666 373.005 311.666 373.005C311.666 373.005 318.517 372.383 325.746 378.33C330.539 382.278 332.026 387.86 332.026 387.86C332.026 387.86 339.524 388.911 343.427 393.256C348.079 398.44 348.49 403.926 348.49 403.926C358.615 406.63 359.672 419.153 359.672 419.153Z" fill="white"/>
<path d="M295.504 371.486C289.711 371.569 284.059 372.409 278.368 373.408C277.983 373.479 277.996 374.075 278.406 374.03C283.994 373.415 289.653 373.287 295.267 373.101C300.849 372.915 306.52 372.793 312.102 372.909C312.134 372.909 312.141 372.851 312.109 372.845C306.54 371.928 301.169 371.403 295.504 371.486Z" fill="#1A2E35"/>
<path d="M331.866 387.527C321.92 384.797 313.993 383.284 301.502 384.848C301.099 384.899 301.131 385.495 301.528 385.469C313.397 384.733 321.138 385.937 331.847 387.738C331.968 387.764 331.975 387.559 331.866 387.527Z" fill="#1A2E35"/>
<path d="M348.381 403.593C338.409 399.491 330.732 398.209 319.664 398.209C319.273 398.209 319.145 398.786 319.549 398.825C330.168 399.837 337.935 401.362 348.233 404.041C348.49 404.105 348.624 403.695 348.381 403.593Z" fill="#1A2E35"/>
<path d="M226.606 370.326C221.838 370.948 217.07 372.351 212.405 373.498C207.432 374.722 202.471 376.075 197.601 377.683C187.847 380.9 178.382 384.758 169.045 389.013C168.686 389.18 168.878 389.731 169.263 389.597C178.773 386.264 188.379 383.143 197.992 380.118C202.721 378.632 207.419 377.049 212.129 375.511C216.961 373.928 221.992 372.729 226.741 370.929C227.061 370.807 226.965 370.275 226.606 370.326Z" fill="#1A2E35"/>
<path d="M188.61 380.624C198.665 377.222 203.209 377.202 203.209 377.202L260.366 473.721C260.366 473.721 102.935 530.398 70.6164 533.711C38.2919 537.024 1.5198 511.57 0.898173 470.991C0.0266143 413.955 93.0334 276.986 139.822 224.02C161.265 199.744 186.264 182.114 192.641 186.094C200.171 190.791 186.495 221.315 179.286 244.085C165.982 286.118 118.296 409.732 118.296 409.732C118.296 409.732 176.633 384.681 188.61 380.624Z" fill="black"/>
<path d="M202.696 377.125C193.827 377.645 155.484 391 136.682 399.068C117.943 407.111 99.9161 416.653 83.004 428.073C73.4361 434.533 64.3553 441.563 55.3833 448.824C55.0757 449.074 55.409 449.574 55.7422 449.337C72.2762 437.513 89.938 426.964 107.811 417.307C125.595 407.7 143.705 398.581 162.553 391.231C173.287 387.046 191.744 380.778 202.228 378.029C205.195 377.247 202.971 377.106 202.696 377.125Z" fill="#1C1C1C"/>
<path d="M164.95 292.725C162.553 296.596 160.124 300.441 158.073 304.517C157.977 304.709 157.887 304.901 157.791 305.094C160.835 295.833 163.726 286.547 166.494 277.197C166.667 276.621 165.712 276.313 165.494 276.871C151.966 311.131 139.412 345.807 127.236 380.573C123.826 390.295 120.84 400.119 117.745 409.937C117.636 410.277 118.193 410.45 118.334 410.129C122.051 401.709 125.794 393.345 129.197 384.777C132.599 376.215 135.759 367.558 138.957 358.919C144.545 343.814 149.87 328.632 155.004 313.374C156.612 310.701 158.234 308.035 159.752 305.318C161.963 301.351 163.783 297.198 165.629 293.052C165.828 292.597 165.2 292.322 164.95 292.725Z" fill="#1C1C1C"/>
<path d="M222.062 452.701C217.871 445.588 213.744 438.442 209.572 431.322C205.484 424.344 201.453 417.339 197.441 410.322C193.295 403.061 189.264 395.64 184.4 388.828C184.31 388.699 184.092 388.808 184.156 388.956C187.008 396.415 190.866 403.497 194.647 410.514C198.562 417.788 202.587 425.004 206.644 432.2C210.617 439.25 214.725 446.216 218.89 453.156C223.171 460.289 227.67 467.601 232.906 474.086C233.117 474.343 233.604 474.144 233.457 473.798C230.208 466.556 226.087 459.533 222.062 452.701Z" fill="#1C1C1C"/>
<path d="M262.641 473.926C257.899 464.576 250.523 455.393 245.063 446.498C244.857 446.158 244.351 446.511 244.55 446.85C249.51 455.194 254.054 464.185 258.796 472.67C237.174 481.597 214.218 489.557 192.167 497.369C169.538 505.392 146.762 512.993 123.672 519.645C110.766 523.362 97.8397 527.393 84.856 530.802C84.0486 531.013 84.2665 531.68 85.0932 531.52C108.452 527.123 131.388 520.375 154.004 513.198C177.068 505.879 199.831 497.702 222.485 489.236C235.232 484.475 263.026 474.683 262.641 473.926Z" fill="#1C1C1C"/>
<path d="M225.151 370.39C195.422 378.003 161.214 390.532 145.884 396.53C145.481 396.671 145.115 396.812 144.75 396.947C131.247 402.253 122.884 406.188 120.878 406.521C120.712 406.444 120.584 406.329 120.455 406.252V406.214C119.052 405.201 117.661 404.432 116.277 403.913C112.47 402.548 75.8906 397.979 76.8134 386.648C77.7042 375.44 92.6104 376.138 94.8021 376.292C92.431 375.773 72.5774 371.121 79.0436 361.207C83.6129 354.176 103.274 355.208 105.254 355.285C103.249 354.625 85.0099 348.678 91.2839 338.559C95.7762 331.317 117.725 332.259 120.257 332.689C118.206 331.907 101.948 329.183 109.535 320.461C114.803 314.386 156.132 320.564 174.505 329.734C201.824 343.372 225.151 370.39 225.151 370.39Z" fill="white"/>
<path d="M145.884 396.531C145.481 396.672 145.115 396.813 144.75 396.947C138.406 392.019 114.399 379.305 95.5391 376.889C94.3727 376.741 94.2958 376.068 95.5327 376.126C118.821 377.183 139.758 390.898 145.884 396.531Z" fill="#1A2E35"/>
<path d="M106.152 356.035C132.183 361.2 143.949 366.949 166.334 381.169C166.648 381.368 167 380.906 166.699 380.676C145.833 365.058 132.849 357.323 106.376 355.375C105.177 355.285 104.96 355.798 106.152 356.035Z" fill="#1A2E35"/>
<path d="M121.058 333.227C146.032 339.866 159.195 345.621 179.311 361.899C179.785 362.283 180.369 361.7 179.933 361.271C160.976 342.885 144.596 335.598 121.295 332.535C119.706 332.33 119.488 332.811 121.058 333.227Z" fill="#1A2E35"/>
<path d="M246.107 233.075C231.316 238.394 202.587 218.124 190.148 200.475C189.302 199.257 189.738 185.434 189.469 168.605C189.27 158.396 188.802 147.028 187.629 136.691L254.265 145.086C254.265 145.086 250.349 167.484 252.503 185.498C252.701 187.004 253.009 188.388 253.432 189.689C253.477 189.881 253.56 190.112 253.605 190.381C255.842 198.289 260.404 227.922 246.107 233.075Z" fill="white" stroke="black" stroke-width="0.640852" stroke-miterlimit="10"/>
<path d="M253.631 190.375C253.759 190.804 253.887 191.272 253.97 191.83C214.077 190.138 198.902 172.598 189.084 155.769C188.783 149.354 188.36 142.849 187.629 136.691L254.271 145.073C254.271 145.073 250.337 167.49 252.515 185.498C252.689 186.998 253.028 188.363 253.458 189.689C253.502 189.856 253.541 190.118 253.631 190.375Z" fill="black" stroke="black" stroke-width="0.640852" stroke-miterlimit="10"/>
<path d="M160.316 66.793C156.702 90.716 178.536 155.077 196.992 167.426C223.748 185.325 262.699 181.678 276.682 150.623C290.236 120.522 260.296 37.1536 240.134 26.4322C210.437 10.6352 165.655 31.45 160.316 66.793Z" fill="white" stroke="black" stroke-width="1.2817" stroke-miterlimit="10"/>
<path d="M221.934 95.7404C221.845 95.5866 221.665 96.0609 221.729 96.2339C223.312 100.528 224.408 105.718 220.96 108.468C220.851 108.551 220.941 108.769 221.075 108.698C225.645 106.43 224.126 99.5535 221.934 95.7404Z" fill="black"/>
<path d="M216.538 92.5042C209.38 94.305 213.507 108.493 220.14 106.827C226.67 105.18 222.543 90.9918 216.538 92.5042Z" fill="black"/>
<path d="M248.671 87.6914C248.658 87.512 249.074 87.8003 249.119 87.9798C250.26 92.4145 252.311 97.3042 256.713 97.6054C256.848 97.6118 256.906 97.8425 256.752 97.8617C251.695 98.5923 249.036 92.0748 248.671 87.6914Z" fill="black"/>
<path d="M251.26 81.9558C258.174 79.3603 262.853 93.3821 256.444 95.7789C250.144 98.1501 245.466 84.1282 251.26 81.9558Z" fill="black"/>
<path d="M209.053 87.6401C210.841 86.5891 212.322 85.3267 213.988 84.1027C215.865 82.7248 217.5 81.8212 218.326 79.5398C218.769 78.3158 217.935 76.5919 216.788 76.0471C214.11 74.7847 211.392 75.8997 209.066 77.4634C206.541 79.1617 205.029 81.1163 204.144 84.0258C203.286 86.8455 206.688 89.0244 209.053 87.6401Z" fill="black"/>
<path d="M254.669 73.2144C252.605 73.4644 250.663 73.3554 248.606 73.3939C246.28 73.4387 244.428 73.7143 242.384 72.3941C241.288 71.6892 240.91 69.8115 241.493 68.6836C242.852 66.0561 245.69 65.2935 248.491 65.1269C251.529 64.9475 253.919 65.5819 256.38 67.3635C258.77 69.0874 257.386 72.8812 254.669 73.2144Z" fill="black"/>
<path d="M232.104 136.486C233.457 137.21 234.918 138.319 236.552 137.992C238.116 137.678 239.711 136.467 240.955 135.512C241.076 135.416 241.262 135.524 241.211 135.685C240.564 137.703 238.468 139.459 236.328 139.696C234.238 139.927 232.752 138.492 231.739 136.813C231.598 136.575 231.906 136.383 232.104 136.486Z" fill="black"/>
<path d="M232.893 121.983C236.462 125.085 240.685 126.117 244.819 125.732C246.665 125.572 248.523 125.098 250.273 124.412C250.625 124.303 250.965 124.162 251.266 123.996C251.574 123.861 251.856 123.739 252.189 123.566C252.682 123.342 252.842 122.836 252.785 122.323L252.772 122.291C252.721 122.131 252.682 122.003 252.599 121.855C252.599 121.855 252.599 121.855 252.593 121.823L252.471 121.439C251.58 118.029 249.754 112.979 249.754 112.979C251.17 113.236 258.303 114.242 257.687 112.499C252.554 98.1181 246.851 82.1224 238.705 68.8953C238.462 68.4467 237.757 68.7735 237.936 69.2413C242.32 83.2568 249.145 96.407 253.772 110.422C251.535 110.243 247.844 109.782 246.081 110.333C245.639 110.608 249.786 120.029 250.061 121.592C250.061 121.592 250.08 121.657 250.08 121.766C244.608 124.149 239.82 123.675 233.188 121.464C232.79 121.311 232.527 121.708 232.893 121.983Z" fill="black"/>
<path opacity="0.2" d="M167.34 112.133C171.115 109.044 175.883 93.2154 178.1 86.6787C180.401 79.8857 173.575 52.3483 171.345 44.1582C165.712 50.5155 161.745 58.289 160.348 67.043C158.746 77.0083 161.848 94.6701 167.34 112.133Z" fill="black"/>
<path d="M230.342 52.0726C227.144 58.9682 220.665 63.9027 213.065 64.8128C205.663 65.6971 197.236 62.8325 192.724 56.6996C192.59 56.5201 192.308 56.7252 192.442 56.911C197.268 63.4605 204.939 67.7927 213.257 66.5943C221.063 65.4664 228.138 59.6924 230.842 52.2969C230.957 51.9637 230.49 51.7522 230.342 52.0726Z" fill="#1A2E35"/>
<path d="M193.397 6.09172C181.202 9.89197 171.89 19.9213 169.807 29.5725C168.538 35.4363 169.615 40.7105 171.948 45.722C172.044 45.9271 172.467 45.754 172.39 45.5425C169.295 37.4358 170.679 26.7912 177.914 18.4281C184.867 10.3982 195.723 5.406 206.624 6.3096C212.315 6.77743 217.41 8.84097 220.685 12.199C221.05 12.5771 221.889 12.0196 221.562 11.6223C216.019 4.91896 204.433 2.65675 193.397 6.09172Z" fill="#1A2E35"/>
<path d="M272.318 12.2119C268.646 6.72624 262.936 2.75937 256.604 0.977803C247.735 -1.52152 239.417 1.61865 231.22 4.89981C230.996 4.98953 231.137 5.3356 231.355 5.24588C238.346 2.47099 245.594 0.0677929 253.182 1.54816C259.366 2.75937 265.205 6.05975 269.21 10.9559C277.528 21.1198 276.951 36.8527 267.723 46.2476C262.5 51.5666 255.002 54.5786 247.555 54.3351C247.261 54.3287 247.177 54.7773 247.479 54.7965C261.199 55.604 274.228 45.7092 276.413 31.995C277.496 25.2276 276.157 17.9347 272.318 12.2119Z" fill="#1A2E35"/>
<path d="M160.169 80.4881C160.169 80.4881 142.283 61.8137 148.441 46.3308C151.928 37.5575 170.538 33.3215 170.538 33.3215C170.538 33.3215 173.467 21.1068 187.681 13.3333C202.042 5.48288 222.825 9.28954 222.825 9.28954C222.825 9.28954 235.046 -3.17503 250.907 0.772615C273.023 6.27753 278.835 35.9554 262.301 50.695C250.689 61.0447 229.054 54.2901 229.054 54.2901C227.362 55.0271 212.43 70.9587 194.294 58.7376C194.294 58.7376 186.008 71.6893 174.14 67.6006C174.146 67.607 171.935 79.0014 160.169 80.4881Z" fill="black"/>
<path d="M253.413 188.972L239.237 228.185L189.635 181.377L176.696 197.495C176.696 197.495 226.35 272.974 226.51 269.469L241.089 235.741L264.826 257.914L260.77 200.129L253.413 188.972Z" fill="#EDEFEF"/>
<path d="M264.442 229.236C263.449 219.72 262.718 210.1 261.289 200.641C261.238 200.308 260.706 200.174 260.635 200.577C259.072 209.863 263.051 246.244 263.346 254.992C263.314 254.96 263.276 254.928 263.244 254.896C262.25 253.935 241.282 235.427 241.089 235.735C237.853 241.124 227.151 265.688 226.439 267.912C218.589 255.921 188.572 212.388 179.388 201.116C179.125 200.789 178.619 201.084 178.831 201.468C185.848 214.176 225.6 272.827 226.17 272.635C226.574 272.923 239.891 242.662 241.403 236.984C244.986 241.054 266.243 262.035 266.256 260.612C266.358 251.032 265.429 238.766 264.442 229.236Z" fill="#1C1C1C"/>
<path d="M182.394 118.612C182.394 118.612 163.905 99.797 155.125 106.737C146.346 113.678 162.745 142.702 174.812 145.022C186.88 147.342 189.244 136.217 189.244 136.217L182.394 118.612Z" fill="white" stroke="black" stroke-width="1.2817" stroke-miterlimit="10"/>
<path d="M160.034 114.934C159.849 114.946 159.855 115.209 160.028 115.248C168.532 117.138 173.967 123.816 178.19 130.981C175.325 128.43 171.833 127.36 168.353 130.84C168.173 131.025 168.423 131.314 168.641 131.23C171.788 129.987 174.236 130.154 176.876 132.397C178.747 133.986 180.208 136.146 181.682 138.094C182.176 138.741 183.4 138.145 182.99 137.37C182.958 137.312 182.926 137.254 182.894 137.197C181.381 127.014 171.108 114.126 160.034 114.934Z" fill="#1A2E35"/>
</svg>
