<svg xmlns="http://www.w3.org/2000/svg" width="121" height="161" fill="none"><g fill="#000" clip-path="url(#a)"><path d="M17.87 52.11 8.88 45.2l11.2-.16.63-1.97-10.31-7.34c-1.6-1.13-2.74-2.19-3.33-3.39l-.04-.02-1.19 3.82.04.02c1.2-.91 2.84-.88 4.96.63l5.98 4.24-7.84.08c-1.97 0-3.36-.55-4.09-1.73l-.03-.02-2.04 6.5.04.01c1.19-.58 2.76-.67 4.43-.67h.65L14.2 50l-8-.03c-1.97 0-3.38-.5-4.1-1.7l-.06.02L0 54.77l.04.02c1.19-.59 2.74-.67 4.43-.67h12.78l.62-2ZM14.34 31l5.69 3.85c1.79 1.22 2.37 1.9 3.34 3.35l.04.02 3.22-4.8-.04-.01c-1.65-.35-2.6-.67-4.33-1.85l-5.68-3.87a10.33 10.33 0 0 1-3.32-3.37l-.04-.02-3.23 4.79.04.02c1.66.36 2.52.65 4.31 1.89Zm6.7-9.1 4.57 5.14a10.08 10.08 0 0 1 2.41 4.06l.02.04 8.53-7.67-2.52-4.58-.22.12c.3 2 .4 5.64-.7 6.71l-1.78 1.8-7.36-8.27a10.27 10.27 0 0 1-2.41-4.06l-.02-.04-4.27 3.86.02.04a9.87 9.87 0 0 1 3.72 2.86Zm13.45-11.19 2.64 6.82c.74 1.92.85 2.84.79 4.48l.02.04 6.08-2.4c5.72-2.25 7.94-6.28 6.04-11.2-1.89-4.92-6.4-6.26-11.94-4.07-2.74 1.08-3.9 1.62-6.05 2.48l.02.04a9.17 9.17 0 0 1 2.4 3.81Zm3.75-5.8c3.7-1.52 6 .45 7.94 5.4 1.69 4.38 1.59 7.26-2.3 8.78-.1.04-.95.34-1.65.55L36.79 5.58c.56-.26 1.29-.61 1.45-.67Zm25.4 11.93c3.2.3 6.23-.73 6.57-4.36.3-3.19-1.81-4.77-3.89-6.11-1.95-1.2-3.85-2.2-3.68-3.98.12-1.3 1.16-2.05 2.5-1.92 1.65.16 3.04 1.7 4.49 4.76l.24-.04-.18-4.26c-1.1-.46-2.25-.75-3.43-.87-3.12-.3-6.16.65-6.49 4.04-.28 2.96 1.86 4.42 4 5.78 1.89 1.2 3.66 2.23 3.48 4.2-.14 1.42-1.19 2.47-2.96 2.31-1.98-.2-3.5-1.89-5.28-5.64l-.22.04.14 4.57c1.17.69 2.86 1.3 4.71 1.48ZM78.41 21a8.33 8.33 0 0 0 11.38-3.86 8.48 8.48 0 0 0-4.03-11.42 8.36 8.36 0 0 0-11.4 3.9A8.4 8.4 0 0 0 78.41 21Zm-.22-9.5c2-4.16 4.55-6.65 7.35-5.3 2.8 1.37 2.4 4.94.4 9.1-2 4.15-4.55 6.6-7.3 5.27-2.77-1.38-2.45-4.91-.45-9.07Zm13.36 19.11c3.3 3.37 6.06 2.19 8.74-.47l3.65-3.63c1.57-1.56 2.66-1.82 4.71-2.07v-.06l-3.04-3.08-.04.04c-.16 2.1-.53 3.14-2.1 4.73L99.7 29.8c-2.17 2.17-4.67 3.24-6.78 1.1-1.58-1.6-1.7-3.7 1.06-6.46l4.11-4.1a9.68 9.68 0 0 1 3.93-2.61l.04-.04L98 13.55l-.04.02a10.1 10.1 0 0 1-2.64 3.91l-3.97 3.96c-3.16 3.14-2.5 6.41.2 9.17Zm10.37 4.69c-1.9.99-2.82 1.2-4.51 1.36l-.04.02 5.28 10.2 5.03-1.34-.06-.24c-2-.2-5.52-1-6.3-2.34L100 40.8l9.79-5.13c1.87-1 2.8-1.2 4.51-1.36l.04-.02-2.64-5.11-.04.02a10.1 10.1 0 0 1-3.69 2.94l-6.06 3.16Zm18.84 16.33c-.63-3.1-2.42-5.75-5.74-5.08-2.9.6-3.67 3.09-4.33 5.54-.59 2.17-1.05 4.18-2.99 4.58-1.39.29-2.7-.42-3.06-2.16-.4-1.97.77-3.92 3.8-6.74l-.1-.2-4.3 1.46c-.3 1.32-.39 3.12-.02 4.95.64 3.18 2.52 5.78 6.06 5.05 3.12-.63 3.99-3.13 4.65-5.52.57-2.23.95-4.34 2.7-4.7 1.27-.27 2.3.52 2.56 1.84.33 1.64-.72 3.4-3.22 5.72l.12.22 3.99-1.42c.16-1.1.12-2.33-.12-3.55ZM6.75 86.9l9.45.24.04-1.17a3.04 3.04 0 0 1-1.67-2.78l-1.13-.02c-.04 1.2.44 2.19.9 2.6l-7.55-.21-.04 1.34Zm4.41 12.11c3.08.08 4.92-1.08 5-3.53.06-2.48-1.71-3.71-4.8-3.8-3.08-.07-4.91 1.08-5 3.54-.07 2.47 1.72 3.7 4.8 3.79Zm.16-6c2.24.06 3.79.63 3.73 2.43-.04 1.83-1.61 2.3-3.85 2.23-2.23-.06-3.79-.6-3.73-2.43.04-1.8 1.62-2.3 3.85-2.23Zm4.54 14.01c.05-2.47-1.72-3.71-4.8-3.8-3.08-.07-4.92 1.08-5 3.54-.06 2.47 1.72 3.71 4.8 3.8 3.08.07 4.94-1.06 5-3.54Zm-8.7-.22c.03-1.8 1.6-2.3 3.84-2.23 2.24.06 3.79.63 3.73 2.43-.04 1.83-1.61 2.3-3.85 2.23-2.22-.06-3.77-.6-3.73-2.43Zm3.74 15.13c-2 .57-2.3 1.89-2 2.98.3 1.1 1.25 2.07 3.25 1.53 2-.57 2.3-1.9 1.97-3-.28-1.08-1.23-2.06-3.22-1.5Zm1 3.57c-1.1.3-1.87.1-2.13-.79-.26-.91.28-1.48 1.41-1.8 1.1-.3 1.88-.1 2.14.79.24.89-.3 1.48-1.41 1.8Zm6.09-3.97-10.74-3.2.3 1.09 10.74 3.2-.3-1.1Zm-4.61-7.02c-2 .56-2.3 1.88-1.98 2.98.3 1.1 1.25 2.07 3.25 1.52 2-.57 2.3-1.89 2-3-.33-1.1-1.28-2.07-3.27-1.5Zm2.4 1.74c.26.92-.29 1.48-1.41 1.8-1.11.31-1.88.1-2.14-.78-.26-.92.28-1.48 1.4-1.8 1.12-.33 1.88-.13 2.14.78Zm9.34 18.4-1.83-2.33-7.41 5.9.82 1.03 2.76-2.19 1 1.28c1.52 1.93 3.13 2.4 4.7 1.16 1.57-1.24 1.47-2.92-.04-4.85Zm-.8 3.8c-.97.76-1.84.66-2.98-.82l-1-1.26 2.9-2.3 1 1.25c1.15 1.48 1.04 2.35.08 3.12Zm10.4 5.37-3.61 4.69c-1.17 1.5-2.18 1.58-3.43.6-1.25-1-1.43-1.99-.26-3.49l3.63-4.68-1.05-.81-3.75 4.87c-1.51 1.94-1.05 3.65.75 5.05 1.79 1.4 3.54 1.42 5.03-.53l3.75-4.87-1.07-.83Zm7.47 4.12-2.72-1.18-3.75 8.76 1.2.53 1.4-3.27 1.65.72 1 4.3 1.5.64-1.13-4.6c1.41.26 2.56-.22 3.16-1.64.81-1.85-.08-3.29-2.31-4.26Zm1.09 3.7c-.49 1.15-1.34 1.47-3.03.72l-1.47-.63 1.47-3.43 1.47.63c1.72.77 2.04 1.58 1.55 2.72Zm4.85 8.3 6.22 1.06.19-1.12-4.92-.83.53-3.14 4.07.69.18-1.12-4.07-.69.48-2.92 4.91.83.19-1.1-6.23-1.05-1.55 9.4Zm24.36-5.25-1.11.2c.18.94.14 1.77-.08 2.46l-2.54-2.07c1.09-.97 1.77-1.78 1.57-2.9-.24-1.28-1.4-1.83-2.68-1.58-1.59.3-2.23 1.38-2.01 2.53.16.83.86 1.48 1.59 2.07-1.13 1-2.1 2.01-1.85 3.37.26 1.48 1.65 2.19 3.48 1.84a4.37 4.37 0 0 0 2.72-1.62l.95.77 1.45-.26-1.84-1.48c.42-1.06.54-2.21.35-3.33Zm-5.7-1.6c-.15-.73.24-1.2 1.02-1.36.69-.12 1.23.22 1.35.91.12.63-.04 1.08-1.14 2.05-.67-.55-1.13-.97-1.23-1.6Zm2.01 6.49c-1.29.24-2.05-.22-2.22-1.14-.18-.95.43-1.6 1.37-2.45l2.84 2.37c-.49.64-1.2 1.08-1.99 1.22Zm16.42-15.86 4.07 6.61-7.86-4.24-1.37.85 4.98 8.1 1.07-.67-4.07-6.62 7.85 4.24 1.37-.85-4.97-8.1-1.07.68Zm6.2-5.38 4.4 9.17.94-1-1.06-2.08 2.9-3.07 2.13.98.97-1.04-9.3-3.97-.98 1.01Zm6.17 2.58-2.4 2.51-2.33-4.64 4.73 2.13Zm2.92-13.09-.99-.6-3.74 6.18.96.6 1.53-2.52 7.12 4.36.68-1.14-7.09-4.36 1.53-2.52Zm8.4-8.4-5.8-1.92-.4 1.26 5.6 1.86c1.8.6 2.21 1.53 1.71 3.05-.5 1.52-1.37 2.02-3.18 1.42l-5.6-1.85-.4 1.26 5.8 1.92c2.33.78 3.76-.22 4.47-2.39.68-2.17.12-3.83-2.2-4.6Zm-1.67-12.71c-2-.14-3.04 1.17-3.2 3.63l-.2 2.96 9.42.63.08-1.32-3.5-.22.12-1.8 3.69-2.4.1-1.62-3.93 2.6c-.22-1.43-1.05-2.36-2.58-2.46Zm1.5 5.6-3.7-.25.1-1.6c.13-1.89.77-2.45 2.02-2.37 1.2.08 1.8.77 1.67 2.61l-.1 1.6Zm-4.4-12.68 9.37 3.83.04-1.36-2.18-.83.1-4.22 2.22-.73.04-1.42-9.55 3.33-.04 1.4Zm6.24-2.25-.08 3.47-4.81-1.87 4.9-1.6Zm2.34-8-8.32-.22-.04 1.34 9.45.24.16-5.88-1.13-.02-.12 4.55ZM63.84 74.94l.37-2.33c-3.13-1.44-6-2.64-7.8-3.33.32 1.08 1.7 3.35 7.43 5.66Zm3.65-19.72c-.42.92.04 3.45-1.2 4.53a4.73 4.73 0 0 1-2.06 1.2l1.3 11.15c3 1.4 6.13 2.96 8.75 4.48-4.65-23.57-4.61-23.54-4.61-23.54s-1.76 1.27-2.18 2.19Zm-7.86 45.04c.45-.23.75-.55.87-.73-.6-1.55-1.2-3.1-1.77-4.67l-1.5 1c.63 2.19 1.7 4.4 2.4 4.4Zm4.64-4.91-1.31-4.4-1.21.75c.16 1.25.93 3.79 1.51 4.24.36-.17.7-.33 1-.6Z"/><path d="M55.63 98.89c.05.22.07.44.07.67a6.1 6.1 0 0 0 2.56.93c-1.16-1.36-1.91-4.06-2.07-4.75-.06-.2.04-.42.2-.54l1.98-1.34c-.49-1.34-.93-2.6-1.2-3.47-.84-2.84-5.6-16.37-6.46-17.91-.5-.9-1.31-1.48-2.06-1.52-.56-.02-1.08.26-1.53.85-.78 1.1-1.19 4.32-.86 6.96.26.1.52.22.78.36 1.84 1.04 4.35 3.63 5.99 10.06 1.24 4.87 1.89 7.18 2.23 8.44.2.6.3.97.37 1.26Zm-2.24-4.36-1.71 1.42c.44 1.86 1.39 4.52 2.15 4.93l.08.02c.18-.1.35-.2.47-.37.3-.36.4-.87.26-1.42-.06-.28-.16-.63-.33-1.22l-.92-3.36Z"/><path d="M49.7 70.19c.75.32 1.41.95 1.9 1.78.98 1.73 5.82 15.62 6.56 18.14a118.7 118.7 0 0 0 2.18 6.12c.24.04 1 .14 1.9-.02-1.02-1.44-1.5-4.42-1.52-4.77a.54.54 0 0 1 .22-.44 68 68 0 0 1 1.72-1.08L60 81.02c-.04-.1-.02-.2.02-.3-3.23-2.36-6.09-6.13-4.68-12.3v-.02l.02-.06.06-.12.06-.06c.02-.04.06-.06.1-.08l.02-.02c.02-.02.04-.02.06-.02l.1-.04h.19l.04.02h.04l1.27.48-.22-.67c-.5-1.36-1.11-2.23-1.88-2.67-.04-.02-.08-.02-.12-.05-.77-.38-1.71-.4-2.92-.04-2.68.8-2.52 4.3-2.46 5.12Z"/><path d="M74.6 77.91a107.91 107.91 0 0 0-9.45-4.88c-.1.56-.26 1.6-.42 2.67a.56.56 0 0 1-.24.37.55.55 0 0 1-.26.06c-.06 0-.12-.02-.18-.04-4.98-1.9-7.14-3.9-8.08-5.38-.5 7.47 6.3 10.45 9.75 11.93l.5.22a.5.5 0 0 1 .28.6c-1.55 5.67 1.7 7.46 1.74 7.48a.52.52 0 0 1 .22.69c-.08.18-.26.26-.44.26a.53.53 0 0 1-.25-.06c-.16-.08-3.82-2.09-2.33-8.22l-.13-.04a31.58 31.58 0 0 1-4.15-2.09c.81 2.68 3.47 11.53 4.14 13.86.06.18 0 .36-.13.5-.49.5-1.08.87-1.73 1.1l-.04.02a6.2 6.2 0 0 1-2.13.37c-.2 0-.39 0-.55-.02l.8 2.09c.07.12.05.28-.01.4-.02.04-.57 1.18-1.96 1.58-.34.1-.69.15-1.04.15-.91 0-1.94-.33-3.03-.94-.08.22-.2.43-.34.61-.2.26-.46.45-.77.6-.02.03-.03.05-.07.07h-.02c-.42.2-.87.3-1.34.28-1.22-.04-4.27-.79-5.74-6.97-1.27-5.28-1.83-6.17-2.6-6.98-.18-.2-.18-.53.02-.71.2-.18.53-.18.71.02.97 1.03 1.57 2.1 2.86 7.44 1.19 4.93 3.28 5.99 4.43 6.17-1.2-1.64-2-5.15-2-5.21a.53.53 0 0 1 .17-.51l2.32-1.93-1.05-4c-1.21-4.74-3.19-8.1-5.52-9.45a3.9 3.9 0 0 0-3.12-.48c-.34.1-.66.26-.93.48-.42.33-.75.81-1 1.44-.13.29-.23.61-.31.98-.02.06-.04.1-.04.16a21.21 21.21 0 0 0-.2 5.44 46.3 46.3 0 0 0 1.5 8.3c1.12 4.44 2.79 9.95 4.9 16.6 3.87 12.16 12.03 10.51 12.11 10.5a.52.52 0 0 1 .6.38.53.53 0 0 1-.38.6c-.02 0-.48.1-1.23.1a10.3 10.3 0 0 1-4.37-1c0 .85-.1 7.34-1.39 12.65 4.68.87 20.53-5.72 20.53-5.72l2.56-19.84c0 .02 11.79-15.41-1.17-32.7Zm-7.19 21.77c-.22.1-5.3 2.72-3.65 9.8a.5.5 0 0 1-.38.6l-.12.03c-.22 0-.44-.17-.48-.39-1.86-7.9 4.13-10.91 4.19-10.95a.5.5 0 0 1 .66.22.5.5 0 0 1-.22.69Zm-4.63-64.4c-1.57.9-6.03 3.26-2.8 11.56.82 2.13 1.6 3.71 1.65 6.16.04 2.46-1 6.78 2.37 6.68 3.39-.1 1.42-4.02 2.69-5.76 1.27-1.73 1.67-1.32 2.01-4.59.36-3.26 1.91-1.48 1.57-5.96-.36-4.48-.7-5.76-1.87-7.38-1.17-1.63-4.05-1.63-5.62-.72Z"/></g><defs><clipPath id="a"><path fill="#fff" d="M0 0h121v161H0z"/></clipPath></defs></svg>