<svg xmlns="http://www.w3.org/2000/svg" width="85" height="94" fill="none"><path stroke="#fff" stroke-width="4" d="M21 40v4a5 5 0 0 0 5 5h12"/><path fill="#fff" fill-opacity=".5" fill-rule="evenodd" d="m54.212 54.669 1.854-2.078 1.377 2.42 4.295 7.546-3.476 1.98-2.918-5.128-7.625 8.547.024.025-.057.062 6.637 7.646-3.02 2.622-6.351-7.316-6.818 7.364L35.2 75.64l7.058-7.622-8.322-8.747-3.225 5.313-3.42-2.076 4.582-7.547 1.356-2.235 1.802 1.894 9.922 10.428 9.26-10.38Z" clip-rule="evenodd"/><path stroke="#fff" stroke-width="4" d="M11.656 72.79C6.014 78 3.428 87.55 3 92h42L29.61 64c-3.74.543-12.31 3.581-17.953 8.79ZM60.39 64c3.74.543 12.31 3.581 17.954 8.79 1.184 1.094 2.233 2.378 3.156 3.766L66.5 92H45l15.39-28ZM27.892 25.89C27.456 16.143 35.242 8 45 8c9.758 0 17.544 8.142 17.108 17.89l-.783 17.5C60.934 52.122 53.74 59 45 59c-8.74 0-15.934-6.878-16.325-15.61l-.783-17.5Z"/><path stroke="#fff" stroke-opacity=".5" stroke-width="4" d="M27.5 25s4.288-5.48 9.345-6.676c7.626-1.803 7.336 4.338 18.5 8.008C58.078 27.23 62 27 62 27"/><path fill="#fff" fill-rule="evenodd" d="M72.92 34.152a10.516 10.516 0 0 0-1.922-6.516C70.818 12.49 59.392 0 45 0 30.91 0 19.665 11.97 19.028 26.683a10.528 10.528 0 0 0-2.681 7.469l.021.536c.236 5.829 5.151 10.363 10.98 10.128l-.161-3.997a6.562 6.562 0 0 1-6.822-6.292l-.021-.537a6.562 6.562 0 0 1 6.292-6.821l-.161-3.997a10.56 10.56 0 0 0-3.138.608C25.174 12.435 34.29 4 45 4c10.81 0 19.994 8.592 21.712 20.095a10.534 10.534 0 0 0-3.92-.923l-.16 3.997a6.562 6.562 0 0 1 6.292 6.821l-.022.537a6.563 6.563 0 0 1-6.821 6.292l-.162 3.997c5.83.235 10.745-4.3 10.98-10.128l.022-.536Z" clip-rule="evenodd"/><rect width="10.677" height="6.244" x="38.003" y="45.892" stroke="#fff" stroke-width="4" rx="3.122" transform="rotate(.4 38.003 45.892)"/></svg>