<svg xmlns="http://www.w3.org/2000/svg" width="293" height="334" fill="none"><path fill="#010000" d="m145.6 145.46.52.28.18.8-3.92 9.3a6.6 6.6 0 0 1-.63-.75c.34-.65.52-1.4.83-2.08l3.01-7.55ZM161.23 113.7l.82-.1c-.53 6.41-3.25 12.22-8.17 16.43a3 3 0 0 1-.75.5 25.43 25.43 0 0 1-5.3-2.62l.2-.35c1.56.46 3.27 1.5 4.78 2.2.36-.22.66-.44.98-.71 4.03-3.44 7.02-10.14 7.44-15.35Z"/><path fill="#0C0C0C" d="m148.02 127.56-.12-.35 13.42-15.6-.1 2.1c-.4 5.2-3.4 11.9-7.43 15.34-.31.27-.62.5-.98.7-1.51-.7-3.22-1.73-4.79-2.2ZM145.6 145.46l3.03-7.4c1.06-2.47 2.09-5.77 4.41-7.29l.54-.4c5.1 2.66 7.96 9.52 9.58 14.75.87 2.8 1.14 5.5.84 8.4-.72-.83-1.22-2.17-1.77-3.16-1.42-2.52-2.83-4.68-3.86-7.4-.1 1.95-.02 5.16-1.33 6.71l-.2.26-.14.17c.65 2.53 2.66 4.75 2.93 7.47l-2.51-5.35c-1.08 3.71-2.43 7.8-4.33 11.16-.22.4-.55 1.2-.92 1.45l-.08-.2c-.9-2.29-2.05-4.42-2.9-6.75-.2-.54-.01-1 .14-1.53.32-1.2 1.52-3.91 1.26-5.07-.14-.7-1.13-1.89-1.49-2.61a33.06 33.06 0 0 1-1.8-4.37c-.2.76-.39 1.51-.7 2.24l-.19-.8-.52-.28Z"/><path fill="#0C0C0C" fill-rule="evenodd" d="m127.25 115.24 20.58 12.67.2-.35-.13-.35 13.42-15.6-.1 2.1.83-.1v-.56c0-.69 0-1.45.22-2.02.35-.88.26-2.1.19-3.18l-.05-.86 5.4 1.49c2.83.55 6.17.47 8.6-1.23a6.68 6.68 0 0 0 2.43-3.27c.22-.68.34-1.4.42-2.11.08-.74.1-1.5.14-2.24.06-1.33.12-2.67.43-3.96.25-1.06.61-2.09.97-3.11.46-1.3.9-2.58 1.15-3.92l.05-.26a3.9 3.9 0 0 0-.01-1.8l-.2-.98.23-1.13c.15-.77.3-1.54.6-2.28.17-.43.39-.85.6-1.28.31-.61.62-1.22.81-1.86.12-.42.18-.86.23-1.3.04-.36.09-.72.17-1.07.18-.76.39-1.5.6-2.25.47-1.7.94-3.37 1.06-5.2.13-1.93-.1-3.94-.38-5.86-.03-.2-.1-.47-.18-.77a5.01 5.01 0 0 1-.25-1.43c0-.08.2-.36.34-.56l.13-.18c.61-.98.85-1.45.85-2.65l.24-.24c.74-.88 1.93-3.06 2.48-5.16.2-1.8-.16-3.91-.53-6-.22-1.28-.44-2.54-.53-3.73l.95-.71c.78-.57 1.57-1.16 2.24-1.82a14.5 14.5 0 0 0 3.91-8.17c.34-2.97-.53-6.07-2.44-8.38a8.02 8.02 0 0 0-4.52-2.76c-.11-.03-.15-.03-.17-.05-.02-.02 0-.07-.05-.23 1.3-4.22 1.46-8.23-.64-12.26-1.7-3.28-4.3-4.22-7.82-4.75-.96 2.13-2.88 2.9-4.65 3-2.47.14-5.33-1.02-7.9-2.06-.86-.35-1.67-.68-2.44-.94-10.49-3.69-24.17-6.57-32.8 2.61-.74.78-1.42 1.63-2 2.53-.09.13-.2.35-.35.6-.33.6-.75 1.37-1.03 1.55-.28.17-1.08.25-1.78.3-.38.04-.73.07-.95.12-1.73.36-3.33 1.1-4.87 1.96-10.75 6.07-12.8 19.62-12.37 30.92.48 12.5 5.18 23.73 11.24 34.47.26.46.52.97.8 1.5.85 1.63 1.8 3.45 2.96 4.57.5.48 1.06.76 1.7 1 .21.7.1 1.7.01 2.58l-.08.86c-.27 4.45-.67 9.01-1.53 13.38l-.18.02-.29.02-.2.02c-1.1.1-2.11.83-2.79 1.7-.58.75-1.05 1.66-.93 2.64.4 3.17 4.41 5.93 7.13 7.8l.83.57Zm57.27-57.8Zm-4.98 1.87-.26-.12.02-1.1c.02-.27-.03-.33-.14-.49a3 3 0 0 1-.1-.14l.1.14c.12.16.16.22.14.5l-.02 1.09.26.12Z" clip-rule="evenodd"/><path fill="#010000" d="M151.62 277.16h4.75c.38 0 1.28-.1 1.6 0 .13.05.2.18.31.27l-.1.29-4.93.05c-.55 0-1.3.1-1.77-.2l.14-.4Z"/><path fill="#161515" d="M148.25 267.61c1.15.8 2.46.6 3.82.6l5.75.04c-.4.32-1.13.2-1.65.2h-5.06c.12.35.14.3.43.49-1 .02-2.12-.07-3.07.25-.3.47-.24.7-.24 1.24l-.16-.19c-.1-.4-.15-.57-.01-.97.18-.54.17-1.09.19-1.66ZM170.2 288l5.5.02c.85 0 1.87-.1 2.7.03l-.24.2-4.95.04-.23.37c.52.34 1.73.2 2.38.2h6.6c.97 0 2.23-.17 3.14.1-1.73.26-3.63.14-5.38.15l-9.64-.04.33-.58-.2-.48Z"/><path fill="#010000" d="m175.73 256.47 5.02-.08c1.72.47 3.94.2 5.74.2l-.07.25c-.59.26-1.24.12-1.86.24-1.05.18-2.39.03-3.47.02l-8.08-.08-.04-.18-.82-.06-.1-.2 3.47-.09.21-.02Z"/><path fill="#161515" d="m194.2 303.38 19.23.07c-.79.73-15.39-.2-15.83.26-.08.08-.1.22-.15.33.65.47 1.67.1 2.43.45l-5.4-.06c-.34.4-.39.95-.49 1.45-.04-.55-.1-1.08.07-1.61.1-.33.14-.54.14-.88Z"/><path fill="#010000" d="M157.45 273.23c.77-.02 2.08-.22 2.8-.06.57.04 1.15-.03 1.62.29-.07.08-.35.35-.35.45h-11.3l-.1-.21-1.7-.06.19-.23c.71-.17 1.4-.05 2.12-.02 1.01.04 6.2.31 6.72-.16Z"/><path fill="#161515" d="m182.4 238.4 6.08.12c-.1.3-.12.6-.4.77l-4.33-.18c-.07-.14-.03-.34-.03-.5-.48 0-.95.1-1.33-.2Z"/><path fill="#FBFAFC" d="M169.94 315.79c.26.35.45.74.64 1.13.15.29.12.12-.01.51-2.6.84-6.13.43-8.86.43l-12.5-.02c-3.1-.03-6.6.25-9.64-.17-.65-.1-.82-.13-1.2-.65.1-.57.1-.7.51-1.1.3-.3 1.05-.82 1.44-.96.25-.08.95.01 1.24.02l3.08.03 23.78-.02c.48.05 1.1.53 1.52.8Z"/><path fill="#fff" d="m193.64 299.3 12.23.16c1.53 0 3.67-.3 5.14.02l.25.02c1.09.11 2.25-.14 3.3.06l.08.48c.81 0 1.54.17 2.12.79.31.33.4.62.43 1.08-.26.6-.47 1.05-1.11 1.3-.77.3-1.83.22-2.65.24l-19.23-.06c-.28-.9-.4-1.8-.73-2.7-.1-.3-.05-.35.02-.65l-.12-.44.27-.3Z"/><path fill="#010000" d="m193.64 299.3 12.23.16c1.53 0 3.67-.3 5.14.02l.25.02c1.09.11 2.25-.14 3.3.06l.08.48c-4 .61-8.44.28-12.48.28-2.69 0-6.07.32-8.67-.28l-.12-.44.27-.3Z"/><path fill="#fff" d="m171.3 318.68.21.16c.04.95.26 2.8-.38 3.52-1.57.57-3.68.34-5.35.34h-9.3c-5.94 0-12.06.3-17.98-.13l-.22-.12c-.34-.25-.35-.46-.41-.85-.14-.82-.23-1.82.26-2.53 1.3-.45 2.97-.31 4.35-.3l7.52.05 21.3-.14Z"/><path fill="#010000" d="m148.4 301.63 12.36.06c1.46 0 3.25-.25 4.67-.05l.09.25.25.67c.2.54.3.9.81 1.24 2.44.58 5.47.3 8 .31.66.01 1.65-.11 2.26.03l.16.06c.38.14.57.2.99.21-.1.2-.06.2-.27.28-.5.2-1.22.1-1.76.1-1.59.01-3.45-.18-5 .1l.24.04c2.2.2 4.45.13 6.65.14.86.01 2-.12 2.81.12.15.73.55 1.86.29 2.54l-1.32-.05.58.44c-.54.2-1.1.25-1.67.32 1.47.11 3.17.05 4.48.8l.04.27c-.4.19-.75.25-1.18.32l-.25.33c.23.53.34.52.88.73.45.17.93.25 1.4.32.25.56.13 1.31.1 1.91-.82.47-2.23.19-3.2.27-.54.44-8.33.19-9.67.19l-.3-.18c.03-.42.1-.63.2-1.02l-.05-1.16-.03.17a4.02 4.02 0 0 1-3.08 3.03l.7.13c.32.06.4.22.66.36l.26.11.1-.64c.7-.51 10.04-.24 11.54-.24l.09.1-2.07.03-.1.18-6.52.04c-.59 0-1.7-.15-2.25 0-.16.05-.26.2-.38.3l.2.85-.17.15c-.41-.27-1.04-.75-1.52-.8l-23.78.02c-.65-.25-1.37-.29-2.06-.39l-.06-.2 5.6-.02c.6 0 2.06.17 2.47-.23 4.13-.24 8.36-.07 12.5-.06 1.57 0 3.45.2 4.98-.11 1.2-.25 1.93-1.42 2.53-2.4-.96-2.37-2.96-3.37-4.78-4.96-1.23-1.08-1.16-2.36-1.28-3.9l-14.71-.1c-.5-.17-.98-.2-1.5-.26l.06-.75Z"/><path fill="#fff" d="m179.63 307.68-7.73-.17c-1.08-.02-2.72.12-3.71-.3-1.27-.53-1.63-1.29-2.17-2.47l4.94.16.24.03c2.2.2 4.45.13 6.65.14.86.01 18.66-.12 19.47.12.15.73.55 1.86.29 2.54l-17.98-.05ZM173.41 313.28c-.68 0-1.52.1-2.15-.16.09-.33.15-.68.16-1.03.04-1.5-1.3-2.78-2.3-3.77l9.42.12c7.26 0 11.42.07 20.06.07 1.28 2.17 1.6 4.88-4.16 4.88-7 0-14.02 0-21.03-.11Z"/><path fill="#fff" d="m145.42 301.56 2.97.07-.06.75c.52.05 1 .09 1.5.26l14.7.1c.13 1.54.06 2.81 1.3 3.9 1.81 1.6 3.8 2.6 4.77 4.97-.6.97-1.32 2.14-2.53 2.39-1.53.31-3.41.12-4.97.11-4.15 0-8.38-.18-12.51.06-.9-.17-2.1-.03-3.03-.03l-7-.08c-.46-.25-.9-.83-1.13-1.3-1.5-2.9 3.64-5.53 5.03-7.42.5-.69.82-1.74 1.08-2.54l.05-.15c-.01-.36-.04-.23.06-.56l.08-.22-.3-.3Z"/><path fill="#161515" d="m145.42 301.56 2.97.07-.06.75c.52.05 1 .09 1.5.26h-4.24c-.01-.35-.04-.22.06-.55l.08-.22-.3-.3Z"/><path fill="#0C0C0C" fill-rule="evenodd" d="m108.38 116.37-2.59 2.43c-1.55 1.45-3.01 2.14-4.76 2.96-.49.23-1 .47-1.53.74l-29.37 13.15-8.33 5.63-.5.37a15.9 15.9 0 0 0-2.97 2.6c-1.92 2.37-2.7 5.77-3.37 8.73l-.11.5-2.04 10.5-5.56 35.44-5.63 41.38-2.5 19.29c-.63 5.17-1.24 10.46-1.07 15.68.18 5.42 1.34 10.66 4.28 15.3 2.37 3.73 6 6.93 10.17 8.5 4.98 1.88 10.3 3.09 15.52 4.28l2.98.68 32.5 8.16 3.82 6.82c.24.05.56.09.9.13.71.08 1.54.18 1.97.43l-.13 5.14-109.86.05-.2 8.2 292.98-.06.02-8.12-62.52-.48c3.51-3.55 4.14-8.99 3.51-14.12l6.89-14.45 5.71-13.8.83-2.1c2.2-5.51 4.43-11.15 4.58-17.14.1-4.24-1.06-8.42-2.2-12.5-.22-.75-.43-1.5-.62-2.24l-2.74-10.25-6.57-23.74-12.17-43.08c-.6-2.06-1.17-4.14-1.75-6.22-2.3-8.22-4.6-16.5-7.62-24.44-.67-1.77-1.44-3.8-2.92-5.07-1.71-1.47-3.93-2.49-6.08-3.48-.85-.38-1.68-.77-2.47-1.17l-33.76-10.27 15.15 23.78-6.56 6.47-.49-.4c.51-.53 1.05-1.07 1.6-1.61 1.5-1.5 3.07-3.06 4.17-4.77-2.7-3.84-5.1-7.86-7.49-11.89-1.42-2.4-2.84-4.79-4.33-7.15-.34-.54-.67-1.1-1-1.65-.61-1.06-1.23-2.12-1.96-3.08-2.31-3.04-4.91-5.95-8.33-7.72a25 25 0 0 0 .55 4c.1.48.19.98.28 1.5l1.19 8.3 1.84 18.58c.22 1.98.52 3.96.82 5.93a110 110 0 0 1 1.01 7.9c.32 3.98.23 7.96.1 11.95-.34 10.34-1.85 20.74-5.35 30.5l-3.6 8.8-.12.23a22.58 22.58 0 0 1-2.65 4.69c-4.6-4.87-7.98-11.02-11.2-16.85l-.1-.18c-7.93-14.4-14.32-29.26-19.83-44.73l-6.64-19.74 21.59 23.5.63-1.24a6.6 6.6 0 0 1-.63-.76c-.34-.22-.66-.65-.96-1.05a10.6 10.6 0 0 0-.38-.49l-3.55-4.04c-1.77-1.96-3.6-3.89-5.44-5.82-3.9-4.08-7.8-8.18-11.14-12.7a11.46 11.46 0 0 1-1.77-3.6c-1.44-4.48-3.07-10.11-2.49-14.82.2-1.55 1-3.45 1.73-4.83l.15-.27-2.76 1.78c-.75.55-1.4 1.27-2.02 1.97l-.47.52-4.27 4.63Zm-3.94 4-.77.48v1.28c0 1.43-.1 2.87-.22 4.31-.08 1.07-.16 2.13-.2 3.19l-.24 18.22c0 .6-.02 1.25-.05 1.92-.06 1.66-.13 3.44.19 4.89l8.03 3.18 3.97 1.35.6.16c.55.14 1.08.27 1.55.63l-7.62 5.3-1.3.9a23.91 23.91 0 0 0-3.48 2.65v.32l.82.79.53-.21-.53.2v.03l3.85 5.57c4.08 6.13 39.42 58.94 41.17 59.79a60.13 60.13 0 0 1-2.46-3.78c-.48-.79-.96-1.57-1.46-2.33l-8.46-12.76-22.33-33-6-8.92-2.6-3.76-.2-.29c-.31-.43-.66-.9-.73-1.41l-.03-.28 11.81-8.95-.45-.3a32.44 32.44 0 0 0-4.16-1.66c-.7-.24-1.4-.48-2.08-.75-.83-.32-1.67-.66-2.5-1.01-1.65-.69-3.3-1.38-4.98-1.88l.33-33.88Zm-14 105-1.08 6.85-.23 1.25c-.4 2.27-.81 4.49-.84 6.83.6 3.7-.71 9.7-1.96 15.36-.91 4.14-1.78 8.1-1.83 10.84-.32 1.94 1.23 2.17 3.26 2.48 1.11.17 2.37.36 3.54.86-.64.36-1.19.47-1.89.28l-6.06-1.7c.74-2.86 1.14-5.78 1.54-8.7l.22-1.58 2.69-20.8c-.15-.67.08-1.76.28-2.73.1-.44.18-.86.23-1.2l1.34-10.14 1.2-12.71c.6-10.16-.05-20.54-2.38-30.47-.5-2.14-1.16-4.24-1.8-6.35-.35-1.13-.7-2.26-1.03-3.4 2.3 4.2 3.67 8.9 4.72 13.55.97 4.3 1.7 8.53 2 12.92.64 9.64-.48 19.05-1.92 28.56Zm86.37 8.2h.11c1.15-.04 2.24-.07 3.38.16.4.33.6.9.8 1.42l.12.35-2.93.15-4.4.09.9-.74a9.82 9.82 0 0 1 2.02-1.44Zm33.7 53.03h.01l.01.01c.03 0 .04.02.05.03a3.14 3.14 0 0 0 .12.26l-.46.24c-2.65-.16-5.3-.07-7.96.03l-2.37.07-.95.06c-1.2.09-2.78.2-3.5-.13-.12-.05-.2-.15-.28-.24l-.12-.13.16-.35 1.29-.3 2.6-17.59 6.58.01 1.8 11.84.07.38.07.38c.31 1.67.65 3.43 1.3 4.96.43.24.82.3 1.28.38l.09.01.1.05h.04l.02.01.02.01h.03Zm-9.35-25.83-.96.06c-1.26.12-1.8.2-2.7 1.13l.13.26 6.8-.04h.5c.62 0 1.23 0 1.68-.4l-.06-.78c-.81-.56-3.66-.35-5.4-.23Zm-27.4-9.38 9.04-.06c.67.04 1.07.14 1.53.63l-.23.3-1.33.1-7.38.12c-.25 0-.52 0-.79.02-.86.02-1.8.05-2.56-.16l-.16-.38c.47-.46.99-.5 1.59-.54l.29-.03Zm1.54 1.67c.77.02 1.54.04 2.31.04l4.55-.14.35-.01c.86-.04 1.8-.08 2.52.38v.6c-.24.1-.4.12-.66.13l-9.55.04-.6.02c-.88.03-2.16.07-2.63-.23-.1-.06-.18-.15-.26-.23a2.95 2.95 0 0 0-.12-.13l.28-.46c1.28-.08 2.54-.04 3.8-.01Zm22.55 9.77H204.96c1.01-.01 2.28-.03 3.05.43l.02.13v.07c.04.37.06.53-.14.91l-.66.1-7.37-.07h-.49c-.8-.01-1.83-.01-2.38-.34l-.08-.04c-.09-.05-.13-.07-.15-.1l-.03-.12-.01-.1-.02-.1v-.02c.38-.48.53-.53 1.03-.71l.12-.04Zm-49.51 4.26-.1.52c.95.66 2 .64 3.1.62l.73-.01 5.75.03.65.01h.01c.97.02 2.35.05 2.82-.3l.03-.23c.05-.33.07-.46-.14-.82-1.39-.37-3.08-.31-4.65-.26-.52.02-1.03.04-1.51.04-.44 0-.95-.02-1.49-.04-1.77-.07-3.88-.15-5.2.44Zm-57.58 3.77h.03l.04-.02c.14-.05.22-.08.41-.08.63.01 1.39.22 2.1.41.36.1.7.2 1.02.26l16.45 3.94c.23.07.5.13.81.2 1.1.27 2.5.62 3.02 1.22-1.67.66-21.09-4.86-23.88-5.93Zm63.29-1.94c-.87.02-1.7.03-2.5.02h-.67c-.81 0-1.67 0-2.41.25-.25.4-.25.62-.24 1V270.44a7.84 7.84 0 0 1 .17.1c.1.06.13.08.32.1 1.25.12 2.55.07 3.85.02.82-.03 1.63-.06 2.43-.04l4.5.2h.36c.37.02.83.04 1.07-.03.1-.03.16-.1.23-.18l.06-.06a.81.81 0 0 1 .05-.05 3.44 3.44 0 0 1 .05-.27c.06-.33.1-.53-.15-.88-2.15-.5-4.72-.46-7.12-.42Zm3.4 4.3h-1.62c-3.06.01-8.8.03-9.44-.41l-.04-.23-.02-.13c.01-.04.04-.08.1-.15l.05-.06.03-.04c.5-.64 1.44-.69 2.24-.73l.2-.01h.1c2.8-.2 5.6-.13 8.4-.06h.33c.31.02.65.01 1 0 .79 0 1.63-.02 2.34.12.45.09.95.33 1.28.67l.13.16-.16.36c-.7.22-1.38.37-2.12.46-.5-.11-1.29-.05-1.98 0l-.82.06Zm41.4 13.05c-.19 0-.39 0-.58.02l.58-.02Zm-25.02-29.84c.8 0 1.5-.01 1.9.04l5.02-.08c.44 0 .94.02 1.48.05 1.45.07 3.1.15 4.2-.22l.04-.3c-.14-.1-.28-.17-.42-.25a3.55 3.55 0 0 1-.1-.06c-.25-.14-.4-.37-.56-.6l-.03-.05-.06-.09c-1.29-.3-2.73-.27-4.1-.23h-.01l-1.17.03-9.54.16c-.41.32-.5.63-.62 1.08l-.02.07v.05c.46.43 2.4.41 3.99.4Zm22.89 8.66c1.6-.11 3.24-.09 4.86-.06l1.95.02c.44 0 .9 0 1.36-.02 1.53-.04 3.16-.08 4.54.29.89.23 1.22.8 1.6 1.48l.28.46-2.85.2-10.79-.03-.93.03c-.91.04-2 .09-2.63-.11-.09-.03-.15-.1-.21-.18a1.22 1.22 0 0 0-.1-.1c.04-.4.09-.64.32-.97.54-.79 1.68-.91 2.55-1l.05-.01Zm-22.85-26.67 8.52-.02c.3.24.65.23 1.02.22a6.92 6.92 0 0 1 .3 0v.12c0 .13-.01.26.04.37l4.32.18c.22-.12.28-.33.34-.56l.07-.21.32-.37-.16-.38a10.1 10.1 0 0 0-2.53-.55c-.51-.06-1.03-.13-1.55-.24-.41-.1-.8-.23-1.2-.37a7.3 7.3 0 0 0-1.97-.47c-3.6-.2-7.45.12-10.98.75l-.7.11c-.98.15-1.82.27-2.66 1l.13.28c1.75.28 3.57.23 5.35.18l1.34-.04Zm-18.45 5 .08-.02c.55-.09.92-.09 1.4.15.14.67-.1 1.4-.33 2.08a16 16 0 0 0-.15.47l2.43.34c.17.78.17 1.97-.23 2.65-.53.15-1.05.1-1.58.04l-.28-.03c-.43.2-.36.8-.3 1.43.07.58.14 1.18-.16 1.55l-1.8.03-1.07-.04c-.3-.45-.22-1.58-.15-2.41l.04-.6-2.9-.12v-.13l-.01-.1c-.04-.77-.1-1.85.33-2.4l1.93.19v-3.02l2.75-.05Zm6.1 30.5.68.04c.93.13 2.03 1.04 2.57 1.76.29.39.34.45.26.9-.7.3-1.44.3-2.18.3h-.44l-4.2.02c-1.21 0-2.45.03-3.7.05h-.01c-3.65.07-7.4.15-10.9-.33l1.13-1.43c.31-.34.93-.95 1.35-1.12.77-.3 2.1-.25 3.18-.22l.95.02h11.31Zm19.57-16.82-8.08-.08-.99-.03c-.87-.05-1.89-.1-2.42.07-.27.09-.92.8-1.34 1.26l-.28.3c-.23.24-.34.44-.44.75l.14.37c.98.36 2.18.38 3.29.4.31 0 .63 0 .92.02l10.94.1 1.43.03c1.56.05 3.34.1 4.53-.36l.21-.38a6.42 6.42 0 0 0-2.1-2.31l-2.34-.16c-.75.13-1.63.1-2.47.05l-1-.03Zm-3.93-36.14a.46.46 0 0 1 .11-.03l.13.02a15.93 15.93 0 0 0 .41.07l.08.01.18.02h.08c.94.06 1.49.53 2.14 1.07l.42.35a5.21 5.21 0 0 0-.63 2.8c.44.38 1.56.31 2.4.27l.58-.03-.02 3.31-3.08-.1v.96c.01.93.02 1.88-.12 2.76l-.56.14-3.12-.17.28-3.51-3.17-.04-.1-3.54 3.31.26-.07-.78a4.65 4.65 0 0 0-.51-2.14l-.1-.18.1-.37c.35-.07.65-.16.97-.3l.12-.8.17-.05Zm24.32 24.14.97-.09c.6.02 1.22.45 1.56.92.24.33.32.7.25 1.1a2.4 2.4 0 0 1-1.04 1.5l-.13.09c.47.35 1.04.57 1.62.8.65.24 1.32.5 1.88.96 1.32 1.07 1.91 2.91 2 4.57a6.7 6.7 0 0 1-1.72 4.34c-.66.7-1.7.74-2.63.77l-.18.01H203.94l-.05.01-5.37.02-.04-.03a6.94 6.94 0 0 1-2.43-6.81c.29-1.5 2.1-3.46 3.44-4.19.2-.1.4-.19.6-.26.25-.1.51-.2.77-.38a3.33 3.33 0 0 1-.5-2.22c.33-.6.52-.78 1.12-1.11Zm-17.73-6 4.32.2a37.68 37.68 0 0 0-4.78 11.6h-7.21c-.27-.02-.55-.02-.83-.02-.82 0-1.66 0-2.42-.17a45.65 45.65 0 0 0-5.18-11.58l16.1-.02Zm-28.88 13.73-.6.02-.53.05c-.54.03-1.18.07-1.55.25-.37.18-.86.82-1.24 1.33l-.36.45-.1.12c-.12.17-.34.45-.4.48-.26.1-.7.15-1.1.18l-.5.05-4 .57 4.9 9.77 6.21-.06 5.24-.04c.35-1.2.9-2.29 1.45-3.38l.5-1.02 2.27-5.26-6.5-.86c.07-.67.04-.9-.4-1.41-.97-1.12-1.88-1.24-3.3-1.24Zm36.38 44.41-.29-.3c-.48-.5-.6-.63-.67-1.33.44-1.2 1.45-2.02 2.46-2.84.92-.73 1.83-1.47 2.3-2.48.32-.65.38-1.42.44-2.15l.04-.34h14.46c.1 1.49.2 2.77 1.35 3.83.45.4 1.03.8 1.64 1.19 1.5 1 3.15 2.07 3.2 3.87.03.75-.46 1.63-.89 2.2a6.9 6.9 0 0 1-2.7.46c-.53.02-1.06.04-1.58.13-1.01-.22-2.34-.14-3.58-.08-.55.03-1.09.06-1.56.06l-12.23-.16c-.9-.49-1.67-1.3-2.38-2.06Zm-21.09-9.42.05.19 5.5.01.84-.01c.63-.03 1.28-.05 1.85.04.95-.03 1.94 0 2.93.03 1.71.04 3.44.09 5.07-.12l.04-.23-.72-.33c-1.83-2.1-3.46-22.1-3.65-26l-8.05.13a215 215 0 0 1-1.93 18.49l-.15 1.02c-.32 2.12-.68 4.55-1.7 6.3-.15.23-.13.3-.08.48Zm-24.78 13.62-.03-.1a2.94 2.94 0 0 0 .1-.26l1.75-.68c.53-1.17.85-2.58 1.15-3.89l.18-.79c1.36-5.8 1.9-11.76 2.26-17.69l8.35-.05c0 4.83.8 9.67 1.69 14.4l.2 1.11c.46 2.63.97 5.54 2.53 7.64l.13-.14c.24-2.11 1.61-3.7 2.97-5.29.68-.78 1.35-1.57 1.89-2.42a11.3 11.3 0 0 0 1.53-4.21l9.64.04h1.34c1.36.03 2.74.05 4.04-.15l.76.07c.2.35.25.77.29 1.2.02.22.04.44.09.65.15.69.46 1.41.77 2.04a17.59 17.59 0 0 0 3.53 4.41c.48.44.95.88 1.38 1.43 3.16 5.39-.36 5.39-2.6 5.39h-9c-1.22 0-2.5.05-3.81.1-3.37.13-6.9.26-9.92-.45-.48-.31-.6-.65-.78-1.13l-.04-.11-.25-.67-.1-.25c-.93-.13-2.03-.07-3.1-.01-.54.03-1.07.06-1.56.06l-12.37-.06-2.97-.07-.04-.13Zm-21.54-23.12c-1.38-.3-3.23-.7-4.12-.41-5.4 3.46-8.62 11.16-9.94 17.2-1.41 6.44-1.6 14.12 1.4 20.13l15.46 2 .24-.4-.01-.05c-.58-2.17-1.14-4.3-1.39-6.54-.78-7.15.64-15.6 4.24-21.88 1.81-3.17 3.87-5.9 7.16-7.65-2.8-.67-5.67-1.14-8.53-1.6l-3.44-.58-1.07-.22Zm68.12-116.02-.42 4.3.11-.2c.14-.24.27-.48.47-.66-.2.18-.33.42-.47.66l-.1.2-6.14 33.27-2.16 9.82c-.18.75-.38 1.5-.58 2.27-.55 2.08-1.1 4.2-1.29 6.27.63-1 .99-2.21 1.33-3.38l.25-.88c1.42-4.57 2.47-9.24 3.52-13.9l.04-.19.32-1.4v-.01c.52-2.25 1.03-4.48 1.37-6.77l4.15-24.5c.44-1.46.6-3.21.75-4.78l.06-.58-14.22-8.01a23.64 23.64 0 0 1 2.75-2.85l-.5-.4-3.24 3.22 3.2 2.13 2.76 1.6c3.2 1.82 7.92 4.53 8.04 4.77Z" clip-rule="evenodd"/><path fill="#010000" d="M119.64 309.6c.22-.08.25-.1.52-.12.56-.05 1.26.28 1.64.68.43.45.54.97.48 1.57-.06.64-.45 1-.92 1.4l-.22.06c-.58.11-1.08.02-1.54-.37-.52-.44-.68-1.1-.8-1.74.14-.7.33-.97.84-1.48ZM113.96 309.23c.2-.1.21-.11.45-.16.55-.1 1.31.16 1.71.53.45.42.64.97.58 1.58a2.24 2.24 0 0 1-.81 1.5l-.27.1c-.49.17-1.16.13-1.6-.17-.4-.27-.75-.77-.83-1.24-.14-.82.3-1.51.77-2.14Z"/></svg>